<svg width="40" height="30" viewBox="0 0 40 30" fill="none" xmlns="http://www.w3.org/2000/svg">
<g id="ico">
<path id="Vector" d="M38.1656 9.18192H34.2307L32.2416 1.38126C31.9917 0.401057 30.9908 -0.192742 30.0109 0.0570576L25.4759 1.21346C25.17 1.29139 24.9852 1.60266 25.0632 1.90852C25.1412 2.21439 25.4524 2.39899 25.7583 2.32119L30.2933 1.16472C30.6629 1.07079 31.0397 1.29446 31.134 1.66372L31.3543 2.52786L1.38514 10.1698L1.1648 9.30566C1.1192 9.12686 1.146 8.94072 1.2402 8.78206C1.33454 8.62326 1.485 8.51072 1.66387 8.46512L22.2779 3.20859C22.5837 3.13066 22.7685 2.81939 22.6905 2.51352C22.6125 2.20766 22.3015 2.02306 21.9955 2.10086L1.3814 7.35732C0.401204 7.60726 -0.192796 8.60792 0.0570711 9.58806L4.28427 26.1655C4.4956 26.9942 5.24347 27.5469 6.06201 27.5469C6.21154 27.5469 6.3636 27.5283 6.515 27.4898L6.7856 27.4207V28.1241C6.7856 29.1355 7.60847 29.9585 8.62 29.9585H38.1656C39.1772 29.9585 40 29.1355 40 28.1241V11.0162C40 10.0047 39.1772 9.18192 38.1656 9.18192ZM6.78567 26.2411L6.23267 26.3821C5.86334 26.4763 5.4862 26.2523 5.392 25.8831L2.80454 15.7359L6.78567 14.7207V26.2411ZM6.78567 11.0162V13.5411L2.52207 14.6283L1.66767 11.2774L7.19007 9.86912C6.93741 10.1837 6.78567 10.5825 6.78567 11.0162ZM33.0511 9.18179H28.5076L32.7736 8.09399L33.0511 9.18179ZM31.6368 3.63539L32.4912 6.98632L23.8813 9.18192H9.8856L31.6368 3.63539ZM38.1656 28.8154H8.62007C8.23887 28.8154 7.92874 28.5053 7.92874 28.1241V26.6853V11.0162C7.92874 10.6351 8.2388 10.325 8.62007 10.325H38.1656C38.5468 10.325 38.8569 10.6351 38.8569 11.0162V28.1241C38.8569 28.5053 38.5468 28.8154 38.1656 28.8154Z" fill="white"/>
<path id="Vector_2" d="M22.7616 23.252H10.3079C9.99226 23.252 9.73633 23.5078 9.73633 23.8236C9.73633 24.1393 9.99226 24.3952 10.3079 24.3952H22.7616C23.0773 24.3952 23.3332 24.1393 23.3332 23.8236C23.3332 23.508 23.0773 23.252 22.7616 23.252Z" fill="white"/>
<path id="Vector_3" d="M32.2859 13.2012C31.465 13.2012 30.7054 13.4661 30.086 13.914C29.448 13.4517 28.6827 13.2012 27.8839 13.2012C25.8091 13.2012 24.1211 14.889 24.1211 16.964C24.1212 19.0386 25.8092 20.7266 27.884 20.7266C28.6827 20.7266 29.448 20.4761 30.086 20.0138C30.7054 20.4617 31.4651 20.7266 32.2859 20.7266C34.3607 20.7266 36.0487 19.0386 36.0487 16.964C36.0487 14.889 34.3607 13.2012 32.2859 13.2012ZM28.5278 17.1422C28.5284 17.157 28.5295 17.1716 28.5303 17.1862C28.5331 17.2341 28.5367 17.282 28.5412 17.3294C28.5423 17.3406 28.5434 17.3517 28.5446 17.3628C28.6142 18.0312 28.858 18.659 29.2558 19.1954C28.8464 19.4481 28.3742 19.5834 27.884 19.5834C26.4395 19.5834 25.2643 18.4084 25.2643 16.9638C25.2644 15.5194 26.4395 14.3442 27.884 14.3442C28.3742 14.3442 28.8464 14.4797 29.2558 14.7322C28.8582 15.2686 28.6142 15.8965 28.5446 16.5649C28.5434 16.5761 28.5423 16.587 28.5412 16.5981C28.5367 16.6457 28.5331 16.6934 28.5303 16.7413C28.5295 16.7561 28.5284 16.7706 28.5278 16.7853C28.525 16.8445 28.5232 16.904 28.5232 16.9638C28.5232 17.0236 28.525 17.083 28.5278 17.1422ZM32.286 19.5836C31.5708 19.5836 30.9219 19.2952 30.4487 18.8289C30.439 18.8193 30.4294 18.8096 30.4198 18.7998C30.398 18.7777 30.3763 18.7553 30.3554 18.7322C30.3495 18.726 30.3438 18.7196 30.338 18.7132C30.3134 18.6857 30.289 18.6578 30.2655 18.6293C30.2654 18.6292 30.2652 18.629 30.2651 18.6289C29.8912 18.1758 29.6664 17.5956 29.6664 16.9638C29.6663 16.3321 29.8912 15.7517 30.2651 15.2988C30.2652 15.2986 30.2654 15.2985 30.2654 15.2984C30.289 15.2698 30.3135 15.242 30.3382 15.2144C30.3439 15.2081 30.3495 15.2017 30.3554 15.1954C30.3764 15.1725 30.398 15.15 30.4199 15.1277C30.4295 15.1181 30.439 15.1085 30.4487 15.0989C30.9219 14.6326 31.5708 14.3442 32.286 14.3442C33.7306 14.3442 34.9056 15.5194 34.9056 16.964C34.9056 18.4084 33.7306 19.5836 32.286 19.5836Z" fill="white"/>
<path id="Vector_4" d="M14.3808 13.5732H11.8741C10.6953 13.5732 9.73633 14.5322 9.73633 15.711V18.2178C9.73626 19.3966 10.6953 20.3555 11.8741 20.3555H14.3808C15.5596 20.3555 16.5187 19.3966 16.5187 18.2178V15.711C16.5187 14.5323 15.5597 13.5732 14.3808 13.5732ZM15.3755 17.2714H14.1561C13.8405 17.2714 13.5845 17.5272 13.5845 17.843C13.5845 18.1587 13.8404 18.4146 14.1561 18.4146H15.3557C15.2641 18.8691 14.8619 19.2126 14.3808 19.2126H11.8741C11.3929 19.2126 10.9906 18.8691 10.8991 18.4146H12.0987C12.4143 18.4146 12.6703 18.1587 12.6703 17.843C12.6703 17.5272 12.4144 17.2714 12.0987 17.2714H10.8794V16.776H12.0987C12.4143 16.776 12.6703 16.5203 12.6703 16.2046C12.6703 15.889 12.4144 15.633 12.0987 15.633H10.8833C10.9233 15.121 11.3519 14.7163 11.8741 14.7163H14.3808C14.9029 14.7163 15.3315 15.121 15.3716 15.633H14.1561C13.8405 15.633 13.5845 15.8888 13.5845 16.2046C13.5845 16.5202 13.8404 16.776 14.1561 16.776H15.3755V17.2714Z" fill="white"/>
<path id="Vector_5" d="M36.1815 25.7666H16.2806C15.9649 25.7666 15.709 26.0225 15.709 26.3382C15.709 26.6538 15.9649 26.9097 16.2806 26.9097H36.1815C36.4971 26.9097 36.7531 26.6538 36.7531 26.3382C36.7531 26.0225 36.4972 25.7666 36.1815 25.7666Z" fill="white"/>
<path id="Vector_6" d="M12.637 25.7666H10.3079C9.99226 25.7666 9.73633 26.0225 9.73633 26.3382C9.73633 26.6538 9.99219 26.9097 10.3079 26.9097H12.637C12.9527 26.9097 13.2086 26.6538 13.2086 26.3382C13.2086 26.0225 12.9527 25.7666 12.637 25.7666Z" fill="white"/>
</g>
</svg>
