<svg width="23" height="20" viewBox="0 0 23 20" fill="none" xmlns="http://www.w3.org/2000/svg">
<g id="Frame" clip-path="url(#clip0_1_168)">
<g id="Group">
<path id="Vector" d="M22.5748 7.40509C22.5748 6.93003 22.3038 6.66875 21.8325 6.66875C21.1491 6.66875 20.4657 6.66281 19.7824 6.66875C19.6469 6.66875 19.5526 6.63312 19.4642 6.5203C18.7514 5.61174 18.0386 4.71507 17.3199 3.81246C16.395 2.64262 15.4642 1.47873 14.5393 0.308894C14.3508 0.0654257 14.1151 -0.0592774 13.8088 0.023858C13.3139 0.154499 13.1666 0.706756 13.5083 1.14025C14.9104 2.90984 16.3184 4.67944 17.7205 6.44904C17.7676 6.50842 17.8088 6.57374 17.8678 6.65094C13.4671 6.65094 9.09588 6.65094 4.70111 6.65094C4.74824 6.58562 4.77769 6.53811 4.81304 6.4906C5.21953 5.97398 5.63191 5.46329 6.03839 4.94666C7.03988 3.68775 8.03548 2.42291 9.04286 1.164C9.19014 0.973977 9.29618 0.778015 9.24316 0.534547C9.18425 0.255449 9.01341 0.0713639 8.73653 0.0119815C8.44786 -0.0533392 8.224 0.0654257 8.04137 0.291079C6.40364 2.35759 4.76591 4.41816 3.12818 6.4906C3.02214 6.62125 2.92199 6.66875 2.75704 6.66281C2.13258 6.65094 1.50813 6.67469 0.883667 6.65094C0.47718 6.645 0.176733 6.7697 0 7.15569C0 8.16519 0 9.16875 0 10.1783C0.176733 10.5642 0.47718 10.7068 0.889559 10.6711C1.08397 10.6533 1.28426 10.6652 1.48456 10.6652C1.50813 10.7543 1.53169 10.8255 1.54936 10.8908C2.35645 13.7293 3.15764 16.5619 3.96472 19.4003C4.08843 19.8398 4.29462 19.9942 4.74235 19.9942C9.10767 19.9942 13.473 19.9942 17.8383 19.9942C18.286 19.9942 18.4863 19.8398 18.6159 19.3944C19.3229 16.9122 20.0239 14.43 20.7308 11.9538C20.8545 11.5203 20.9783 11.0927 21.102 10.6593C21.3612 10.6593 21.5968 10.6593 21.8325 10.6593C22.3214 10.6593 22.5865 10.398 22.5865 9.91103C22.5806 9.07968 22.5806 8.24239 22.5748 7.40509ZM17.4495 18.6581C13.3434 18.6581 9.24905 18.6581 5.12527 18.6581C4.3771 16.0096 3.62304 13.3552 2.86308 10.683C8.48321 10.683 14.0798 10.683 19.7117 10.683C18.9576 13.3493 18.2035 15.9977 17.4495 18.6581ZM21.2434 9.32315C14.6041 9.32315 7.97068 9.32315 1.33139 9.32315C1.33139 8.88965 1.33139 8.4621 1.33139 8.01673C7.96479 8.01673 14.5923 8.01673 21.2434 8.01673C21.2434 8.45616 21.2434 8.88372 21.2434 9.32315Z" fill="#00171F"/>
<path id="Vector_2" d="M6.36832 12.9812C6.45079 13.474 6.53327 13.9728 6.61574 14.4657C6.74535 15.2436 6.86906 16.0275 7.01045 16.8054C7.07525 17.1498 7.38748 17.3636 7.72327 17.3279C8.05317 17.2923 8.30649 17.0013 8.30649 16.6391C8.3006 16.5857 8.29471 16.5085 8.28293 16.4372C8.07674 15.1783 7.87055 13.9135 7.65847 12.6546C7.58188 12.2032 7.26966 11.9479 6.89262 12.0073C6.49792 12.0667 6.28584 12.4051 6.35064 12.8743C6.35653 12.9099 6.36242 12.9455 6.36832 12.9812Z" fill="#00171F"/>
<path id="Vector_3" d="M14.8569 17.3281C15.2281 17.3934 15.5462 17.1499 15.6346 16.7224C15.6405 16.6808 15.6463 16.6333 15.6581 16.5917C15.7701 15.9207 15.882 15.2497 15.9939 14.5787C16.1 13.9492 16.2001 13.3257 16.2944 12.7497C16.3003 12.3518 16.0587 12.0549 15.7288 12.0074C15.3989 11.9599 15.0808 12.1796 14.9983 12.5122C14.9807 12.5834 14.9689 12.6547 14.9571 12.7319C14.8569 13.3198 14.7627 13.9136 14.6625 14.5015C14.5506 15.1725 14.4387 15.8435 14.3326 16.5146C14.2678 16.9362 14.4858 17.2568 14.8569 17.3281Z" fill="#00171F"/>
<path id="Vector_4" d="M11.2995 17.3339C11.6824 17.328 11.9534 17.0311 11.9534 16.5976C11.9534 15.9563 11.9534 15.309 11.9534 14.6677C11.9534 14.0323 11.9534 13.3969 11.9534 12.7615C11.9534 12.3102 11.6883 12.0073 11.2936 12.0073C10.8989 12.0073 10.6279 12.3102 10.6279 12.7555C10.6279 14.0323 10.6279 15.3149 10.6279 16.5916C10.6279 17.0311 10.9048 17.3399 11.2995 17.3339Z" fill="#00171F"/>
</g>
</g>
<defs>
<clipPath id="clip0_1_168">
<rect width="22.5806" height="20" fill="white"/>
</clipPath>
</defs>
</svg>
