<svg width="42" height="42" viewBox="0 0 42 42" fill="none" xmlns="http://www.w3.org/2000/svg">
<path d="M22.3401 22.6313C23.4502 22.6313 24.5608 22.2092 25.406 21.3651C26.2252 20.5472 26.6763 19.4596 26.6763 18.3025C26.6763 17.1455 26.2252 16.0579 25.406 15.2397C23.7154 13.5516 20.9647 13.5516 19.2742 15.2397C18.455 16.0579 18.0039 17.1455 18.0039 18.3025C18.0039 19.4595 18.455 20.5471 19.2742 21.3651C20.1196 22.2093 21.2296 22.6313 22.3401 22.6313ZM20.0332 15.9998C20.6692 15.3647 21.5046 15.0472 22.3401 15.0472C23.1755 15.0472 24.0108 15.3647 24.6469 15.9998C25.2629 16.615 25.6021 17.4327 25.6021 18.3025C25.6021 19.1722 25.2629 19.9899 24.6469 20.6051C23.375 21.8752 21.3052 21.8752 20.0332 20.6051C19.4172 19.99 19.078 19.1722 19.078 18.3025C19.078 17.4327 19.4172 16.615 20.0332 15.9998Z" fill="white"/>
<path d="M26.3334 13.1942C26.4706 13.1942 26.608 13.1418 26.7129 13.0372L29.4295 10.325C29.921 9.83438 29.162 9.07418 28.6705 9.56478L25.9539 12.277C25.6346 12.5957 25.8822 13.1942 26.3334 13.1942Z" fill="white"/>
<path d="M27.7264 14.808C27.9795 15.018 28.2328 15.0182 28.486 14.8086L31.2026 12.0965C31.6941 11.6058 30.9351 10.8457 30.4436 11.3363L27.727 14.0485C27.517 14.258 27.5168 14.5981 27.7264 14.808Z" fill="white"/>
<path d="M39.1179 30.7321L37.3331 30.7316L37.3223 25.3522C37.3216 25.0561 37.0815 24.8163 36.7853 24.8163L27.6756 24.8139L39.5091 12.9977C39.7192 12.7443 39.7192 12.491 39.5091 12.2376L28.4128 1.15705C28.2032 0.94765 27.8634 0.94765 27.6537 1.15705L23.2465 5.55818C22.7551 6.04898 23.5143 6.80898 24.0056 6.31832L28.0333 2.29612L38.3694 12.6176L26.1616 24.8076H24.841L35.356 14.316C35.5663 14.0626 35.5662 13.8091 35.3561 13.5556C35.1051 13.305 34.9669 12.9718 34.9669 12.6175C34.967 12.2632 35.1052 11.9302 35.3561 11.6796C35.5662 11.4262 35.5662 11.1728 35.3561 10.9194L29.7328 5.30418C29.5232 5.09478 29.1834 5.09478 28.9737 5.30418C28.4552 5.82185 27.6115 5.82198 27.0931 5.30418C26.8833 5.09472 26.5435 5.09478 26.3339 5.30418L9.32307 22.2898C9.11293 22.5431 9.11293 22.7965 9.32307 23.0498C9.574 23.3005 9.7122 23.6336 9.7122 23.9879C9.7122 24.2895 9.61127 24.5753 9.4266 24.8084L7.13073 24.8076L6.30973 23.9879L21.9885 8.33218C22.4799 7.84138 21.7209 7.08152 21.2293 7.57205L5.17007 23.6078C4.95993 23.8612 4.95993 24.1146 5.17007 24.368L5.61093 24.8081L3.53727 24.8076C3.26553 24.8076 2.99947 25.0806 3 25.3458L3.01173 31.2061C3.0124 31.5022 3.25253 31.742 3.54873 31.7422L5.33353 31.7426L5.3444 37.1219C5.345 37.418 5.58513 37.658 5.88133 37.658L23.9233 37.6666C24.5924 37.6666 24.6553 36.589 23.9235 36.5889L16.6325 36.5868V31.8004L28.3666 31.8035V36.5895L27.1543 36.5892C26.4469 36.5892 26.4466 37.6666 27.1541 37.6666H39.1294C39.4011 37.6666 39.6671 37.3936 39.6667 37.1285L39.6549 31.2682C39.6543 30.972 39.4141 30.7322 39.1179 30.7321ZM14.3 25.8846L25.0347 25.8874L26.0341 25.8877V30.6738L14.3 30.6706V25.8846ZM36.2589 30.6765L27.1083 30.674V29.7344H36.2569L36.2589 30.6765ZM36.2511 26.8242H32.9656C32.2711 26.8242 32.2711 27.8984 32.9656 27.8984H36.2533L36.2547 28.6601H27.1083V27.8984H30.6194C31.3139 27.8984 31.3139 26.8242 30.6194 26.8242H27.1083V25.8881L36.2492 25.8904L36.2511 26.8242ZM10.4202 22.7124L26.7561 6.40065C27.5341 6.88805 28.5327 6.88805 29.3105 6.40065L34.2589 11.342C34.0204 11.7206 33.8927 12.1593 33.8927 12.6176C33.8927 13.0758 34.0204 13.5146 34.2589 13.8932L23.3202 24.8076H18.4719L18.8387 24.4421C19.3306 23.952 18.5725 23.1909 18.0805 23.6811L16.9499 24.8076H14.9244L17.0652 22.6704C17.5568 22.1798 16.7978 21.4195 16.3063 21.9101L13.5897 24.6224C13.5346 24.6774 13.4943 24.7414 13.4681 24.8097L10.6427 24.8088C10.7369 24.5492 10.7863 24.2724 10.7863 23.988C10.7865 23.5297 10.6587 23.0909 10.4202 22.7124ZM4.083 29.7343H11.4267C12.1211 29.7343 12.1211 28.6601 11.4267 28.6601H4.08087L4.07933 27.8984H5.6886C6.38307 27.8984 6.38307 26.8242 5.6886 26.8242H4.07713L4.0752 25.882L13.2257 25.8844V26.8242H7.98313C7.28873 26.8242 7.28873 27.8984 7.98313 27.8984H13.2258V30.6705L4.08487 30.668L4.083 29.7343ZM6.41753 36.5839L6.41567 35.6501H9.70113C10.3956 35.6501 10.3956 34.5759 9.70113 34.5759H6.41347L6.41193 33.8141H15.5583V34.5759H12.0473C11.3529 34.5759 11.3529 35.6501 12.0473 35.6501H15.5583V36.5864L6.41753 36.5839ZM15.5583 32.74H6.4098L6.40787 31.7978L15.5583 31.8002V32.74ZM29.4409 36.5898V35.6501H34.6835C35.3779 35.6501 35.3779 34.5759 34.6835 34.5759H29.4409V31.8039L38.5818 31.8062L38.5837 32.74H31.2399C30.5456 32.74 30.5456 33.8142 31.2399 33.8142H38.5857L38.5873 34.5759H36.9779C36.2835 34.5759 36.2835 35.6501 36.9779 35.6501H38.5894L38.5913 36.5923L29.4409 36.5898Z" fill="white"/>
</svg>
