<svg width="41" height="41" viewBox="0 0 41 41" fill="none" xmlns="http://www.w3.org/2000/svg">
<g id="ico">
<path id="Vector" d="M33.0843 26.9209H29.0332V28.2712H33.0843V26.9209Z" fill="white"/>
<path id="Vector_2" d="M27.6829 26.9209H23.6318V28.2712H27.6829V26.9209Z" fill="white"/>
<path id="Vector_3" d="M22.2806 26.9209H18.2295V28.2712H22.2806V26.9209Z" fill="white"/>
<path id="Vector_4" d="M39.8266 13.9593L26.4669 0.597535C26.0875 0.214535 25.5706 -0.000665122 25.0315 1.54434e-06H25.0254C24.4898 0.000268211 23.9769 0.215535 23.6015 0.597535L9.42953 14.7675H2.02553C0.906866 14.7675 0 15.6743 0 16.793V35.6979C0 36.8166 0.906866 37.7235 2.02553 37.7235H12.0289L14.0437 39.7402C14.423 40.1232 14.9399 40.3384 15.4791 40.3377H15.4845C16.0203 40.3376 16.5335 40.1223 16.9091 39.7402L18.9279 37.7235H34.434C35.5527 37.7235 36.4595 36.8166 36.4595 35.6979V20.1919L39.8233 16.8281C40.2072 16.4523 40.4239 15.938 40.4249 15.4008C40.4269 14.8595 40.2113 14.3401 39.8266 13.9593ZM31.2377 7.27973L23.75 14.7675H18.0164L28.3709 4.41294L31.2377 7.27973ZM24.5575 1.54954C24.8143 1.28647 25.2358 1.2814 25.4989 1.53834C25.5027 1.542 25.5065 1.54574 25.5102 1.54954L27.4162 3.45827L16.1063 14.7675H11.3389L24.5575 1.54954ZM15.9531 38.7882C15.8296 38.9172 15.6589 38.9903 15.4805 38.9908C15.2995 38.9903 15.1263 38.9175 14.9997 38.7882L13.939 37.7235H17.0185L15.9531 38.7882ZM35.1092 35.6979C35.1092 36.0708 34.8069 36.3731 34.434 36.3731H2.02553C1.65267 36.3731 1.35033 36.0708 1.35033 35.6979V26.2455H35.1092V35.6979ZM35.1092 24.8951H1.35033V20.8441H35.1092V24.8951ZM35.1092 19.4937H1.35033V16.793C1.35033 16.4201 1.65267 16.1178 2.02553 16.1178H34.434C34.8069 16.1178 35.1092 16.4201 35.1092 16.793V19.4937ZM38.8719 15.87L36.4595 18.2825V16.793C36.4595 15.6743 35.5527 14.7675 34.434 14.7675H25.6567L32.1897 8.23447L38.8692 14.914C38.9989 15.0411 39.0719 15.2151 39.0718 15.3967C39.0716 15.575 38.9995 15.7456 38.8719 15.87Z" fill="white"/>
<path id="Vector_5" d="M6.47614 35.0406C6.57474 34.9554 6.66708 34.863 6.75234 34.7644C7.64514 35.8044 9.17921 36.002 10.3064 35.2222C11.0339 34.7136 11.4706 33.8845 11.4785 32.9968C11.4785 31.5053 10.2694 30.2961 8.77781 30.2961C8.64381 30.2943 8.50994 30.3056 8.37814 30.3299L8.36061 30.3346C8.35381 30.3346 8.34708 30.3346 8.34101 30.3346C7.72248 30.4374 7.15994 30.7548 6.75234 31.2312C5.77668 30.103 4.07108 29.9794 2.94294 30.9551C1.81474 31.9307 1.69108 33.6363 2.66681 34.7644C3.64248 35.8926 5.34794 36.0163 6.47614 35.0406ZM8.60701 31.6606C8.66334 31.65 8.72054 31.6452 8.77781 31.6465C9.52368 31.6465 10.1282 32.251 10.1282 32.9968C10.1275 33.2825 10.0344 33.5604 9.86288 33.7888C9.83854 33.8219 9.81961 33.8564 9.79194 33.8908C9.78721 33.8962 9.78048 33.8996 9.77508 33.905C9.52001 34.1866 9.15781 34.3473 8.77781 34.3472C8.03221 34.3344 7.43794 33.7197 7.45068 32.974C7.46201 32.312 7.95168 31.7557 8.60701 31.6606ZM4.72681 31.6465C5.47261 31.6465 6.07714 32.251 6.07714 32.9968C6.07714 33.7426 5.47261 34.3472 4.72681 34.3472C3.98094 34.3472 3.37641 33.7426 3.37641 32.9968C3.37641 32.251 3.98094 31.6465 4.72681 31.6465Z" fill="white"/>
</g>
</svg>
