<svg width="40" height="38" viewBox="0 0 40 38" fill="none" xmlns="http://www.w3.org/2000/svg">
<g id="ico">
<path id="Vector" d="M36.0018 19.8093C35.6361 14.7129 32.9139 10.079 28.6405 7.2782C27.7441 3.0368 24.0015 0.00140048 19.6663 4.84489e-07C15.3312 -0.00139952 11.5866 3.03147 10.6874 7.27233C6.4568 10.0457 3.74373 14.6171 3.33593 19.6592H1.9662C0.880267 19.6592 0 20.5395 0 21.6253V32.7669C0 33.8528 0.880267 34.7331 1.9662 34.7331H10.7936C15.7075 37.9172 21.9515 38.2219 27.1521 35.5313C29.9551 36.511 33.0593 36.0699 35.4784 34.348C37.8975 32.6262 39.3309 29.8377 39.3233 26.8685C39.3159 24.1397 38.0995 21.5545 36.0018 19.8093ZM19.6617 1.30827C24.0052 1.30827 27.5263 4.8294 27.5263 9.17293C27.5263 13.5165 24.0052 17.0376 19.6617 17.0376C15.3181 17.0376 11.797 13.5165 11.797 9.17293C11.8017 4.8314 15.3201 1.313 19.6617 1.30827ZM1.3108 21.6253C1.3108 21.2634 1.6042 20.9699 1.9662 20.9699H15.0739C15.4359 20.9699 15.7293 21.2634 15.7293 21.6253V23.5915H1.3108V21.6253ZM1.3108 24.9023H5.24313V28.1792H1.3108V24.9023ZM6.55387 24.9023H10.4862V28.1792H6.55387V24.9023ZM15.7293 24.9023V28.1792H11.797V24.9023H15.7293ZM10.4862 29.49V33.4223H6.55387V29.49H10.4862ZM11.797 29.49H15.7293V32.7669C15.7293 33.1289 15.4359 33.4223 15.0739 33.4223H11.797V29.49ZM1.3108 32.7669V29.49H5.24313V33.4223H1.9662C1.6042 33.4223 1.3108 33.1289 1.3108 32.7669ZM13.5338 34.7331H15.0739C16.1598 34.7331 17.0401 33.8528 17.0401 32.7669V21.6253C17.0401 20.5395 16.1598 19.6592 15.0739 19.6592H4.64933C5.02013 15.4491 7.14053 11.5878 10.4941 9.01567C10.4941 9.06873 10.4862 9.11987 10.4862 9.17293C10.4862 14.2404 14.5942 18.3484 19.6617 18.3484C24.7291 18.3484 28.8371 14.2404 28.8371 9.17293C28.8371 9.12187 28.8305 9.072 28.8292 9.02094C31.9549 11.4173 34.0188 14.9415 34.5796 18.8399C30.9831 16.8451 26.4981 17.4909 23.6105 20.4194C20.723 23.3479 20.1403 27.8415 22.1855 31.4096C22.9845 32.8016 24.1322 33.9615 25.5156 34.7751C25.532 34.7869 25.5425 34.8045 25.5601 34.815C25.5673 34.8189 25.5752 34.8203 25.5825 34.8235C21.7307 36.4816 17.3602 36.4488 13.5338 34.7331ZM34.6307 33.3221L34.3201 32.784C34.1379 32.4732 33.739 32.3677 33.427 32.5479C33.115 32.728 33.0069 33.1262 33.1849 33.4394L33.4943 33.9755C32.6481 34.3767 31.7365 34.6219 30.8033 34.6997V34.0777C30.8033 33.7157 30.5099 33.4223 30.1479 33.4223C29.7859 33.4223 29.4925 33.7157 29.4925 34.0777V34.6997C28.5595 34.623 27.6479 34.3788 26.8015 33.9787L27.1108 33.4427C27.2297 33.2397 27.2309 32.9887 27.1137 32.7847C26.9966 32.5808 26.7791 32.4553 26.544 32.4558C26.3088 32.4563 26.0919 32.5828 25.9757 32.7873L25.665 33.3253C24.8969 32.7899 24.2297 32.1227 23.6943 31.3546L24.2323 31.0439C24.4368 30.9277 24.5633 30.7108 24.5638 30.4756C24.5643 30.2405 24.4388 30.023 24.2349 29.9059C24.0309 29.7887 23.7799 29.7899 23.5769 29.9088L23.0409 30.2181C22.6394 29.3709 22.3941 28.4582 22.3167 27.5238H22.9386C23.3005 27.5238 23.594 27.2304 23.594 26.8685C23.594 26.5065 23.3005 26.2131 22.9386 26.2131H22.3167C22.3934 25.2801 22.6376 24.3685 23.0375 23.522L23.5737 23.8314C23.8869 24.0095 24.2851 23.9013 24.4652 23.5893C24.6453 23.2773 24.5399 22.8785 24.2291 22.6963L23.691 22.3856C24.2264 21.6175 24.8936 20.9503 25.6617 20.4148L25.9724 20.9529C26.0887 21.1573 26.3055 21.2839 26.5407 21.2843C26.7759 21.2849 26.9933 21.1593 27.1105 20.9554C27.2276 20.7515 27.2265 20.5004 27.1075 20.2975L26.7982 19.7614C27.6454 19.3599 28.5581 19.1145 29.4925 19.0372V19.6592C29.4925 20.0211 29.7859 20.3145 30.1479 20.3145C30.5099 20.3145 30.8033 20.0211 30.8033 19.6592V19.0372C31.7365 19.1149 32.6481 19.3603 33.4943 19.7614L33.1849 20.2975C33.066 20.5004 33.0649 20.7515 33.182 20.9554C33.2991 21.1593 33.5166 21.2849 33.7518 21.2843C33.9869 21.2839 34.2039 21.1573 34.3201 20.9529L34.6307 20.4148C35.3989 20.9503 36.0661 21.6175 36.6015 22.3856L36.0634 22.6963C35.8589 22.8125 35.7325 23.0293 35.7319 23.2645C35.7315 23.4997 35.857 23.7171 36.0609 23.8343C36.2649 23.9514 36.5159 23.9503 36.7188 23.8314L37.2549 23.522C37.656 24.3683 37.9013 25.2798 37.9791 26.2131H37.3571C36.9952 26.2131 36.7017 26.5065 36.7017 26.8685C36.7017 27.2304 36.9952 27.5238 37.3571 27.5238H37.9791C37.9023 28.4569 37.6581 29.3684 37.2582 30.2149L36.7221 29.9055C36.4089 29.7275 36.0107 29.8355 35.8306 30.1475C35.6504 30.4595 35.7559 30.8585 36.0667 31.0407L36.6047 31.3513C36.0683 32.1197 35.4 32.7869 34.6307 33.3221Z" fill="white"/>
<path id="Vector_2" d="M30.804 26.6865V22.2804C30.804 21.9184 30.5106 21.625 30.1486 21.625C29.7866 21.625 29.4932 21.9184 29.4932 22.2804V26.8681C29.4932 26.987 29.5256 27.1037 29.5869 27.2056L31.5531 30.4825C31.7426 30.7855 32.1399 30.8807 32.4462 30.6967C32.7525 30.5126 32.8549 30.1171 32.6764 29.8075L30.804 26.6865Z" fill="white"/>
<path id="Vector_3" d="M17.1202 13.5683C17.1202 13.9712 17.4454 14.2979 17.8464 14.2979C18.2474 14.2979 18.5726 13.9712 18.5726 13.5683V12.4738H20.751C21.152 12.4738 21.4771 12.1471 21.4771 11.7441C21.4771 11.3412 21.152 11.0145 20.751 11.0145H18.5726V9.92007H20.751C22.3526 9.92007 23.6555 8.61087 23.6555 7.00154C23.6555 5.39227 22.3526 4.08301 20.751 4.08301H17.8464C17.4454 4.08301 17.1202 4.40974 17.1202 4.81267V11.0145H16.3941C15.9931 11.0145 15.668 11.3412 15.668 11.7441C15.668 12.1471 15.9931 12.4738 16.3941 12.4738H17.1202V13.5683ZM22.2032 7.00154C22.2032 7.80621 21.5518 8.46081 20.751 8.46081H18.5726V5.54227H20.751C21.5517 5.54227 22.2032 6.19694 22.2032 7.00154Z" fill="white"/>
</g>
</svg>
