<svg width="38" height="27" viewBox="0 0 38 27" fill="none" xmlns="http://www.w3.org/2000/svg">
<g id="ico">
<path id="Vector" d="M2.84033 0H7.5594C7.86567 0 8.11367 0.2484 8.11367 0.5546C8.11367 0.8608 7.86567 1.10887 7.5594 1.10887H2.84033C1.8856 1.10887 1.1088 1.8856 1.1088 2.84033V3.90167H36.2245V2.84033C36.2245 1.8856 35.4477 1.10887 34.493 1.10887H9.77733C9.4712 1.10887 9.2228 0.8608 9.2228 0.5546C9.2228 0.2484 9.4712 0 9.77733 0H34.493C36.0593 0 37.3333 1.27407 37.3333 2.84033V16.7569C37.3333 17.0631 37.0853 17.3115 36.7788 17.3115C36.4726 17.3115 36.2245 17.0631 36.2245 16.7569V10.7911H1.1088V23.1855C1.1088 24.1403 1.8856 24.917 2.84033 24.917H34.493C35.4477 24.917 36.2245 24.1403 36.2245 23.1855V18.9749C36.2245 18.6687 36.4726 18.4203 36.7788 18.4203C37.0853 18.4203 37.3333 18.6687 37.3333 18.9749V23.1855C37.3333 24.7518 36.0593 26.0262 34.493 26.0262H2.84033C1.27433 26.0262 0 24.7518 0 23.1855V2.84033C0 1.27407 1.27433 0 2.84033 0ZM36.2245 9.68227V5.0108H1.1088V9.68227H36.2245Z" fill="white"/>
<path id="Vector_2" d="M12.9373 19.3018C12.9373 21.3206 11.2948 22.9633 9.27594 22.9633C8.72081 22.9633 8.19441 22.8385 7.72241 22.6164C7.25048 22.8385 6.72408 22.9633 6.16895 22.9633C4.15008 22.9633 2.50781 21.3206 2.50781 19.3018C2.50781 17.2829 4.15008 15.6406 6.16895 15.6406C6.72434 15.6406 7.25074 15.7653 7.72241 15.9872C8.19441 15.7653 8.72081 15.6406 9.27594 15.6406C11.2948 15.6406 12.9373 17.2829 12.9373 19.3018ZM8.72128 19.3018C8.72128 18.4787 8.32941 17.7457 7.72241 17.2787C7.11548 17.7457 6.72348 18.4787 6.72348 19.3018C6.72348 20.1252 7.11548 20.8581 7.72241 21.3252C8.32941 20.8581 8.72128 20.1252 8.72128 19.3018ZM3.61661 19.3018C3.61661 20.7095 4.76161 21.8545 6.16895 21.8545C6.32168 21.8545 6.47088 21.8402 6.61648 21.8143C5.99608 21.158 5.61468 20.274 5.61468 19.3018C5.61468 18.3296 5.99608 17.4456 6.61648 16.7894C6.47088 16.7638 6.32168 16.7494 6.16895 16.7494C4.76161 16.7494 3.61661 17.8944 3.61661 19.3018ZM9.27594 16.7494C9.12328 16.7494 8.97394 16.7638 8.82848 16.7896C9.44881 17.4458 9.83048 18.3296 9.83048 19.302C9.83048 20.274 9.44881 21.158 8.82848 21.8143C8.97394 21.8402 9.12328 21.8545 9.27594 21.8545C10.6833 21.8545 11.8283 20.7095 11.8283 19.302C11.8285 17.8944 10.6833 16.7494 9.27594 16.7494Z" fill="white"/>
<path id="Vector_3" d="M33.8291 13.9867H29.783C29.4766 13.9867 29.2285 13.7386 29.2285 13.4325C29.2285 13.1262 29.4766 12.8779 29.783 12.8779H33.8291C34.1356 12.8779 34.3836 13.1262 34.3836 13.4325C34.3836 13.7386 34.1356 13.9867 33.8291 13.9867Z" fill="white"/>
<path id="Vector_4" d="M17.2593 13.9867C16.9531 13.9867 16.7051 13.7386 16.7051 13.4325C16.7051 13.1262 16.9531 12.8779 17.2593 12.8779H21.3057C21.6118 12.8779 21.8602 13.1262 21.8602 13.4325C21.8602 13.7386 21.6118 13.9867 21.3057 13.9867H17.2593Z" fill="white"/>
<path id="Vector_5" d="M23.5213 13.9867C23.2148 13.9867 22.9668 13.7386 22.9668 13.4325C22.9668 13.1262 23.2148 12.8779 23.5213 12.8779H27.5673C27.8735 12.8779 28.1219 13.1262 28.1219 13.4325C28.1219 13.7386 27.8735 13.9867 27.5673 13.9867H23.5213Z" fill="white"/>
<path id="Vector_6" d="M10.9976 12.8779H15.044C15.3501 12.8779 15.5982 13.1262 15.5982 13.4325C15.5982 13.7386 15.3501 13.9867 15.044 13.9867H10.9976C10.6914 13.9867 10.4434 13.7386 10.4434 13.4325C10.4434 13.1262 10.6914 12.8779 10.9976 12.8779Z" fill="white"/>
<path id="Vector_7" d="M33.8298 19.3171H21.1434C20.8371 19.3171 20.5889 19.0688 20.5889 18.7625C20.5889 18.4564 20.8371 18.208 21.1434 18.208H33.8298C34.1363 18.208 34.3843 18.4564 34.3843 18.7625C34.3843 19.0688 34.1363 19.3171 33.8298 19.3171Z" fill="white"/>
<path id="Vector_8" d="M33.8297 21.9188H26.4901C26.1837 21.9188 25.9355 21.6704 25.9355 21.3641C25.9355 21.058 26.1837 20.8096 26.4901 20.8096H33.8297C34.1361 20.8096 34.3842 21.058 34.3842 21.3641C34.3842 21.6704 34.1361 21.9188 33.8297 21.9188Z" fill="white"/>
</g>
</svg>
