<svg width="30" height="30" viewBox="0 0 30 30" fill="none" xmlns="http://www.w3.org/2000/svg">
<g id="logos-02-fb" clip-path="url(#clip0_277_40)">
<g id="fb">
<g id="Group">
<path id="Vector" d="M30 15C30 6.7 23.3 0 15 0C6.7 0 0 6.7 0 15C0 22.5 5.5 28.7 12.7 29.8V19.3H8.8V15H12.6V11.7C12.6 7.9 14.8 5.9 18.3 5.9C19.9 5.9 21.7 6.2 21.7 6.2V9.9H19.8C17.9 9.9 17.4 11.1 17.4 12.2V15H21.6L20.9 19.3H17.4V29.8C24.5 28.7 30 22.5 30 15Z" fill="white"/>
</g>
</g>
</g>
<defs>
<clipPath id="clip0_277_40">
<rect width="30" height="30" fill="white"/>
</clipPath>
</defs>
</svg>
