<svg width="54" height="10" viewBox="0 0 54 10" fill="none" xmlns="http://www.w3.org/2000/svg">
<g id="halva" clip-path="url(#clip0_277_933)">
<path id="Vector" d="M15.876 7.42348C15.3992 7.42494 14.9326 7.28403 14.5349 7.01848C14.1379 6.75321 13.8278 6.37488 13.6442 5.93148C13.4607 5.48878 13.412 5.00093 13.5044 4.53019C13.5968 4.05945 13.826 3.62716 14.1629 3.28848C14.5001 2.94827 14.9297 2.71652 15.3974 2.62246C15.865 2.5284 16.3498 2.57625 16.7905 2.75998C17.2315 2.94348 17.608 3.25398 17.8735 3.65248C18.1832 4.11812 18.3229 4.67792 18.2686 5.23605C18.2144 5.79417 17.9697 6.31593 17.5763 6.71198C17.1249 7.16659 16.5136 7.4224 15.876 7.42348ZM15.876 -1.67764e-05C15.0397 -0.00198864 14.2164 0.208291 13.4817 0.611483C12.7479 1.01416 12.1266 1.59714 11.6754 2.30648C10.9949 3.37604 10.7448 4.66748 10.9761 5.91693C11.2074 7.16639 11.9027 8.27955 12.9199 9.02898C13.5947 9.52764 14.3829 9.8469 15.2121 9.95735C16.0412 10.0678 16.8846 9.96588 17.6644 9.66098C18.4436 9.35689 19.1343 8.85959 19.6728 8.21498C19.3444 8.82948 18.8693 9.34398 18.3194 9.66748V9.92548H20.8361V4.97398C20.8297 3.65344 20.3047 2.38934 19.3761 1.45898C18.4453 0.526359 17.1876 0.00205985 15.876 -1.67764e-05ZM39.743 7.47198H36.4693V5.84998H39.6811C40.0824 5.84998 40.551 6.22998 40.551 6.66148C40.551 6.97448 40.3073 7.47298 39.743 7.47298V7.47198ZM36.4693 2.53198L39.2189 2.53048C39.5166 2.53048 40.0091 2.83998 40.0091 3.33498C40.0091 3.72998 39.69 4.15498 39.1361 4.15498H36.4693V2.53098V2.53198ZM41.9793 4.70098C42.5763 3.78848 42.6313 2.54098 42.0858 1.60848C41.8152 1.14669 41.4307 0.763569 40.9697 0.496483C40.5081 0.228862 39.986 0.0860845 39.4537 0.0819832H33.9516V9.92498L40.1071 9.92098C42.0383 9.92098 43.1158 8.31848 43.1158 6.97398C43.1158 5.68048 42.3841 5.03148 41.9788 4.69998L41.9793 4.70098ZM31.4632 3.70898C32.289 5.94998 32.3311 7.98298 32.3311 9.92548H29.7763C29.7763 8.34998 29.7213 6.91548 29.3933 5.61798C28.9534 3.87948 28.135 2.61548 27.374 2.61548C26.6136 2.61548 25.7942 3.87948 25.3547 5.61798C25.0268 6.91548 24.9723 8.31298 24.9723 9.92548H22.4174C22.4174 8.15798 22.459 5.94998 23.2849 3.70898C24.0548 1.62148 25.4939 -1.67764e-05 27.3745 -1.67764e-05C29.2551 -1.67764e-05 30.6928 1.62148 31.4632 3.70898ZM7.3653 0.0814832H9.92114V1.11848C9.92173 1.8632 9.75685 2.59858 9.43861 3.27048C9.12013 3.94299 8.65667 4.5351 8.08217 5.00348C8.65673 5.47201 9.12019 6.0643 9.43861 6.73698C9.75685 7.40889 9.92173 8.14426 9.92114 8.88898V9.92598H7.36481V8.62948C7.36488 8.31175 7.30276 7.99712 7.18204 7.70367C7.06132 7.41023 6.88436 7.14373 6.66132 6.91948C6.20978 6.46552 5.59841 6.21064 4.96107 6.21064C4.32372 6.21064 3.71235 6.46552 3.26081 6.91948C3.03759 7.14365 2.86045 7.41011 2.73956 7.70356C2.61866 7.99701 2.5564 8.31168 2.55633 8.62948V9.92548H2.54345e-06V8.88848C-0.000575028 8.14376 0.164314 7.40839 0.482535 6.73648C0.801328 6.0639 1.26512 5.47178 1.83997 5.00348C1.26486 4.53512 0.800885 3.94282 0.482039 3.26998C0.163974 2.59804 -0.000746536 1.86267 2.54345e-06 1.11798V0.0814832H2.55633V1.37748C2.55633 2.01848 2.80949 2.63348 3.26031 3.08698C3.71185 3.54094 4.32323 3.79583 4.96057 3.79583C5.59791 3.79583 6.20929 3.54094 6.66083 3.08698C6.88404 2.86282 7.06118 2.59636 7.18208 2.30291C7.30297 2.00946 7.36524 1.69479 7.3653 1.37698V0.0819832V0.0814832ZM49.0394 7.42348C48.5628 7.4249 48.0963 7.28399 47.6988 7.01848C47.4017 6.82098 47.152 6.55913 46.9677 6.25196C46.7835 5.9448 46.6694 5.60005 46.6338 5.2428C46.5981 4.88554 46.6419 4.52476 46.7617 4.1867C46.8816 3.84863 47.0746 3.54179 47.3268 3.28848C47.5792 3.03476 47.884 2.84046 48.2194 2.71948C48.5549 2.5985 48.9126 2.55382 49.2672 2.58865C49.6217 2.62348 49.9643 2.73694 50.2703 2.92094C50.5763 3.10493 50.8383 3.35491 51.0374 3.65298C51.347 4.11852 51.4867 4.67818 51.4326 5.23619C51.3785 5.79421 51.1339 6.3159 50.7407 6.71198C50.2891 7.16679 49.6774 7.42261 49.0394 7.42348ZM54 4.97398C53.9927 3.79984 53.5752 2.66595 52.8209 1.77198C52.0649 0.876407 51.0213 0.277214 49.8722 0.0789832C48.7222 -0.119741 47.5396 0.0948811 46.5302 0.685483C45.5226 1.27463 44.7528 2.20311 44.3558 3.30798C43.9599 4.41163 43.9631 5.62096 44.3647 6.72248C44.7671 7.82532 45.5415 8.74991 46.552 9.33398C47.5643 9.91944 48.748 10.128 49.897 9.92348C51.0451 9.7195 52.0858 9.11498 52.8373 8.21548C52.5088 8.82948 52.0337 9.34398 51.4833 9.66748V9.92548H54V4.97398H53.9995H54Z" fill="#F04E53"/>
</g>
<defs>
<clipPath id="clip0_277_933">
<rect width="54" height="10" fill="white"/>
</clipPath>
</defs>
</svg>
