<svg width="30" height="30" viewBox="0 0 30 30" fill="none" xmlns="http://www.w3.org/2000/svg">
<g id="logos-03-ins" clip-path="url(#clip0_277_44)">
<g id="insta">
<g id="Group">
<path id="Vector" d="M15 2.89995C18.9 2.89995 19.4 2.89995 21 2.99995C22.4 3.09995 23.2 3.29995 23.7 3.49995C24.4 3.79995 24.9 4.09995 25.4 4.59995C25.9 5.09995 26.2 5.59995 26.5 6.29995C26.7 6.79995 26.9 7.59995 27 8.99995C27.1 10.6 27.1 11 27.1 15C27.1 19 27.1 19.4 27 21C26.9 22.4 26.7 23.2 26.5 23.7C26.2 24.4 25.9 24.9 25.4 25.4C24.9 25.9 24.4 26.2 23.7 26.5C23.2 26.7 22.4 26.9 21 27C19.4 27.1 19 27.1 15 27.1C11 27.1 10.6 27.1 9.00001 27C7.60001 26.9 6.80001 26.7 6.30001 26.5C5.60001 26.2 5.10001 25.9 4.60001 25.4C4.10001 24.9 3.80001 24.4 3.50001 23.7C3.30001 23.2 3.10001 22.4 3.00001 21C2.90001 19.4 2.90001 19 2.90001 15C2.90001 11 2.90001 10.6 3.00001 8.99995C3.10001 7.59995 3.30001 6.79995 3.50001 6.29995C3.80001 5.59995 4.10001 5.09995 4.60001 4.59995C5.10001 4.09995 5.60001 3.79995 6.30001 3.49995C6.80001 3.29995 7.60001 3.09995 9.00001 2.99995C10.6 2.89995 11.1 2.89995 15 2.89995ZM15 0.199951C11 0.199951 10.5 0.199951 8.90001 0.299951C7.30001 0.399951 6.30001 0.599951 5.30001 0.999951C4.30001 1.39995 3.50001 1.89995 2.70001 2.69995C1.90001 3.49995 1.40001 4.39995 1.00001 5.29995C0.600012 6.19995 0.400012 7.29995 0.300012 8.89995C0.300012 10.5 0.200012 11 0.200012 15C0.200012 19 0.200012 19.5 0.300012 21.1C0.400012 22.7 0.600012 23.7 1.00001 24.7C1.40001 25.7 1.90001 26.5 2.70001 27.2999C3.50001 28.0999 4.30001 28.6 5.30001 29C6.20001 29.4 7.30001 29.6 8.90001 29.7C10.5 29.8 11 29.7999 15 29.7999C19 29.7999 19.5 29.8 21.1 29.7C22.7 29.6 23.7 29.4 24.7 29C25.7 28.6 26.5 28.0999 27.3 27.2999C28.1 26.5 28.6 25.7 29 24.7C29.4 23.8 29.6 22.7 29.7 21.1C29.8 19.5 29.8 19 29.8 15C29.8 11 29.8 10.5 29.7 8.89995C29.6 7.29995 29.4 6.29995 29 5.29995C28.6 4.29995 28.1 3.49995 27.3 2.69995C26.5 1.89995 25.7 1.39995 24.7 0.999951C23.8 0.599951 22.7 0.399951 21.1 0.299951C19.5 0.299951 19 0.199951 15 0.199951Z" fill="white"/>
<path id="Vector_2" d="M15 7.3999C10.8 7.3999 7.40002 10.7999 7.40002 14.9999C7.40002 19.1999 10.8 22.5999 15 22.5999C19.2 22.5999 22.6 19.1999 22.6 14.9999C22.6 10.7999 19.2 7.3999 15 7.3999ZM15 19.8999C12.3 19.8999 10.1 17.6999 10.1 14.9999C10.1 12.2999 12.3 10.0999 15 10.0999C17.7 10.0999 19.9 12.2999 19.9 14.9999C19.9 17.6999 17.7 19.8999 15 19.8999Z" fill="white"/>
<path id="Vector_3" d="M22.9 8.89993C23.8941 8.89993 24.7 8.09404 24.7 7.09993C24.7 6.10581 23.8941 5.29993 22.9 5.29993C21.9059 5.29993 21.1 6.10581 21.1 7.09993C21.1 8.09404 21.9059 8.89993 22.9 8.89993Z" fill="white"/>
</g>
</g>
</g>
<defs>
<clipPath id="clip0_277_44">
<rect width="30" height="30" fill="white"/>
</clipPath>
</defs>
</svg>
