<svg width="109" height="30" viewBox="0 0 109 30" fill="none" xmlns="http://www.w3.org/2000/svg">
<g clip-path="url(#clip0_1_184)">
<path d="M45.3962 5.88074C45.4599 5.87708 45.5238 5.87987 45.5868 5.88908C45.6596 5.8984 45.7269 5.93247 45.7774 5.98557C45.8304 6.0348 45.8645 6.10093 45.8739 6.17258C45.8844 6.24154 45.8876 6.31141 45.8834 6.38104V14.4656H46.5982V6.44656C46.5975 6.34218 46.5903 6.23795 46.5767 6.13447C46.5652 6.02649 46.54 5.92042 46.5017 5.8188C46.4576 5.70997 46.3938 5.61022 46.3135 5.52458C46.2426 5.44827 46.1577 5.38638 46.0633 5.34233C45.9791 5.30332 45.8896 5.27684 45.7977 5.26371C45.7112 5.25227 45.624 5.24709 45.5368 5.24823H40.3528C40.2663 5.24699 40.1799 5.25217 40.0943 5.26371C40.0015 5.27628 39.9111 5.30278 39.8263 5.34233C39.7317 5.38607 39.6467 5.448 39.5761 5.52458C39.4953 5.60982 39.4314 5.70967 39.3879 5.8188C39.3483 5.92014 39.3222 6.02628 39.3105 6.13447C39.2997 6.23813 39.2953 6.34236 39.2974 6.44656V14.4656H40.0121V6.38104C40.0094 6.31144 40.0122 6.24174 40.0204 6.17258C40.0314 6.10141 40.0653 6.03576 40.1169 5.98557C40.1681 5.93262 40.2357 5.89861 40.3087 5.88908C40.3718 5.87985 40.4356 5.87705 40.4993 5.88074H45.3962Z" fill="#595959"/>
<path d="M47.1211 14.4659H47.887L51.3605 6.07517C51.376 6.03348 51.3939 5.9906 51.4105 5.94414C51.4276 5.8988 51.4549 5.85803 51.4904 5.82503C51.5323 5.79208 51.5841 5.77418 51.6375 5.77418C51.6908 5.77418 51.7426 5.79208 51.7846 5.82503C51.8193 5.85842 51.8461 5.89911 51.8632 5.94414C51.8811 5.9906 51.8989 6.03348 51.9132 6.07517L55.3915 14.4659H56.155L52.572 5.94653C52.5008 5.76177 52.4051 5.58747 52.2873 5.42836C52.2088 5.32358 52.104 5.2414 51.9835 5.19012C51.7577 5.12022 51.516 5.12022 51.2902 5.19012C51.1703 5.24177 51.066 5.3239 50.9877 5.42836C50.8694 5.58718 50.7736 5.76154 50.703 5.94653L47.1211 14.4659Z" fill="#595959"/>
<path d="M56.1523 14.4656H56.9159L58.0344 11.7795H63.3805L64.5002 14.4656H65.2637L61.7343 6.11778C61.6682 5.95264 61.5885 5.79327 61.496 5.6413C61.4127 5.50194 61.3026 5.38048 61.172 5.28395C61.0364 5.18692 60.873 5.13636 60.7063 5.13981C60.5405 5.13674 60.378 5.18592 60.2417 5.28037C60.11 5.37603 59.9993 5.49765 59.9165 5.63773C59.8236 5.78946 59.7439 5.94887 59.6783 6.1142L56.1523 14.4656ZM60.3215 6.32743C60.3477 6.26191 60.3787 6.18925 60.4132 6.10825C60.4467 6.03252 60.4895 5.96129 60.5407 5.89622C60.5567 5.86717 60.5803 5.84296 60.6089 5.8261C60.6375 5.80924 60.6701 5.80035 60.7033 5.80035C60.7365 5.80035 60.7691 5.80924 60.7977 5.8261C60.8262 5.84296 60.8498 5.86717 60.8659 5.89622C60.9162 5.96163 60.9586 6.03281 60.9921 6.10825C61.0279 6.18925 61.0588 6.26191 61.0851 6.32743L63.0993 11.147H58.3108L60.3263 6.32743H60.3215Z" fill="#595959"/>
<path d="M73.0201 14.4655V13.833H69.4465C69.1093 13.8351 68.7732 13.7951 68.4459 13.7139C68.1893 13.6524 67.9421 13.5567 67.711 13.4292C67.5277 13.3287 67.3573 13.2063 67.2035 13.0647C67.0881 12.9561 66.9835 12.8364 66.8914 12.7074C66.7114 12.4538 66.5749 12.172 66.4876 11.8735C66.4039 11.5746 66.3496 11.2682 66.3256 10.9587C66.2994 10.6407 66.2887 10.3226 66.2911 10.0057C66.2911 9.65911 66.2994 9.30414 66.328 8.93964C66.355 8.57996 66.4184 8.22395 66.5174 7.8771C66.6114 7.54277 66.7669 7.22889 66.976 6.95155C67.154 6.7207 67.3713 6.52311 67.6181 6.36787C67.8432 6.22843 68.0865 6.12061 68.3411 6.04744C68.5727 5.98068 68.81 5.93522 69.0498 5.91165C69.2478 5.89282 69.4466 5.88407 69.6454 5.88544H72.8712V5.24816H69.3453C68.978 5.24556 68.6118 5.28918 68.2553 5.378C67.9701 5.44721 67.6941 5.55039 67.4334 5.68532C67.2296 5.78808 67.0368 5.91142 66.8581 6.0534C66.7348 6.14938 66.6189 6.2545 66.5114 6.36787C66.2936 6.60305 66.1143 6.8712 65.9802 7.16239C65.8469 7.45198 65.7466 7.75566 65.6812 8.06769C65.6151 8.38458 65.5721 8.70586 65.5525 9.02898C65.5323 9.35417 65.5216 9.6746 65.524 9.98193C65.5191 10.4524 65.5489 10.9226 65.6133 11.3887C65.6684 11.7791 65.7762 12.1602 65.9337 12.5215C66.0831 12.8556 66.2922 13.1595 66.5507 13.4185C66.6721 13.5404 66.8028 13.6527 66.9415 13.7544C67.1219 13.8854 67.3146 13.9987 67.5168 14.0927C67.7669 14.207 68.0284 14.2945 68.297 14.3536C68.6273 14.4255 68.9644 14.4611 69.3024 14.4596L73.0201 14.4655Z" fill="#595959"/>
<path d="M77.8506 14.4654V5.88057H81.7089V5.24805H73.2812V5.88057H77.1395V14.4654H77.8506Z" fill="#595959"/>
<path d="M90.1096 14.4661V6.28857C90.1114 6.21821 90.109 6.14781 90.1024 6.07773C90.097 5.97896 90.0827 5.88089 90.0596 5.7847C90.0341 5.67712 89.9919 5.57422 89.9345 5.47976C89.8791 5.38148 89.7991 5.29936 89.7022 5.24152C89.5848 5.1746 89.4513 5.14123 89.3163 5.14503C89.1494 5.13944 88.9844 5.18071 88.8398 5.26415C88.7041 5.35394 88.5872 5.46924 88.4955 5.60364C88.3919 5.75135 88.2823 5.92049 88.162 6.11585L83.4878 13.5548C83.4652 13.5882 83.4437 13.6227 83.4199 13.6644C83.3973 13.7023 83.371 13.7378 83.3413 13.7704C83.3138 13.7986 83.2769 13.8156 83.2376 13.8181C83.2124 13.8203 83.1871 13.8157 83.1643 13.8048C83.1414 13.7939 83.1219 13.7771 83.1078 13.7561C83.0857 13.7097 83.0755 13.6585 83.078 13.6072C83.078 13.5477 83.078 13.4881 83.078 13.4226V5.24867H82.3633V13.5048C82.3628 13.6103 82.3688 13.7157 82.3812 13.8204C82.395 13.9435 82.4267 14.0639 82.4753 14.1778C82.5267 14.2923 82.6092 14.3902 82.7135 14.4601C82.8421 14.543 82.993 14.5845 83.1459 14.5792C83.308 14.5827 83.4679 14.5415 83.6081 14.4601C83.732 14.3837 83.8396 14.2838 83.925 14.1659C84.0143 14.0468 84.1001 13.9133 84.1858 13.7752L88.9387 6.28261C88.9696 6.22782 89.003 6.17064 89.0399 6.11347C89.0716 6.05981 89.1091 6.00986 89.1519 5.96457C89.1663 5.94639 89.1843 5.93139 89.2048 5.92053C89.2253 5.90966 89.2479 5.90316 89.271 5.90143C89.2896 5.90101 89.308 5.90567 89.3241 5.91491C89.3403 5.92414 89.3536 5.9376 89.3627 5.95385C89.3834 5.99029 89.3953 6.0311 89.3973 6.07297C89.4005 6.10504 89.4005 6.13737 89.3973 6.16945V14.478L90.1096 14.4661Z" fill="#595959"/>
<path d="M91.9609 14.4654H92.6756V5.24805H91.9609V14.4654ZM99.6763 14.4654L94.5744 10.5417C94.4755 10.4666 94.3731 10.3856 94.2671 10.3034C94.1698 10.2227 94.0815 10.1316 94.0038 10.0318C93.9341 9.95108 93.8923 9.84999 93.8847 9.74358C93.8884 9.67096 93.9114 9.60064 93.9514 9.53989C93.9972 9.47193 94.0507 9.40956 94.111 9.35406C94.1754 9.2945 94.2385 9.24209 94.3016 9.19325L94.4648 9.07413L99.1783 5.25519H98.1551L93.8371 8.72392C93.7282 8.81031 93.6262 8.9051 93.5321 9.00743C93.4337 9.11133 93.3496 9.2279 93.282 9.35406C93.2181 9.46734 93.1829 9.59453 93.1795 9.72452C93.1834 9.85973 93.2185 9.99221 93.282 10.1117C93.3577 10.2565 93.4522 10.3906 93.5631 10.5107C93.6917 10.6522 93.8333 10.7815 93.986 10.8966L98.6078 14.4702L99.6763 14.4654Z" fill="#595959"/>
<path d="M99.4047 14.4656H100.168L101.287 11.7795H106.633L107.753 14.4656H108.516L104.988 6.11778C104.921 5.95309 104.841 5.7938 104.75 5.6413C104.665 5.50214 104.555 5.38075 104.424 5.28395C104.289 5.18692 104.125 5.13636 103.959 5.13981C103.793 5.13706 103.63 5.18621 103.494 5.28037C103.363 5.3764 103.252 5.49794 103.169 5.63773C103.076 5.78972 102.997 5.94909 102.931 6.1142L99.4023 14.462L99.4047 14.4656ZM103.574 6.32743C103.6 6.26191 103.631 6.18925 103.666 6.10825C103.7 6.033 103.743 5.96187 103.793 5.89622C103.809 5.86717 103.833 5.84296 103.861 5.8261C103.89 5.80924 103.922 5.80035 103.956 5.80035C103.989 5.80035 104.021 5.80924 104.05 5.8261C104.079 5.84296 104.102 5.86717 104.118 5.89622C104.169 5.96187 104.211 6.033 104.246 6.10825C104.28 6.18925 104.311 6.26191 104.337 6.32743L106.352 11.147H101.564L103.579 6.32743H103.574Z" fill="#595959"/>
<path d="M43.0485 18.8902C42.8102 18.8902 42.5625 18.8902 42.2945 18.9104C42.0224 18.927 41.752 18.9644 41.4856 19.0224C41.2093 19.0807 40.941 19.1718 40.6864 19.294C40.4224 19.424 40.181 19.5958 39.9717 19.8026C39.7436 20.0344 39.5556 20.3025 39.4154 20.5959C39.2818 20.8803 39.1818 21.1794 39.1176 21.4869C39.0571 21.7828 39.0173 22.0825 38.9984 22.3839C38.9818 22.6761 38.9746 22.9449 38.977 23.1903C38.977 23.4369 38.977 23.7049 38.9984 23.998C39.0175 24.2985 39.0573 24.5974 39.1176 24.8925C39.1817 25.2009 39.2816 25.5008 39.4154 25.7859C39.5556 26.079 39.7436 26.3467 39.9717 26.5781C40.1801 26.7854 40.4216 26.9565 40.6864 27.0843C40.9407 27.2081 41.2091 27.3005 41.4856 27.3595C41.7521 27.4161 42.0225 27.4527 42.2945 27.4691C42.5625 27.4857 42.8126 27.4929 43.0485 27.4917C43.2843 27.4905 43.5369 27.4917 43.8037 27.4691C44.0764 27.4524 44.3475 27.4158 44.6149 27.3595C44.8906 27.2999 45.1581 27.2075 45.4118 27.0843C45.6767 26.9569 45.9184 26.7857 46.1265 26.5781C46.3553 26.3473 46.5434 26.0795 46.6828 25.7859C46.8175 25.501 46.9178 25.2011 46.9818 24.8925C47.0421 24.5974 47.0819 24.2985 47.1009 23.998C47.1164 23.7049 47.1247 23.4369 47.1223 23.1903C47.12 22.9438 47.1223 22.6757 47.1009 22.3839C47.082 22.0825 47.0422 21.7828 46.9818 21.4869C46.9176 21.1792 46.8173 20.8801 46.6828 20.5959C46.5434 20.302 46.3554 20.0338 46.1265 19.8026C45.9175 19.5953 45.6761 19.4236 45.4118 19.294C45.1578 19.1723 44.8903 19.0812 44.6149 19.0224C44.3477 18.9647 44.0765 18.9273 43.8037 18.9104C43.5369 18.8937 43.2855 18.8878 43.0485 18.8902ZM39.6727 23.1903C39.6727 22.9461 39.6727 22.6936 39.687 22.4339C39.699 22.1739 39.7273 21.915 39.7715 21.6585C39.8163 21.4052 39.8886 21.1575 39.9871 20.9199C40.0864 20.6833 40.2236 20.4644 40.3933 20.2719C40.5652 20.08 40.7712 19.9217 41.0008 19.805C41.2188 19.6955 41.4503 19.6154 41.6893 19.5667C41.9221 19.519 42.1583 19.4895 42.3957 19.4786C42.628 19.4691 42.846 19.4643 43.0485 19.4667C43.251 19.4691 43.469 19.4667 43.7013 19.4786C43.939 19.4895 44.1756 19.519 44.4088 19.5667C44.6482 19.6156 44.8801 19.6957 45.0985 19.805C45.3272 19.9221 45.5324 20.0804 45.7036 20.2719C45.8741 20.4638 46.0114 20.6828 46.1098 20.9199C46.2088 21.1575 46.2814 21.4051 46.3266 21.6585C46.3705 21.915 46.3983 22.174 46.41 22.4339C46.4219 22.6936 46.4267 22.9457 46.4243 23.1903C46.4219 23.4349 46.4172 23.6875 46.41 23.9479C46.3983 24.2075 46.3705 24.4661 46.3266 24.7222C46.2814 24.9755 46.2088 25.2232 46.1098 25.4607C46.0114 25.6982 45.8742 25.9176 45.7036 26.1099C45.5317 26.3001 45.3267 26.4575 45.0985 26.5745C44.8805 26.6848 44.6485 26.765 44.4088 26.8127C44.1756 26.8609 43.9391 26.8907 43.7013 26.9021C43.469 26.9116 43.2534 26.9152 43.0485 26.914C42.8436 26.9128 42.628 26.914 42.3957 26.9021C42.1583 26.8907 41.9221 26.8609 41.6893 26.8127C41.45 26.7651 41.2184 26.685 41.0008 26.5745C40.7718 26.4578 40.5659 26.3004 40.3933 26.1099C40.2236 25.917 40.0864 25.6977 39.9871 25.4607C39.8886 25.2231 39.8163 24.9755 39.7715 24.7222C39.7273 24.4661 39.699 24.2075 39.687 23.9479C39.6774 23.6871 39.6715 23.4345 39.6727 23.1903Z" fill="#595959"/>
<path d="M48.5625 27.3971H49.2117V18.9873H48.5625V27.3971ZM55.6024 27.3971L50.9568 23.8235C50.8674 23.7556 50.7733 23.6806 50.6769 23.6008C50.5886 23.5272 50.5087 23.4441 50.4386 23.353C50.3773 23.2783 50.3411 23.1862 50.335 23.0897C50.3381 23.0236 50.3586 22.9595 50.3945 22.9039C50.4369 22.8419 50.4861 22.7848 50.5411 22.7336C50.5994 22.68 50.6602 22.6323 50.715 22.5883L50.8639 22.4775L55.164 18.9933H54.2266L50.2802 22.1559C50.1807 22.2343 50.0879 22.3207 50.0026 22.4143C49.9132 22.5093 49.8363 22.6154 49.7739 22.73C49.7163 22.8338 49.6841 22.9497 49.6798 23.0683C49.6832 23.1931 49.7154 23.3154 49.7739 23.4257C49.8426 23.5581 49.9288 23.6807 50.03 23.7902C50.1464 23.9206 50.2744 24.0402 50.4124 24.1475L54.6292 27.3971H55.6024Z" fill="#595959"/>
<path d="M59.4401 18.8896C59.2018 18.8896 58.9541 18.8896 58.686 18.9099C58.414 18.9265 58.1436 18.9639 57.8772 19.0219C57.6009 19.0802 57.3326 19.1713 57.0779 19.2935C56.8139 19.4235 56.5726 19.5953 56.3632 19.8021C56.1351 20.0339 55.9471 20.302 55.8069 20.5954C55.6734 20.8798 55.5734 21.1789 55.5091 21.4864C55.4487 21.7823 55.4089 22.082 55.39 22.3834C55.3734 22.6756 55.3658 22.9444 55.3674 23.1898C55.3674 23.4364 55.3734 23.7044 55.39 23.9975C55.4091 24.298 55.4489 24.5969 55.5091 24.892C55.5732 25.2004 55.6732 25.5003 55.8069 25.7854C55.9472 26.0785 56.1352 26.3462 56.3632 26.5776C56.5717 26.7849 56.8132 26.956 57.0779 27.0838C57.3322 27.2076 57.6006 27.3 57.8772 27.359C58.1437 27.4156 58.4141 27.4522 58.686 27.4686C58.9541 27.4852 59.2042 27.4924 59.4401 27.4912C59.6759 27.49 59.9284 27.4912 60.1953 27.4686C60.468 27.4519 60.7391 27.4153 61.0065 27.359C61.2821 27.2994 61.5497 27.207 61.8034 27.0838C62.0683 26.9563 62.3099 26.7852 62.5181 26.5776C62.7469 26.3468 62.935 26.079 63.0744 25.7854C63.2079 25.5015 63.3075 25.2029 63.371 24.8956C63.4307 24.6004 63.4705 24.3015 63.4901 24.001C63.5056 23.708 63.5139 23.44 63.5115 23.1934C63.5091 22.9468 63.5115 22.6788 63.4901 22.387C63.4706 22.0856 63.4308 21.786 63.371 21.49C63.3068 21.1822 63.2065 20.8832 63.072 20.599C62.9326 20.3051 62.7445 20.0368 62.5157 19.8057C62.3067 19.5984 62.0653 19.4266 61.801 19.297C61.547 19.1754 61.2795 19.0843 61.0041 19.0254C60.7369 18.9678 60.4657 18.9303 60.1929 18.9135C59.9261 18.8968 59.6747 18.8908 59.4377 18.8932L59.4401 18.8896ZM56.0642 23.1898C56.0642 22.9456 56.0642 22.6931 56.0785 22.4334C56.0906 22.1734 56.1189 21.9144 56.1631 21.658C56.2079 21.4047 56.2802 21.157 56.3787 20.9194C56.478 20.6828 56.6152 20.4639 56.7849 20.2714C56.9565 20.0792 57.1626 19.9209 57.3924 19.8045C57.6104 19.695 57.8419 19.6149 58.0809 19.5662C58.3137 19.5185 58.5499 19.489 58.7873 19.4781C59.0196 19.4686 59.2376 19.4638 59.4401 19.4662C59.6426 19.4686 59.8605 19.4662 60.0928 19.4781C60.3306 19.4891 60.5672 19.5186 60.8004 19.5662C61.0397 19.6151 61.2716 19.6952 61.4901 19.8045C61.7188 19.9216 61.9239 20.0799 62.0952 20.2714C62.2657 20.4633 62.403 20.6823 62.5014 20.9194C62.6003 21.157 62.673 21.4046 62.7182 21.658C62.762 21.9145 62.7899 22.1735 62.8016 22.4334C62.8135 22.6931 62.8183 22.9452 62.8159 23.1898C62.8135 23.4344 62.8087 23.6869 62.8016 23.9474C62.7899 24.207 62.762 24.4656 62.7182 24.7217C62.673 24.975 62.6003 25.2227 62.5014 25.4602C62.403 25.6977 62.2657 25.9171 62.0952 26.1094C61.9232 26.2996 61.7182 26.457 61.4901 26.574C61.272 26.6843 61.04 26.7644 60.8004 26.8122C60.5672 26.8603 60.3306 26.8901 60.0928 26.9016C59.8605 26.9111 59.6449 26.9147 59.4401 26.9135C59.2352 26.9123 59.0196 26.9135 58.7873 26.9016C58.5499 26.8902 58.3137 26.8603 58.0809 26.8122C57.8416 26.7646 57.6099 26.6845 57.3924 26.574C57.1631 26.4577 56.9572 26.3002 56.7849 26.1094C56.6152 25.9165 56.478 25.6972 56.3787 25.4602C56.2802 25.2226 56.2079 24.975 56.1631 24.7217C56.1189 24.4656 56.0906 24.207 56.0785 23.9474C56.069 23.6865 56.063 23.434 56.0642 23.1898Z" fill="#595959"/>
<path d="M71.7009 18.9854H71.0517V22.8305H65.5984V18.9854H64.9492V27.3951H65.5984V23.407H71.0517V27.3951H71.7009V18.9854Z" fill="#595959"/>
<path d="M0 0H19.6724C22.4148 0.0047241 25.0434 1.0962 26.9825 3.03533C28.9217 4.97445 30.0131 7.60311 30.0179 10.3454V22.7183H22.7362V10.3454C22.7315 9.53445 22.4071 8.75802 21.8336 8.18467C21.26 7.61131 20.4834 7.28728 19.6724 7.28291H0V0Z" fill="#898989"/>
<path d="M30.0179 30.0003H10.3014C7.7254 29.9945 5.24377 29.0303 3.33959 27.2955C1.43541 25.5606 0.244958 23.1792 0 20.6149L0 7.2832H7.23764V19.6549C7.24264 20.4659 7.56703 21.2422 8.14051 21.8157C8.71399 22.3892 9.49036 22.7136 10.3014 22.7186H30.0179V30.0003Z" fill="#33C5F3"/>
</g>
<defs>
<clipPath id="clip0_1_184">
<rect width="108.517" height="30" fill="white"/>
</clipPath>
</defs>
</svg>
