<svg width="22" height="14" viewBox="0 0 22 14" fill="none" xmlns="http://www.w3.org/2000/svg">
<g id="layer1">
<g id="g13">
<g id="XMLID_328_">
<path id="rect19" d="M13.9742 1.49727H8.02573V12.5028H13.9742V1.49727Z" fill="#FF5F00"/>
<path id="XMLID_330_" d="M8.40343 7.00012C8.40343 4.76401 9.42317 2.78068 10.9906 1.49735C9.83862 0.564013 8.38455 0.00012207 6.79828 0.00012207C3.04034 0.00012207 0 3.13068 0 7.00012C0 10.8696 3.04034 14.0001 6.79828 14.0001C8.38455 14.0001 9.83862 13.4362 10.9906 12.5029C9.42317 11.239 8.40343 9.23623 8.40343 7.00012Z" fill="#EB001B"/>
<path id="path22" d="M22 7.00001C22 10.8695 18.9596 14 15.2017 14C13.6154 14 12.1614 13.4361 11.0094 12.5028C12.5957 11.2195 13.5966 9.23612 13.5966 7.00001C13.5966 4.7639 12.5768 2.78057 11.0094 1.49724C12.1614 0.563906 13.6154 1.52588e-05 15.2017 1.52588e-05C18.9596 1.52588e-05 22 3.15001 22 7.00001Z" fill="#F79E1B"/>
</g>
</g>
</g>
</svg>
