<svg width="36" height="10" viewBox="0 0 36 10" fill="none" xmlns="http://www.w3.org/2000/svg">
<g id="mir-logo">
<g id="Group-5">
<path id="Combined-Shape" fill-rule="evenodd" clip-rule="evenodd" d="M3.32904 0.00170645C3.65065 -0.000252889 4.60649 -0.0879197 5.01136 1.30359C5.28409 2.24093 5.71853 3.77633 6.31468 5.9098H6.55747C7.19678 3.66055 7.63596 2.12515 7.875 1.30359C8.28409 -0.102415 9.30682 0.001734 9.71591 0.001734L12.8721 0.00173801V9.99998H9.65522V4.10785H9.43951L7.64623 9.99998H5.22591L3.43264 4.10348H3.21692V9.99998H0V0.00173801L3.32904 0.00170645ZM17.4916 0.00173801V5.89826H17.7482L19.9296 1.04959C20.353 0.0846929 21.2555 0.00173801 21.2555 0.00173801H24.3685V10H21.0844V4.10348H20.8278L18.6892 8.95215C18.2657 9.91268 17.3205 10 17.3205 10H14.2075V0.00173801H17.4916ZM35.7198 4.75298C35.2617 6.07493 33.8231 7.02167 32.2304 7.02167H28.7863V10H25.6634V4.75298H35.7198Z" fill="#0F754E"/>
<path id="path24" fill-rule="evenodd" clip-rule="evenodd" d="M32.381 0.0017395H25.4996C25.6634 2.22769 27.5458 4.13325 29.4944 4.13325H35.9368C36.3086 2.28322 35.0288 0.0017395 32.381 0.0017395Z" fill="url(#paint0_linear_277_634)"/>
</g>
</g>
<defs>
<linearGradient id="paint0_linear_277_634" x1="36" y1="2.60064" x2="25.4996" y2="2.60064" gradientUnits="userSpaceOnUse">
<stop stop-color="#1F5CD7"/>
<stop offset="1" stop-color="#02AEFF"/>
</linearGradient>
</defs>
</svg>
