<svg width="64" height="10" viewBox="0 0 64 10" fill="none" xmlns="http://www.w3.org/2000/svg">
<g clip-path="url(#clip0_277_798)">
<path d="M8.81011 1.92564C9.04374 2.23003 9.24153 2.56071 9.39946 2.91106L4.9194 6.23899L3.04706 5.05626V3.63338L4.9194 4.81611L8.81011 1.92564Z" fill="#21A038"/>
<path d="M1.13623 4.95581C1.13623 4.89196 1.13778 4.82854 1.14087 4.76548L0.00617972 4.70945C0.0023176 4.79118 1.37122e-06 4.87369 1.37122e-06 4.95696C-0.000481408 5.60763 0.126523 6.25196 0.373733 6.85302C0.62094 7.45412 0.983485 8.00009 1.44057 8.45963L2.24543 7.64896C1.89359 7.29584 1.61446 6.87612 1.42411 6.41393C1.23376 5.95175 1.13592 5.45621 1.13623 4.95581Z" fill="url(#paint0_linear_277_798)"/>
<path d="M4.91834 1.14476C4.98167 1.14476 5.0446 1.1471 5.10717 1.15021L5.16395 0.00639815C5.08261 0.00250631 5.00072 0.000560622 4.91834 0.000560622C4.27234 -0.000233221 3.63258 0.127565 3.03575 0.376615C2.43892 0.625667 1.89679 0.991067 1.44049 1.45183L2.24535 2.26289C2.5958 1.90822 3.01236 1.62685 3.47109 1.43496C3.92981 1.24307 4.42164 1.14445 4.91834 1.14476Z" fill="url(#paint1_linear_277_798)"/>
<path d="M4.91834 8.76718C4.85501 8.76718 4.79204 8.76718 4.72911 8.76212L4.67233 9.90555C4.75395 9.9097 4.83596 9.91179 4.91834 9.91179C5.56407 9.91246 6.20352 9.78458 6.80003 9.53546C7.39654 9.28634 7.93831 8.92088 8.39427 8.46012L7.59095 7.64946C7.24044 8.00394 6.82392 8.28515 6.36529 8.47697C5.90665 8.66879 5.41492 8.76743 4.91834 8.76718Z" fill="url(#paint2_linear_277_798)"/>
<path d="M7.05039 1.80972L8.00664 1.09945C7.13261 0.386258 6.04159 -0.00197976 4.91693 7.59201e-06V1.1446C5.6785 1.14365 6.42239 1.37557 7.05039 1.80972Z" fill="url(#paint3_linear_277_798)"/>
<path d="M9.83652 4.95593C9.83713 4.65817 9.81128 4.36093 9.75926 4.06781L8.70067 4.85396C8.70067 4.88784 8.70067 4.92169 8.70067 4.95593C8.70094 5.48845 8.59016 6.01508 8.37555 6.50169C8.16091 6.98829 7.84718 7.42402 7.45474 7.78063L8.21829 8.63102C8.7285 8.16687 9.13621 7.59987 9.41497 6.96678C9.69377 6.33366 9.83737 5.64857 9.83652 4.95593Z" fill="#21A038"/>
<path d="M4.91842 8.76731C4.38994 8.76749 3.8673 8.65582 3.38434 8.43955C2.90141 8.22328 2.46893 7.90719 2.11491 7.51179L1.27142 8.28082C1.73196 8.79503 2.29462 9.20594 2.92289 9.48694C3.55117 9.76791 4.23103 9.9127 4.91842 9.91188V8.76731Z" fill="url(#paint4_linear_277_798)"/>
<path d="M2.38216 2.13115L1.619 1.28078C1.10865 1.74484 0.700794 2.31181 0.421882 2.94492C0.142974 3.57803 -0.000760402 4.26315 3.02525e-06 4.95585H1.13624C1.136 4.42337 1.24679 3.89673 1.46142 3.41012C1.67605 2.92353 1.98974 2.48779 2.38216 2.13115Z" fill="url(#paint5_linear_277_798)"/>
<path d="M28.3823 2.83421L29.7895 1.8013H25.0798V8.00821H29.7895V6.9753H26.4237V5.38539H29.2949V4.35248H26.4237V2.83421H28.3823Z" fill="#21A038"/>
<path d="M21.9109 4.2193H20.2758V2.8338H22.8854L24.2918 1.79775H18.9327V8.00466H21.738C23.3107 8.00466 24.2133 7.29448 24.2133 6.05593C24.2133 4.87106 23.3958 4.2193 21.9109 4.2193ZM21.6775 6.97142H20.2758V5.25157H21.6775C22.5281 5.25157 22.927 5.53978 22.927 6.11151C22.927 6.68321 22.5026 6.97142 21.6775 6.97142Z" fill="#21A038"/>
<path d="M33.2515 1.80042H30.6879V8.0073H32.0316V6.249H33.2515C34.8872 6.249 35.899 5.39151 35.899 4.02139C35.899 2.65131 34.8872 1.80042 33.2515 1.80042ZM33.2232 5.2153H32.0316V2.83412H33.2232C34.0835 2.83412 34.5583 3.25721 34.5583 4.02518C34.5583 4.79315 34.0835 5.2153 33.2232 5.2153Z" fill="#21A038"/>
<path d="M16.9162 6.54243C16.5691 6.72971 16.1801 6.82667 15.7854 6.82437C14.6041 6.82437 13.747 5.9841 13.747 4.82704C13.747 3.66995 14.6041 2.82785 15.7854 2.82785C16.2115 2.82065 16.6287 2.94935 16.9761 3.19519L17.916 2.50552L17.8524 2.46053C17.3041 1.98025 16.5715 1.72588 15.7329 1.72588C14.8234 1.72588 13.9986 2.03075 13.4098 2.58542C13.112 2.87101 12.8766 3.21468 12.718 3.59498C12.5595 3.97528 12.4812 4.38404 12.4883 4.7958C12.482 5.21174 12.5598 5.62467 12.7172 6.00998C12.8746 6.39528 13.1082 6.74501 13.4043 7.03834C13.9959 7.61504 14.8188 7.93277 15.7219 7.93277C16.6655 7.93277 17.4903 7.60492 18.0487 7.00804L17.2074 6.38358L16.9162 6.54243Z" fill="#21A038"/>
<path d="M41.2272 4.2193H39.5928V2.8338H43.1052V1.79775H38.2488V8.00466H41.0505C42.6231 8.00466 43.5258 7.29448 43.5258 6.05593C43.5294 4.87106 42.712 4.2193 41.2272 4.2193ZM40.9938 6.97142H39.5928V5.25157H40.9938C41.8444 5.25157 42.243 5.53978 42.243 6.11151C42.243 6.68321 41.8224 6.97142 40.9938 6.97142Z" fill="#21A038"/>
<path d="M58.8028 7.99578H57.4405V1.78887H58.8028V4.39581H59.5443L61.5466 1.78887H63.0905L60.7155 4.74157L63.4733 7.99578H61.6657L59.6388 5.55466H58.8028V7.99578Z" fill="#21A038"/>
<path d="M48.4752 6.81621H45.5933L45.1048 8.02151H43.655L46.358 1.81462H47.8074L50.4665 8.02151H48.9637L48.4752 6.81621ZM48.0238 5.69157L47.0428 3.28094L46.0562 5.69157H48.0238Z" fill="#21A038"/>
<path d="M52.3005 1.81462V4.40651H55.1195V1.81462H56.5242V8.02151H55.1195V5.57578H52.3005V8.02151H50.8958V1.81462H52.3005Z" fill="#21A038"/>
</g>
<defs>
<linearGradient id="paint0_linear_277_798" x1="1.67037" y1="8.31681" x2="0.411973" y2="4.70685" gradientUnits="userSpaceOnUse">
<stop offset="0.14" stop-color="#F1E813"/>
<stop offset="0.3" stop-color="#E6E418"/>
<stop offset="0.58" stop-color="#C9DA26"/>
<stop offset="0.89" stop-color="#A2CC39"/>
</linearGradient>
<linearGradient id="paint1_linear_277_798" x1="1.76491" y1="1.65421" x2="4.96853" y2="0.442682" gradientUnits="userSpaceOnUse">
<stop offset="0.06" stop-color="#0FA7DF"/>
<stop offset="0.54" stop-color="#0098F8"/>
<stop offset="0.92" stop-color="#0290EA"/>
</linearGradient>
<linearGradient id="paint2_linear_277_798" x1="4.59742" y1="9.22097" x2="8.21579" y2="8.40979" gradientUnits="userSpaceOnUse">
<stop offset="0.12" stop-color="#A2CC39"/>
<stop offset="0.28" stop-color="#86C239"/>
<stop offset="0.87" stop-color="#219F38"/>
</linearGradient>
<linearGradient id="paint3_linear_277_798" x1="4.68059" y1="0.383355" x2="7.77591" y2="1.33126" gradientUnits="userSpaceOnUse">
<stop offset="0.06" stop-color="#0290EA"/>
<stop offset="0.79" stop-color="#0C89CA"/>
</linearGradient>
<linearGradient id="paint4_linear_277_798" x1="1.55645" y1="8.14149" x2="4.92742" y2="9.39172" gradientUnits="userSpaceOnUse">
<stop offset="0.13" stop-color="#F1E813"/>
<stop offset="0.3" stop-color="#EAE616"/>
<stop offset="0.53" stop-color="#D8DF1F"/>
<stop offset="0.8" stop-color="#BAD52D"/>
<stop offset="0.98" stop-color="#A2CC39"/>
</linearGradient>
<linearGradient id="paint5_linear_277_798" x1="0.42329" y1="5.0944" x2="1.79203" y2="1.56103" gradientUnits="userSpaceOnUse">
<stop offset="0.07" stop-color="#A2CC39"/>
<stop offset="0.26" stop-color="#81C45E"/>
<stop offset="0.92" stop-color="#0FA7DF"/>
</linearGradient>
<clipPath id="clip0_277_798">
<rect width="64" height="10" fill="white"/>
</clipPath>
</defs>
</svg>
