<svg width="24" height="20" viewBox="0 0 24 20" fill="none" xmlns="http://www.w3.org/2000/svg">
<path d="M19.654 0.937704L19.3793 1.04084C13.4405 3.27614 7.29966 5.58832 1.26361 7.8705C0.933171 7.99672 0.624402 8.17256 0.348198 8.39182C0.245273 8.47339 0.173178 8.61169 0.0968148 8.75796C0.0659847 8.81703 0.0342061 8.87751 0.00195312 8.93611V9.29522C0.158949 9.74294 0.492862 10.0373 1.081 10.2474C1.14124 10.2689 1.20385 10.2868 1.27073 10.305L2.12069 10.5455C3.1561 10.8381 4.22709 11.1405 5.281 11.4335C5.47784 11.4883 5.59073 11.5957 5.66045 11.7921C5.95263 12.636 6.25666 13.4887 6.55025 14.3148L6.78219 14.9664C6.8878 15.2646 6.99342 15.5629 7.09903 15.8614C7.36274 16.6087 7.63547 17.3808 7.91294 18.137C8.17618 18.8543 8.64338 19.2809 9.30124 19.4052C9.89602 19.5172 10.4557 19.3269 11.013 18.8229C11.2786 18.5822 11.5439 18.3413 11.8089 18.1C11.9847 17.939 12.1612 17.7785 12.3382 17.6185C12.6348 17.3491 12.9325 17.0791 13.2314 16.8084L13.7057 16.3785L14.3099 16.8586C14.6519 17.13 14.9896 17.3982 15.3278 17.6659C15.5763 17.8628 15.8273 18.0658 16.0696 18.2617C16.6198 18.7066 17.188 19.1661 17.7686 19.5871C18.3183 19.986 18.9136 20.1027 19.4448 19.9152C19.976 19.7277 20.3835 19.2359 20.5537 18.5725C20.5703 18.5074 20.5841 18.4502 20.595 18.3972C20.7759 17.5196 20.9566 16.642 21.1371 15.7644L21.8756 12.1648C22.4448 9.39602 23.014 6.62737 23.5831 3.85887C23.678 3.39991 23.7776 2.93438 23.8739 2.48432C23.918 2.27804 23.9626 2.07129 24.0062 1.86501V1.30244C23.9908 1.2729 23.9798 1.24132 23.9735 1.20868C23.945 1.00563 23.8718 0.811229 23.759 0.639183C23.6462 0.467137 23.4967 0.32163 23.3208 0.21292C22.9476 -0.0167983 22.478 -0.0622731 21.9975 0.0844652C21.3947 0.268708 20.7923 0.499833 20.2099 0.723925C20.0244 0.79706 19.8394 0.865975 19.654 0.937704ZM9.22678 15.8347L9.00764 16.7039C8.99958 16.7367 8.98962 16.7662 8.97444 16.8107C8.96591 16.8356 8.95595 16.8665 8.94314 16.9045L8.81365 17.3044L6.69776 11.3355L15.002 7.14947L15.2007 7.32808L15.112 7.43169L15.0703 7.48139C15.0385 7.51983 15.0057 7.55921 14.9692 7.59765L14.1738 8.43214C12.8808 9.78888 11.5433 11.1916 10.2247 12.568C10.0609 12.7341 9.94614 12.9413 9.8927 13.1671C9.67547 14.0579 9.44733 14.9613 9.22678 15.8347ZM10.0777 18.1398L9.85381 18.0147L10.8333 14.0987L12.8031 15.6636L10.0777 18.1398ZM22.0132 1.25368C22.1552 1.20782 22.3035 1.18394 22.4529 1.18289C22.5164 1.17914 22.5767 1.17586 22.6345 1.16883L22.7877 1.15054L22.7939 1.30291C22.7963 1.35823 22.802 1.41542 22.8081 1.47543C22.83 1.6165 22.83 1.76004 22.8081 1.90111C22.2446 4.67742 21.6669 7.50108 21.1063 10.2267L20.3948 13.696C20.0922 15.1693 19.7904 16.6429 19.4894 18.1169C19.4016 18.5458 19.2688 18.7704 19.0587 18.8459C19.0106 18.8629 18.9599 18.8717 18.9088 18.8716C18.7348 18.8716 18.5327 18.7746 18.2756 18.5707C16.4334 17.1089 14.5922 15.6461 12.7518 14.1821L11.6282 13.289C11.5888 13.2576 11.5523 13.2248 11.5134 13.1901L11.4537 13.1376L11.3431 13.0438L11.9569 12.3992C12.331 12.0057 12.7036 11.6151 13.0748 11.2272L14.3123 9.93046C15.7552 8.41807 17.2473 6.85458 18.7115 5.3136C18.8251 5.20346 18.9132 5.07042 18.97 4.92355C19.0582 4.65257 18.9188 4.4702 18.786 4.36425C18.5901 4.20908 18.379 4.19126 18.1395 4.31081C17.6396 4.56084 17.1405 4.81197 16.6421 5.06419L14.7449 6.02103C11.9389 7.43638 9.03753 8.89954 6.18077 10.3341C6.02609 10.4082 5.85007 10.4264 5.68322 10.3857C4.62219 10.0941 3.54883 9.78935 2.50535 9.49493L1.65444 9.25396L1.56907 9.23005L1.52164 8.97643L2.03911 8.77296C2.32749 8.66295 2.61587 8.55356 2.90425 8.44479L4.49745 7.84425C10.2375 5.68208 16.1735 3.44632 22.0132 1.25368Z" fill="#00171F"/>
</svg>
