<svg width="72" height="16" viewBox="0 0 72 16" fill="none" xmlns="http://www.w3.org/2000/svg">
<g id="tinkoff-w 1" clip-path="url(#clip0_277_919)">
<path id="Vector" fill-rule="evenodd" clip-rule="evenodd" d="M18.0034 7.48376L18.24 6.73976L17.4566 6.76424C17.3909 6.76424 16.9094 6.75012 16.4434 6.41835C16.4784 6.42118 16.5125 6.42635 16.549 6.42635C17.029 6.42635 17.4941 6.14212 17.6798 5.73553L18.0168 5.00141C17.5944 5.00706 17.208 4.95482 17.208 4.95482C17.2046 4.95482 16.9003 4.91576 16.5485 4.56235C16.296 4.30965 15.9835 4.17553 15.6451 4.17553C15.5111 4.17604 15.3781 4.19683 15.2506 4.23718C15.2683 4.17788 15.2851 4.11718 15.2952 4.05506C15.4022 3.368 14.9525 2.84471 14.9525 2.84471L14.3635 2.12847L13.9982 2.96988C13.9968 2.97271 13.9046 3.17035 13.74 3.26635C13.6901 3.01882 13.5677 2.74071 13.3066 2.47482C12.8136 1.97412 12.2141 1.89882 11.9002 1.89882C11.7547 1.89882 11.6506 1.91482 11.6256 1.91859L10.9147 2.056C10.9555 1.90024 11.0434 1.62776 11.2027 1.38353L11.5954 0.783529L10.608 0.894118L10.2936 0.238118L9.68448 0.546353L9.12144 0L8.55984 0.545882L7.94976 0.238118L7.63584 0.893647L6.64896 0.783059L7.04208 1.384C7.20192 1.62824 7.2888 1.89929 7.3296 2.05506L6.65136 1.92329L6.62784 1.92C6.53417 1.90553 6.43947 1.89845 6.34464 1.89882C6.03072 1.89882 5.4312 1.97412 4.93968 2.47482C4.67808 2.74024 4.5552 3.01882 4.50528 3.26635C4.3416 3.17082 4.24992 2.97694 4.24992 2.97694L3.88416 2.12988L3.2856 2.85176C3.21264 2.94447 2.85216 3.43671 2.9496 4.05647C2.96016 4.11812 2.97648 4.17835 2.99424 4.23765C2.86711 4.19717 2.73431 4.17637 2.60064 4.176C2.26176 4.176 1.94928 4.31012 1.69632 4.56282C1.34592 4.91482 1.04304 4.95482 1.04544 4.95482C1.04544 4.95482 0.72528 5.01129 0.22944 5.00188L0.56496 5.736C0.7512 6.14259 1.2168 6.42682 1.69584 6.42682C1.73232 6.42682 1.7664 6.42165 1.80192 6.41882C1.33632 6.75106 0.85536 6.76471 0.79728 6.76471L0 6.73976L0.24144 7.48329C0.36336 7.86729 0.76944 8.50212 1.54704 8.57035C1.46256 8.91859 1.27488 9.30918 0.86304 9.47765L0.2688 9.71765L0.5928 10.272C0.77568 10.5708 1.20528 10.9205 1.81632 10.9205C1.94832 10.9205 2.076 10.9068 2.19936 10.8814C2.23056 11.0179 2.26992 11.1544 2.31648 11.2908C2.49792 11.8226 2.34144 12.1934 2.33952 12.1976L2.04672 12.8009L2.70096 12.9704C2.70912 12.9732 2.90736 13.0268 3.15456 13.0268C3.26688 13.0268 3.3744 13.0151 3.4752 12.9915C3.55104 12.9741 3.624 12.9506 3.69456 12.9228C3.77952 13.072 3.88224 13.2085 4.00224 13.3304C4.42176 13.7534 5.01696 13.9675 5.7696 13.9675H5.772L6.3096 13.9605L5.19888 14.4141L6.04224 14.8146C6.34896 14.9614 6.71184 15.1346 7.0824 15.2673L6.9768 15.5501L7.2672 15.6805C7.29312 15.6922 7.8528 15.9374 8.7816 15.9896C8.7816 15.9896 9.00576 16 9.12912 16C9.25296 16 9.47472 15.9892 9.47472 15.9892C10.3973 15.9355 10.9522 15.6922 10.9781 15.6805L11.2694 15.5501L11.1634 15.2668C11.5435 15.1304 11.9203 14.9496 12.2146 14.8089L13.0421 14.4136L11.9347 13.9605L12.4747 13.9675C13.2283 13.9675 13.8235 13.7529 14.2426 13.3299C14.3621 13.2085 14.4643 13.0725 14.5498 12.9228C14.7211 12.9923 14.9048 13.0275 15.0902 13.0264C15.3336 13.0264 15.5338 12.9736 15.539 12.9718L16.1966 12.8009L15.9101 12.2085C15.9034 12.1934 15.7469 11.8226 15.9283 11.2899C15.9749 11.1544 16.0138 11.0174 16.0454 10.8814C16.1688 10.9068 16.2979 10.92 16.4309 10.9205C17.2094 10.9205 17.5829 10.3826 17.6549 10.2659L17.976 9.71718L17.3818 9.47765C16.969 9.30965 16.7818 8.91906 16.6982 8.57129C17.4658 8.50541 17.8771 7.87012 18.0038 7.48424L18.0034 7.48376Z" fill="#FFFFFE"/>
<path id="Vector_2" fill-rule="evenodd" clip-rule="evenodd" d="M9.12151 2.27896C8.49271 2.27943 8.02087 2.48179 7.91815 2.72038L9.12151 3.18626L10.3253 2.72038C10.2236 2.48179 9.75175 2.27943 9.12151 2.27896ZM9.13447 14.6267H9.11047C8.72935 14.6291 8.20375 14.5524 7.95127 14.4794L7.64695 15.2884C7.84759 15.3585 8.52727 15.4931 9.12295 15.4931C9.71767 15.4931 10.3978 15.3585 10.598 15.2884L10.2941 14.4799C10.0402 14.5524 9.51559 14.6291 9.13447 14.6267ZM11.437 13.822C11.2105 13.9481 10.705 14.1373 10.4108 14.2248L10.6575 14.8931C11.1125 14.7707 11.4884 14.6281 11.7985 14.4752L11.2858 14.3081L11.437 13.822ZM6.80743 13.822L6.95911 14.3081L6.44599 14.4752C6.75559 14.6281 7.13287 14.7707 7.58647 14.8926L7.83367 14.2244C7.53991 14.1368 7.03351 13.9481 6.80743 13.822ZM9.12151 1.50579C9.59623 1.50579 10.0609 1.61732 10.4189 1.81261C10.4516 1.70532 10.4972 1.57449 10.5591 1.43755L10.4237 1.45355L10.2821 1.46767L10.2221 1.34108L10.0407 0.966023L9.71143 1.13449L9.58279 1.19849L9.48007 1.09967L9.12151 0.751434L8.76391 1.09967L8.66167 1.19849L8.53351 1.13449L8.20231 0.966023L8.02327 1.34108L7.96231 1.46814L7.82023 1.45355L7.68583 1.43755C7.74775 1.57449 7.79287 1.70532 7.82599 1.81261C8.18503 1.61732 8.64967 1.50579 9.12199 1.50579H9.12151ZM16.3623 5.8432C16.4242 5.8639 16.4866 5.87332 16.5485 5.87332C16.8174 5.87332 17.0765 5.70249 17.1653 5.50767C17.1653 5.50767 16.6733 5.47849 16.1444 4.95096C15.9764 4.78061 15.7978 4.72932 15.6452 4.72932C15.4076 4.72932 15.229 4.85214 15.229 4.85214C15.8684 5.18626 15.9985 5.72273 16.3623 5.8432ZM1.69591 5.87285C1.75831 5.87285 1.82071 5.8639 1.88071 5.84273C2.24551 5.72226 2.37703 5.18626 3.01495 4.85261C3.01495 4.85261 2.83639 4.72932 2.60023 4.72932C2.44663 4.72932 2.26855 4.78014 2.09959 4.95143C1.57111 5.47849 1.07959 5.50814 1.07959 5.50814C1.16791 5.70249 1.42759 5.87332 1.69591 5.87332V5.87285Z" fill="#FFFFFE"/>
<path id="Vector_3" fill-rule="evenodd" clip-rule="evenodd" d="M16.1698 9.69174C15.6754 9.45174 15.3634 8.81645 15.2875 8.58774C15.206 9.84798 14.5796 10.7223 13.8476 11.5637C13.4674 12.0004 13.3349 12.4249 13.3349 12.4249C13.3349 12.4249 13.4083 11.944 13.7367 11.5524C14.4197 10.7468 15.0687 9.7435 15.1171 8.58303C15.1503 7.77362 14.9386 7.11715 14.6074 6.57597C14.7927 7.13927 14.7663 7.82962 14.1379 8.47386C14.1379 8.47386 15.3893 7.00186 13.6402 5.49221C12.9403 4.91809 12.1743 4.56327 11.7802 4.31197C13.2043 4.76845 13.9003 4.26586 13.9003 4.26586C13.4453 4.65315 12.8563 4.64656 12.4911 4.59056C12.5904 4.63809 12.6936 4.68797 12.804 4.74586C14.0055 5.3868 15.0845 6.44139 15.2688 7.90115V7.88986C15.5477 9.32374 16.1698 9.69174 16.1698 9.69174ZM16.5356 8.02115C16.5466 8.02209 16.5562 8.02209 16.5672 8.02209C17.2368 8.02209 17.4634 7.31762 17.4634 7.31762H17.4504C17.3275 7.31762 16.332 7.28939 15.6283 6.4108C15.1656 5.83339 14.7859 5.32562 14.0362 5.12609L13.9623 5.11292L13.9464 5.03903C13.9258 4.92656 14.004 4.82115 14.1826 4.70774C15.217 4.04233 14.5138 3.19339 14.5138 3.19339C14.5138 3.19339 14.2191 3.87197 13.5581 3.87197L13.5087 3.87103C13.4338 3.86727 13.3613 3.86492 13.2884 3.84939L13.1664 3.82586C13.1664 3.82586 13.3551 3.32233 12.9 2.86068C12.5578 2.5115 12.1407 2.45221 11.9002 2.45221C11.7787 2.45221 11.7019 2.46774 11.7019 2.46774C11.9304 2.76092 12.0955 3.24797 11.8315 3.54821C11.6035 3.80609 11.0468 3.8188 11.0468 4.20374C11.0468 4.36656 11.2018 4.55668 11.4802 4.7275C12.3173 5.24515 13.1482 5.93221 13.4938 6.85315C13.9258 8.00139 13.4391 8.76374 12.745 9.20092C12.745 9.20092 12.9629 9.39762 13.2783 9.42303C13.3426 9.42915 13.4055 9.43197 13.464 9.43197C14.1307 9.43197 14.4754 9.12468 14.4754 9.12468C14.4754 9.12468 14.4183 9.54915 14.0722 9.94303C13.7515 10.3063 13.3315 10.5209 12.6907 10.5299C12.6907 10.5299 12.6706 10.8216 12.9543 11.0748C13.1362 11.2343 13.5552 11.2866 13.5552 11.2866C13.5552 11.2866 12.7699 11.4423 12.6831 12.5816C12.636 13.199 12.4757 13.4132 12.4757 13.4132H12.4896C14.3117 13.4132 14.2652 11.8781 14.2652 11.8781C14.2652 11.8781 14.3919 12.3327 14.9002 12.4513C14.9616 12.4673 15.0274 12.4734 15.0898 12.4734C15.253 12.4734 15.3956 12.4357 15.3956 12.4357C15.3956 12.4357 15.1292 11.8842 15.3932 11.1129C15.6125 10.4724 15.577 9.99809 15.577 9.99809C15.577 9.99809 15.8223 10.3628 16.4314 10.3661H16.4376C16.5815 10.3683 16.7236 10.3348 16.8508 10.2689C16.978 10.2029 17.0862 10.1065 17.1653 9.98868C15.9504 9.49315 16.0704 7.89456 16.0704 7.89456C16.0704 7.89456 16.2279 8.01033 16.5356 8.02162V8.02115ZM4.39683 11.5637C3.66483 10.7223 3.03843 9.84798 2.95587 8.58774C2.88051 8.81692 2.56899 9.45221 2.07507 9.69174C2.07507 9.69174 2.69619 9.32374 2.97507 7.88986V7.90115C3.15987 6.44139 4.23891 5.3868 5.44035 4.74633C5.55075 4.6875 5.65443 4.63809 5.75283 4.59103C5.38803 4.64656 4.79859 4.65315 4.34403 4.26633C4.34403 4.26633 5.04003 4.76845 6.46371 4.31197C6.07011 4.56327 5.30403 4.91809 4.60467 5.49221C2.85507 7.00186 4.10643 8.47386 4.10643 8.47386C3.47763 7.82915 3.45171 7.13974 3.63699 6.57597C3.30579 7.11715 3.09363 7.77362 3.12819 8.5835C3.17571 9.7435 3.82419 10.7468 4.50579 11.5529C4.83603 11.9435 4.91043 12.4244 4.91043 12.4244C4.91043 12.4244 4.77603 12.0004 4.39683 11.5637ZM4.68963 11.2861C4.68963 11.2861 5.10867 11.2343 5.29059 11.0743C5.57379 10.8216 5.55411 10.5299 5.55411 10.5299C4.91283 10.5209 4.49331 10.3063 4.17123 9.94303C3.82659 9.54915 3.76899 9.12468 3.76899 9.12468C3.76899 9.12468 4.11363 9.43197 4.77939 9.43197C4.83939 9.43197 4.90179 9.42915 4.96563 9.42303C5.16262 9.40348 5.34899 9.32606 5.50035 9.20092C4.80531 8.76374 4.31859 8.00139 4.75011 6.85268C5.09571 5.93268 5.92611 5.24515 6.76419 4.72703C7.04211 4.55668 7.19667 4.36656 7.19667 4.20374C7.19667 3.8188 6.64083 3.80609 6.41283 3.54821C6.14883 3.24797 6.31443 2.76092 6.54243 2.46774C6.54243 2.46774 6.46611 2.45221 6.34419 2.45221C6.10419 2.45221 5.68707 2.5115 5.34435 2.86068C4.88835 3.3228 5.07795 3.82633 5.07795 3.82633L4.95603 3.84986C4.88355 3.86444 4.81011 3.86727 4.73523 3.8715L4.68723 3.87197C4.02483 3.87197 3.73059 3.19386 3.73059 3.19386C3.73059 3.19386 3.02835 4.04233 4.06275 4.70774C4.24035 4.82115 4.31859 4.92703 4.29795 5.03903L4.28211 5.11245L4.20675 5.12562C3.45843 5.32562 3.07875 5.83339 2.61507 6.4108C1.91139 7.28939 0.916829 7.31762 0.793469 7.31762H0.780029C0.780029 7.31762 1.00707 8.02209 1.67715 8.02209C1.68771 8.02209 1.69731 8.02209 1.70883 8.02115C2.01651 8.01033 2.17443 7.89456 2.17443 7.89456C2.17443 7.89456 2.29347 9.49315 1.07907 9.98868C1.07907 9.98868 1.30035 10.3666 1.80723 10.3666H1.81299C2.42259 10.3628 2.66739 9.99809 2.66739 9.99809C2.66739 9.99809 2.63187 10.4729 2.85027 11.1129C3.11427 11.8847 2.84931 12.4353 2.84931 12.4353C2.84931 12.4353 2.99091 12.4729 3.15459 12.4729C3.21795 12.4729 3.28275 12.4673 3.34371 12.4513C3.85155 12.3327 3.97875 11.8781 3.97875 11.8781C3.97875 11.8781 3.93219 13.4132 5.75475 13.4132H5.76819C5.76819 13.4132 5.60835 13.199 5.56179 12.5816C5.47539 11.4428 4.68915 11.2861 4.68915 11.2861H4.68963ZM8.71059 5.62962H9.56979V5.91903C9.46899 5.79762 9.27219 5.82256 9.27219 5.82256V6.23997C9.27219 6.23997 9.27891 6.44515 9.35283 6.53409H8.92755C9.00195 6.44515 9.00819 6.23997 9.00819 6.23997V5.82256C9.00819 5.82256 8.81235 5.79762 8.71059 5.91903V5.62962ZM7.77459 5.67292C7.80435 5.70445 7.83363 5.7388 7.86195 5.77315C7.86867 5.78115 7.87491 5.78821 7.88163 5.79762C7.90803 5.8315 7.93443 5.86821 7.95987 5.90492L7.97715 5.92986C8.00739 5.97503 8.03619 6.02162 8.06499 6.07009C8.32803 6.51574 8.74851 6.78209 9.12147 6.78256C9.49539 6.78209 9.91539 6.51574 10.1789 6.07009C10.2082 6.02068 10.2375 5.97268 10.2682 5.9275C10.3032 5.87487 10.3407 5.82383 10.3805 5.77456C10.4098 5.7388 10.44 5.70397 10.4707 5.67197C10.476 5.66727 10.4803 5.66209 10.4856 5.65786C10.62 5.52327 10.7789 5.42068 10.9882 5.36374L10.8951 5.31056H10.8903L10.5197 5.09974L10.14 4.88562L9.12435 5.42868L9.12147 5.42633L9.12003 5.42868L8.10435 4.88562L7.72419 5.09974L7.35363 5.31056H7.34931L7.25571 5.36374C7.46451 5.42021 7.62387 5.52186 7.75827 5.65692C7.76403 5.66162 7.76787 5.66821 7.77459 5.67292Z" fill="#FFFFFE"/>
<path id="Vector_4" fill-rule="evenodd" clip-rule="evenodd" d="M8.79847 3.78957V4.06251L8.74519 4.03804C8.74279 4.03616 8.66407 4.01922 8.52823 3.91286C8.30311 3.74157 8.29879 3.58345 8.29879 3.58345L8.79799 3.78957H8.79847ZM9.03367 5.06816V3.3731L7.93543 3.00698L8.22535 4.64933L9.03415 5.06816H9.03367ZM9.44647 3.78957L9.94567 3.58345C9.94567 3.58345 9.94183 3.74157 9.71575 3.91286C9.57991 4.01875 9.50167 4.03616 9.49927 4.03804L9.44647 4.06204V3.78957ZM10.0191 4.6498L10.3076 3.00745L9.20983 3.3731V5.06816L10.0191 4.64933V4.6498ZM7.48039 8.99757C7.58743 9.03522 7.71703 9.04322 7.78375 9.04322C7.78615 9.03522 7.78999 9.02533 7.79335 9.0131C7.79863 8.99428 7.80439 8.97451 7.80871 8.9538C7.82743 8.85969 7.83367 8.7538 7.83559 8.6851C7.7742 8.64932 7.72418 8.59751 7.69111 8.53545C7.65031 8.45122 7.59223 8.41169 7.50727 8.41169C7.39687 8.41169 7.27831 8.47757 7.22695 8.50769C7.18663 8.74204 7.36279 8.95475 7.48039 8.9971V8.99757ZM9.91015 8.09828C9.70663 8.31616 9.30679 8.69592 9.28759 8.71475L9.26359 8.73828L8.00119 8.71898C8.00013 8.82137 7.9866 8.92327 7.96087 9.02251L7.95079 9.06157L9.45175 9.32698C9.60775 9.21969 10.0373 8.91145 10.2044 8.79051C10.0829 8.61639 10.0714 8.4098 10.0988 8.26486C10.0267 8.22023 9.96293 8.1639 9.91015 8.09828Z" fill="#FFFFFE"/>
<path id="Vector_5" fill-rule="evenodd" clip-rule="evenodd" d="M10.0815 6.60753C9.79065 6.89082 9.51177 6.99576 9.26265 7.02023C9.21706 7.02508 9.17123 7.02759 9.12537 7.02776H9.11913C9.02749 7.02775 8.93611 7.01829 8.84649 6.99953C8.83017 7.06306 8.80953 7.19623 8.86857 7.32235C8.92137 7.4367 9.02841 7.52188 9.18489 7.57882L9.23769 7.59906L9.23817 7.65459C9.23817 7.67106 9.25065 8.03153 9.65097 8.13176C9.71625 8.06588 9.77577 8.00611 9.81897 7.95576C9.73737 7.76706 9.78057 7.57411 9.89913 7.47953C9.89433 7.49976 9.84153 7.9727 10.2279 8.1487L10.2918 8.17835L10.2726 8.2447C10.2663 8.26494 10.1377 8.72282 10.6057 8.89317L10.6883 8.92423L10.6513 9.00282C10.6431 9.02023 10.4598 9.43576 10.8918 9.672H11.8283V8.94117C11.4951 8.90117 11.3545 8.63811 11.318 8.45176C11.163 8.42588 11.0435 8.36047 10.9614 8.25364C10.7646 7.99953 10.9335 7.76658 10.9359 7.75388C10.9355 7.75576 10.9359 8.00329 11.0915 8.1567C11.1687 8.23011 11.2599 8.28753 11.3987 8.30023L11.4663 8.30635L11.4721 8.37458C11.4735 8.38917 11.5105 8.7247 11.8283 8.77741L11.8278 7.28564C11.8278 7.05411 11.8964 6.82164 11.979 6.60706H10.0815V6.60753ZM7.56009 7.29129L7.53513 8.24094L7.64553 8.25788L7.91433 7.34635L7.77753 7.06588L7.56057 7.29129H7.56009ZM8.14281 10.8085C8.13543 10.8082 8.12817 10.8065 8.12148 10.8035C8.1148 10.8004 8.10882 10.796 8.10392 10.7906C8.09902 10.7852 8.09531 10.7788 8.093 10.7719C8.09069 10.7651 8.08983 10.7578 8.09049 10.7506C8.09091 10.7435 8.09279 10.7365 8.096 10.7301C8.09922 10.7236 8.1037 10.7179 8.1092 10.7132C8.1147 10.7085 8.1211 10.705 8.12803 10.7027C8.13495 10.7005 8.14227 10.6997 8.14953 10.7002C8.18121 10.7016 8.20329 10.7285 8.20233 10.7576C8.20122 10.7721 8.19435 10.7855 8.18321 10.795C8.17207 10.8045 8.15756 10.8094 8.14281 10.8085ZM10.5246 11.6494C10.5327 11.6494 10.5423 11.6503 10.551 11.6527C10.719 11.6998 10.7607 12.2918 11.054 12.3445C11.0828 12.3506 11.1097 12.352 11.1327 12.352C11.2177 12.352 11.2681 12.3167 11.3228 12.2532C11.3228 12.2532 11.175 12.0259 11.0646 11.872C10.9182 11.6706 10.8044 11.4273 10.5313 11.4273C10.5246 11.4273 10.5169 11.4273 10.5097 11.4282C10.4577 11.4303 10.4074 11.4469 10.3647 11.4762C10.2736 11.4171 10.1668 11.3852 10.0575 11.3845C9.88713 11.3845 9.75369 11.4616 9.68697 11.4616H9.68457L9.07497 11.4023C8.97945 11.3929 8.90409 11.2988 8.87673 11.2621L8.86617 11.2461C8.86617 11.2296 8.86617 11.2132 8.86521 11.1986C8.84457 10.7087 8.45865 10.4993 8.32089 10.4955C8.32089 10.4955 8.33721 10.4024 8.30025 10.3671L8.16585 10.5271L7.72425 10.3096L8.03913 10.6711L7.77273 10.9652C7.73913 10.9986 7.74345 11.0438 7.75737 11.0631L7.87257 11.1628L8.01849 11.0758C8.02569 11.0706 8.03913 11.0687 8.05545 11.0687C8.09577 11.0687 8.15625 11.0791 8.21049 11.0791C8.27049 11.0791 8.32185 11.0668 8.32809 11.0118C8.30985 11.1934 8.13801 11.5092 8.25081 11.7572L8.33433 11.9445L7.79529 11.8682L7.54281 12.2866C7.46505 12.4259 7.45257 12.5765 7.52745 12.6583L7.62201 12.7746C7.62201 12.7746 7.75449 12.6367 7.78377 12.5459L7.74105 12.4998C7.70505 12.4607 7.70697 12.4259 7.72905 12.384L7.88745 12.1261L8.52345 12.2734L8.55705 12.2169C8.60025 12.1463 8.66265 12.1256 8.73081 12.1256C8.75913 12.1256 8.78793 12.1289 8.81769 12.1336C8.93577 12.1567 9.13017 12.1873 9.32457 12.1873C9.53817 12.1873 9.74985 12.1496 9.86265 12.0259C10.0931 12.3614 10.5606 12.4146 10.5236 12.5854L10.4007 13.1605C10.4823 13.1567 10.5606 13.1515 10.635 13.1416L10.7521 12.5435C10.7616 12.4927 10.7699 12.4417 10.7771 12.3906C10.7319 12.3454 10.623 12.2508 10.5611 12.1355C10.479 11.9798 10.5236 11.8983 10.4468 11.696C10.4468 11.696 10.4708 11.6489 10.5246 11.6489V11.6494Z" fill="#FFFFFE"/>
<path id="Vector_6" fill-rule="evenodd" clip-rule="evenodd" d="M7.27337 12.193C7.27337 12.193 7.48457 12.1083 7.50377 12.0471L7.47497 11.9784C7.45529 11.9332 7.45769 11.8843 7.49657 11.8579L7.72409 11.7031L8.10473 11.7751C8.10473 11.7751 8.03561 11.6904 8.04233 11.5775L7.67945 11.5022L7.33673 11.7069C7.27693 11.7503 7.23371 11.8122 7.21396 11.8826C7.19421 11.9529 7.19908 12.0278 7.22777 12.0951L7.27337 12.1935V12.193ZM9.96473 13.1681C10.0324 13.1652 10.1083 13.1643 10.1903 13.1643C10.1903 13.1643 10.3862 12.6019 10.3972 12.5841C10.2518 12.5175 10.1098 12.4439 9.97193 12.3633C10.03 12.449 10.1711 12.5464 10.1433 12.6217L9.96473 13.1681Z" fill="#FFFFFE"/>
<path id="Vector_7" fill-rule="evenodd" clip-rule="evenodd" d="M11.8281 9.83294H6.41611V11.8325C6.41611 12.6504 7.01851 13.1619 7.90795 13.1619C8.65051 13.1619 8.84635 13.1901 9.12235 13.4598C9.31291 13.2729 9.47035 13.2038 9.79435 13.1774L9.80155 13.1468L9.97195 12.6287C9.96235 12.6169 9.68395 12.3059 9.68395 12.3059C9.57355 12.3421 9.48043 12.3482 9.32395 12.3482C9.16411 12.3482 8.98315 12.3294 8.78683 12.2936C8.76842 12.2894 8.74958 12.2872 8.73067 12.2871C8.70667 12.2871 8.70523 12.2889 8.69851 12.3007L8.66491 12.3558L8.60251 12.4565L8.48587 12.4296L7.96651 12.3096L7.89499 12.4249L7.90603 12.4376L7.96891 12.5059L7.94107 12.5953C7.90267 12.7115 7.77883 12.8475 7.74091 12.8852L7.61131 13.0216L7.49275 12.8753L7.40395 12.7656C7.31035 12.6631 7.28875 12.5059 7.34155 12.3412C7.34001 12.3423 7.33818 12.3429 7.33627 12.3431L7.18987 12.4028L7.12411 12.2616L7.07755 12.1624C7.03285 12.0608 7.02481 11.9473 7.05474 11.8406C7.08467 11.7339 7.15079 11.6404 7.24219 11.5755L7.65979 11.3435L8.05819 11.4202C8.06779 11.3826 8.08219 11.2489 8.09323 11.2146C8.08555 11.2136 8.07835 11.2122 8.07067 11.2122L7.84123 11.296L7.62043 11.1464C7.62043 11.1464 7.53403 11.0645 7.61227 10.9826L7.82587 10.664L7.28347 9.99576L8.11723 10.3318L8.17291 10.2645L8.28523 10.1318L8.41291 10.2513C8.44648 10.2835 8.46982 10.3245 8.48011 10.3694C8.70955 10.4574 9.12139 10.7167 9.15787 11.1384L9.02923 11.1887V11.192C9.05851 11.2264 9.08299 11.2405 9.09067 11.2419L9.68587 11.2993C9.70123 11.2965 9.71947 11.2899 9.74059 11.2842C9.81499 11.2593 9.92587 11.2231 10.0574 11.2231C10.1649 11.2231 10.2686 11.2475 10.3679 11.2936C10.4049 11.2795 10.4495 11.2696 10.5023 11.2664L10.5311 11.2654C10.8494 11.2654 11.0078 11.4993 11.135 11.6861C11.1561 11.7186 11.1772 11.7487 11.1993 11.7788C11.3107 11.9332 11.4561 12.1586 11.4619 12.1685L11.5276 12.2687L11.447 12.3609C11.3855 12.4315 11.2919 12.5139 11.1326 12.5139C11.0965 12.5136 11.0605 12.51 11.0251 12.5031C10.9924 12.4969 10.9605 12.4873 10.93 12.4744C10.9251 12.5076 10.9195 12.5407 10.9132 12.5736L10.8091 13.1087C11.4331 12.9581 11.8295 12.4951 11.8295 11.8325L11.8281 9.83294ZM6.41611 9.672H10.6257C10.4155 9.45835 10.4188 9.18871 10.4721 9.01318C10.4153 8.98643 10.3625 8.95224 10.3151 8.91153C10.1505 9.03059 9.64843 9.38965 9.51739 9.48L9.48907 9.49882L7.83691 9.20518H7.80331C7.76395 9.20518 7.70587 9.20376 7.64251 9.19576C7.63573 9.22551 7.6203 9.25269 7.59809 9.27401C7.57588 9.29534 7.54784 9.30989 7.51737 9.31592C7.48689 9.32194 7.45529 9.31918 7.42639 9.30796C7.39749 9.29674 7.37252 9.27755 7.35451 9.25271C7.34186 9.23574 7.33279 9.21647 7.32785 9.19603C7.3229 9.17558 7.32217 9.15437 7.32571 9.13365L7.33195 9.09835C7.16203 8.98071 7.00411 8.71718 7.07419 8.43953L7.08091 8.41035L7.10491 8.39341C7.12913 8.37721 7.15412 8.36213 7.17979 8.34823L7.05979 8.32941C7.03848 8.32583 7.01943 8.31423 7.00671 8.2971C6.99398 8.27996 6.98857 8.25863 6.99163 8.23765C6.99931 8.19341 7.04107 8.16235 7.08571 8.17035L7.37131 8.21459L7.39771 7.22588L7.82299 6.78353L8.08891 7.3327L7.80859 8.28423L8.06107 8.32329C8.08263 8.32676 8.10191 8.33846 8.11469 8.35584C8.12746 8.37322 8.13269 8.39485 8.12923 8.416C8.12614 8.43474 8.11631 8.45178 8.10152 8.46403C8.08673 8.47629 8.06795 8.48295 8.04859 8.48282L8.03563 8.48235L7.82971 8.44941C7.83259 8.456 7.83643 8.45929 7.83931 8.46588C7.86223 8.50485 7.89672 8.53604 7.93819 8.55529L9.19723 8.57553C9.25051 8.52423 9.38251 8.39718 9.51883 8.26259C9.40018 8.21989 9.29601 8.14562 9.218 8.04812C9.14 7.95062 9.09125 7.83374 9.07723 7.71059C8.90443 7.63812 8.78443 7.52988 8.71819 7.38871C8.63755 7.21365 8.66635 7.03859 8.68795 6.95341C8.51995 6.89365 8.34331 6.78353 8.16283 6.60753H6.26587C6.34747 6.82212 6.41611 7.05459 6.41611 7.28565V9.67153V9.672Z" fill="#FFE52B"/>
<path id="Vector_8" fill-rule="evenodd" clip-rule="evenodd" d="M8.14948 10.7002C8.14217 10.6996 8.13482 10.7005 8.12787 10.7027C8.12091 10.705 8.11449 10.7086 8.10898 10.7133C8.10348 10.7181 8.099 10.7239 8.09581 10.7303C8.09263 10.7368 8.0908 10.7438 8.09043 10.751C8.08985 10.7582 8.09075 10.7654 8.09309 10.7722C8.09543 10.779 8.09916 10.7853 8.10405 10.7907C8.10894 10.7961 8.1149 10.8004 8.12155 10.8034C8.1282 10.8065 8.13542 10.8082 8.14276 10.8084C8.15742 10.8093 8.17187 10.8046 8.183 10.7952C8.19413 10.7857 8.20105 10.7724 8.20227 10.7581C8.20306 10.7435 8.19795 10.7293 8.18806 10.7184C8.17816 10.7076 8.16429 10.701 8.14948 10.7002ZM10.658 14.8931L10.4108 14.2249C10.705 14.1369 11.2104 13.9477 11.4375 13.8221L11.2863 14.3082L11.7984 14.4752C11.4884 14.6277 11.113 14.7703 10.658 14.8927V14.8931ZM9.12292 15.4931C8.52724 15.4931 7.84755 15.3585 7.64691 15.2884L7.95124 14.4799C8.20372 14.5524 8.72883 14.6291 9.11043 14.6268H9.13444C9.51556 14.6291 10.0402 14.5519 10.2941 14.4799L10.598 15.2884C10.3973 15.359 9.71764 15.4931 9.12292 15.4931ZM6.44643 14.4752L6.95907 14.3082L6.80739 13.8221C7.03347 13.9477 7.54035 14.1374 7.83363 14.2249L7.58643 14.8931C7.13284 14.7708 6.75603 14.6277 6.44643 14.4752ZM11.8215 14.327L11.5095 14.2094L11.5959 13.8931L11.6904 13.5482C11.6904 13.5482 11.1384 13.8428 10.3594 14.0635C10.1386 14.1256 9.97155 14.1543 9.97155 14.1543V14.3891C9.97155 14.3891 9.55492 14.4597 9.13444 14.4597H9.11043C8.68899 14.4597 8.27331 14.3891 8.27331 14.3891V14.1538C8.27331 14.1538 8.10579 14.1256 7.88499 14.0635C7.10691 13.8423 6.55491 13.5482 6.55491 13.5482L6.64803 13.8931L6.73636 14.2094L6.42339 14.327L6.07635 14.4541C6.47379 14.6428 7.02484 14.9171 7.52884 15.0527L7.41027 15.3717C7.41027 15.3717 8.04963 15.6578 9.11476 15.6607V15.6611H9.12915V15.6607C10.1957 15.6578 10.8351 15.3717 10.8351 15.3717L10.7151 15.0527C11.2196 14.9171 11.7716 14.6432 12.1671 14.4541L11.8215 14.327ZM7.82067 1.45312L7.96227 1.46818L8.02323 1.34112L8.20179 0.966063L8.53299 1.13453L8.66163 1.199L9.12147 0.751005L9.48003 1.09924L9.58276 1.199L9.7114 1.13453L10.0407 0.966063L10.2221 1.34112L10.2821 1.46818L10.4237 1.45312L10.5591 1.43759C10.4972 1.57453 10.4516 1.70489 10.4184 1.81312C10.0608 1.61689 9.59619 1.50583 9.12195 1.50583C8.64963 1.50583 8.185 1.61689 7.82596 1.81312C7.78723 1.68521 7.74042 1.5598 7.68579 1.43759L7.82019 1.45312H7.82067ZM9.12147 1.70112C9.75652 1.70112 10.2639 1.90818 10.5447 2.12795C10.5447 2.12795 10.6282 1.63524 10.9124 1.20089L10.4012 1.25736L10.1338 0.69971L9.62019 0.959946L9.12147 0.476181L8.62468 0.959946L8.11011 0.69971L7.84323 1.25783L7.33203 1.20042C7.61667 1.63524 7.69972 2.12748 7.69972 2.12748C7.98196 1.90771 8.48787 1.70112 9.12147 1.70112ZM17.1653 9.98865C17.1653 9.98865 16.9445 10.3665 16.4376 10.3665H16.4314C15.8228 10.3628 15.577 9.99806 15.577 9.99806C15.577 9.99806 15.6125 10.4724 15.3936 11.1129C15.1296 11.8847 15.3956 12.4352 15.3956 12.4352C15.3956 12.4352 15.2535 12.4734 15.0898 12.4734C15.0274 12.4734 14.9621 12.4672 14.9002 12.4512C14.3919 12.3331 14.2652 11.8785 14.2652 11.8785C14.2652 11.8785 14.3122 13.4131 12.4896 13.4131H12.4752C12.4752 13.4131 12.636 13.199 12.6836 12.5816C12.77 11.4428 13.5552 11.2861 13.5552 11.2861C13.5552 11.2861 13.1362 11.2343 12.9543 11.0748C12.6706 10.8221 12.6903 10.5298 12.6903 10.5298C13.3316 10.5209 13.752 10.3068 14.0722 9.943C14.2785 9.71028 14.4177 9.42776 14.4754 9.12465C14.4754 9.12465 14.1308 9.43195 13.464 9.43195C13.4055 9.43195 13.3431 9.42912 13.2788 9.42301C12.9629 9.39806 12.745 9.20089 12.745 9.20089C13.4391 8.76371 13.9258 8.00089 13.4943 6.85265C13.1487 5.93265 12.3173 5.24512 11.4807 4.72747C11.2023 4.55665 11.0468 4.36653 11.0468 4.20324C11.0468 3.81877 11.6036 3.80653 11.832 3.54818C12.096 3.24795 11.9304 2.76089 11.702 2.46771C11.702 2.46771 11.7788 2.45218 11.9002 2.45218C12.1412 2.45218 12.5578 2.51148 12.9005 2.86065C13.3551 3.32277 13.1664 3.8263 13.1664 3.8263L13.2884 3.84983C13.3613 3.86442 13.4338 3.86771 13.5092 3.87148L13.5581 3.87195C14.2191 3.87195 14.5143 3.19336 14.5143 3.19336C14.5143 3.19336 15.217 4.0423 14.1826 4.70771C14.0045 4.82112 13.9258 4.927 13.9464 5.039L13.9628 5.11289L14.0362 5.12559C14.786 5.32559 15.1656 5.83383 15.6288 6.41077C16.3325 7.28936 17.328 7.31759 17.4504 7.31759H17.4639C17.4639 7.31759 17.2368 8.02206 16.5672 8.02206C16.5562 8.02206 16.5466 8.02206 16.5356 8.02112C16.2284 8.0103 16.07 7.89453 16.07 7.89453C16.07 7.89453 15.9504 9.49312 17.1653 9.98865ZM16.5672 8.23759C17.388 8.23759 17.6626 7.41736 17.6741 7.38253L17.7653 7.09312L17.4581 7.10253H17.4572C17.3482 7.10253 16.4429 7.079 15.8012 6.27759L15.7402 6.20324C15.3207 5.67948 14.9228 5.18112 14.2114 4.95383C14.2398 4.92943 14.2702 4.90724 14.3021 4.88748C14.6794 4.64371 14.8992 4.34771 14.954 4.00371C15.0351 3.48653 14.6986 3.0743 14.6842 3.05736L14.4557 2.77971L14.3127 3.10912C14.3031 3.12936 14.0631 3.65642 13.5581 3.65642H13.5207C13.4861 3.655 13.453 3.65359 13.4204 3.65077C13.4381 3.41548 13.3944 3.05218 13.0584 2.71053C12.6548 2.29971 12.1594 2.23806 11.9002 2.23806C11.762 2.23806 11.6698 2.255 11.6597 2.25595L11.3146 2.32324L11.5272 2.59853C11.6943 2.81124 11.846 3.20324 11.6664 3.40795C11.6088 3.47383 11.4908 3.52606 11.378 3.57924C11.1456 3.68418 10.8279 3.831 10.8279 4.20324C10.8279 4.44418 11.0184 4.69689 11.364 4.911C12.3855 5.54206 13.0162 6.20089 13.2884 6.92795C13.7098 8.04606 13.1602 8.68418 12.626 9.02018L12.3869 9.17124L12.5967 9.36042C12.625 9.38489 12.8808 9.60653 13.2596 9.63853C13.3316 9.64324 13.4002 9.64701 13.4645 9.64701C13.7069 9.64701 13.9138 9.60936 14.0818 9.55947C14.0316 9.6454 13.9731 9.72639 13.9071 9.80136C13.6023 10.1487 13.2269 10.3068 12.6869 10.3152L12.4863 10.3181L12.4709 10.5157C12.469 10.5557 12.4541 10.9223 12.8069 11.2338C12.8612 11.2818 12.9264 11.3218 12.9951 11.3538C12.7551 11.5656 12.5122 11.9345 12.4652 12.5661C12.4253 13.0931 12.2972 13.2884 12.2957 13.2908L12.074 13.623L12.4748 13.6282C13.1367 13.6282 13.6436 13.4494 13.9944 13.0936C14.1762 12.9067 14.3118 12.6815 14.3909 12.4352C14.5858 12.5982 14.8336 12.6876 15.0898 12.6875C15.277 12.6875 15.4335 12.6484 15.4508 12.6447L15.7066 12.5778L15.5938 12.3435C15.5852 12.3247 15.372 11.8541 15.6015 11.1825C15.7004 10.8922 15.7508 10.6324 15.7752 10.4296C15.9365 10.5124 16.152 10.5802 16.4309 10.5811C17.0645 10.5811 17.3434 10.1167 17.3559 10.0974L17.4807 9.88371L17.2493 9.79053C16.4948 9.48277 16.3277 8.65642 16.2941 8.20936C16.3628 8.22206 16.4405 8.23383 16.5284 8.23618L16.5672 8.23759Z" fill="#1A1919"/>
<path id="Vector_9" fill-rule="evenodd" clip-rule="evenodd" d="M15.6452 4.72938C15.7978 4.72938 15.9764 4.78068 16.1444 4.9515C16.6733 5.47856 17.1653 5.50821 17.1653 5.50821C17.0761 5.70256 16.8169 5.87338 16.5485 5.87338C16.4866 5.87338 16.4237 5.86397 16.3628 5.8428C15.9985 5.72233 15.8684 5.18633 15.2295 4.85268C15.2295 4.85268 15.4071 4.72938 15.6452 4.72938ZM15.1253 5.0428C15.4311 5.2028 15.6097 5.41786 15.7661 5.60797C15.9197 5.79386 16.0652 5.97268 16.2941 6.04703C16.3748 6.07433 16.4607 6.0875 16.5485 6.0875C16.8908 6.0875 17.2349 5.88138 17.3655 5.59621L17.4965 5.31103L17.1793 5.29221C17.1644 5.29221 16.7559 5.25503 16.3018 4.7995C16.1146 4.61221 15.8885 4.51433 15.6452 4.51433C15.3476 4.51433 15.1268 4.66021 15.1028 4.67527L14.8109 4.87715L15.1253 5.0428ZM15.2689 7.89033V7.90115C15.0845 6.44139 14.0055 5.38727 12.8041 4.74633C12.6937 4.68797 12.5905 4.63809 12.4911 4.59103C12.8564 4.64656 13.4453 4.65315 13.9004 4.26633C13.9004 4.26633 13.2044 4.76844 11.7802 4.31197C12.1738 4.56327 12.9404 4.91809 13.6402 5.49221C15.3889 7.00186 14.138 8.47386 14.138 8.47386C14.7668 7.82962 14.7927 7.13974 14.6074 6.57597C14.9386 7.11715 15.1498 7.77362 15.1172 8.5835C15.0692 9.7435 14.4197 10.7468 13.7367 11.5529C13.4084 11.9435 13.3354 12.4244 13.3354 12.4244C13.3354 12.4244 13.4679 12.0004 13.8476 11.5642C14.5796 10.7219 15.206 9.84797 15.2876 8.58774C15.3634 8.81691 15.6754 9.45221 16.1698 9.69174C16.1698 9.69174 15.5482 9.32374 15.2689 7.89033ZM5.75525 13.4131C3.93269 13.4131 3.97925 11.8786 3.97925 11.8786C3.97925 11.8786 3.85157 12.3331 3.34421 12.4513C3.28224 12.4666 3.21852 12.474 3.15461 12.4734C2.99141 12.4734 2.84933 12.4357 2.84933 12.4357C2.84933 12.4357 3.11477 11.8842 2.85029 11.1129C2.63237 10.4729 2.66789 9.99809 2.66789 9.99809C2.66789 9.99809 2.42261 10.3628 1.81349 10.3666H1.80725C1.30085 10.3666 1.07957 9.98868 1.07957 9.98868C2.29397 9.49315 2.17493 7.89456 2.17493 7.89456C2.17493 7.89456 2.01653 8.01033 1.70933 8.02162H1.67717C1.00709 8.02162 0.780053 7.31762 0.780053 7.31762H0.793973C0.917813 7.31762 1.91189 7.28939 2.61509 6.4108C3.07829 5.83339 3.45845 5.32562 4.20677 5.12609L4.28213 5.11291L4.29797 5.03903C4.31909 4.92703 4.24037 4.82115 4.06277 4.70774C3.02837 4.04233 3.73061 3.19386 3.73061 3.19386C3.73061 3.19386 4.02437 3.87197 4.68725 3.87197L4.73525 3.8715C4.81013 3.86774 4.88357 3.86444 4.95605 3.84938L5.07797 3.82633C5.07797 3.82633 4.88885 3.3228 5.34485 2.86068C5.68757 2.5115 6.10373 2.45221 6.34421 2.45221C6.46661 2.45221 6.54197 2.46774 6.54197 2.46774C6.31445 2.76091 6.14933 3.24797 6.41237 3.54821C6.64085 3.80656 7.19717 3.8188 7.19717 4.20327C7.19717 4.36656 7.04213 4.55668 6.76421 4.7275C5.92661 5.24515 5.09573 5.93221 4.75013 6.85315C4.31909 8.00138 4.80581 8.76374 5.50037 9.20138C5.50037 9.20138 5.28197 9.39809 4.96613 9.42303C4.90423 9.42888 4.84208 9.43186 4.77989 9.43197C4.11365 9.43197 3.76901 9.12515 3.76901 9.12515C3.76901 9.12515 3.82661 9.54915 4.17125 9.9435C4.49285 10.3068 4.91285 10.5209 5.55365 10.5299C5.55365 10.5299 5.57429 10.8216 5.29061 11.0748C5.10869 11.2348 4.68965 11.2866 4.68965 11.2866C4.68965 11.2866 5.47541 11.4428 5.56181 12.5816C5.60885 13.199 5.76821 13.4131 5.76821 13.4131H5.75525ZM5.94869 13.2908C5.94821 13.2884 5.82101 13.0931 5.78021 12.5661C5.73221 11.9346 5.48933 11.5656 5.24885 11.3539C5.31845 11.3219 5.38325 11.2819 5.43701 11.2339C5.78981 10.9223 5.77493 10.5562 5.77253 10.5157L5.75909 10.3181L5.55701 10.3153C5.01845 10.3068 4.64261 10.1487 4.33781 9.80138C4.27211 9.7262 4.21362 9.64523 4.16309 9.5595C4.33109 9.60986 4.53653 9.64703 4.77989 9.64703C4.84469 9.64703 4.91285 9.64327 4.98437 9.63856C5.22936 9.61457 5.461 9.51769 5.64821 9.36091L5.85797 9.17127L5.61893 9.02068C5.08325 8.68421 4.53557 8.04656 4.95653 6.92797C5.22869 6.20091 5.85797 5.54256 6.88133 4.91103C7.22693 4.69691 7.41605 4.44421 7.41605 4.20327C7.41605 3.83103 7.09925 3.68421 6.86693 3.57927C6.75365 3.52609 6.63557 3.47338 6.57845 3.40797C6.39845 3.20327 6.54965 2.81127 6.71717 2.59856L6.93125 2.32327L6.58421 2.25597C6.57461 2.25456 6.48341 2.23809 6.34421 2.23809C6.08549 2.23809 5.59061 2.29974 5.18741 2.71056C4.85093 3.05221 4.80677 3.41597 4.82405 3.6508C4.79141 3.65362 4.75877 3.65503 4.72421 3.65644H4.68725C4.18037 3.65644 3.94133 3.12938 3.93221 3.10915L3.78965 2.77974L3.55925 3.05738C3.54629 3.07433 3.20885 3.48656 3.29141 4.00374C3.34565 4.34727 3.56549 4.64374 3.94277 4.8875C3.98405 4.91338 4.01237 4.9355 4.03301 4.95386C3.32069 5.18115 2.92373 5.6795 2.50421 6.20327L2.44373 6.27762C1.80245 7.07903 0.894773 7.10303 0.786293 7.10303L0.477173 7.09362L0.571253 7.38256C0.582293 7.41738 0.855893 8.23762 1.67717 8.23762L1.71653 8.23621C1.80341 8.23386 1.88165 8.22209 1.95077 8.20891C1.91717 8.65597 1.74917 9.4828 0.994613 9.79009L0.764213 9.88421L0.889013 10.0974C0.900533 10.1167 1.18085 10.5812 1.81541 10.5812C2.04253 10.5834 2.26683 10.5317 2.46917 10.4306C2.49365 10.6329 2.54453 10.8922 2.64341 11.1826C2.87285 11.8536 2.65925 12.3247 2.65109 12.3435L2.53781 12.5779L2.79365 12.6442C2.81093 12.6489 2.96837 12.6875 3.15461 12.6875C3.41086 12.6881 3.65884 12.5986 3.85349 12.4353C3.92309 12.6456 4.04261 12.8833 4.24949 13.0936C4.60181 13.4489 5.10821 13.6282 5.76965 13.6282L6.17045 13.623L5.94869 13.2908Z" fill="#1A1919"/>
<path id="Vector_10" fill-rule="evenodd" clip-rule="evenodd" d="M2.09945 4.95155C2.26841 4.78073 2.44649 4.72896 2.60009 4.72896C2.83625 4.72896 3.01529 4.85273 3.01529 4.85273C2.37689 5.18684 2.24537 5.72237 1.88057 5.84331C1.82115 5.86351 1.75864 5.87353 1.69577 5.87296C1.42745 5.87296 1.16777 5.70261 1.07945 5.50826C1.07945 5.50826 1.57097 5.47861 2.09945 4.95155ZM1.69577 6.08755C1.78361 6.08755 1.86953 6.07437 1.95113 6.04708C2.17961 5.97273 2.32553 5.79437 2.47913 5.60802C2.63609 5.41837 2.81273 5.20331 3.11897 5.04331L3.43385 4.8772L3.14105 4.67484C3.11705 4.66026 2.89769 4.51484 2.60009 4.51484C2.35625 4.51484 2.12969 4.61226 1.94297 4.79955C1.48841 5.25555 1.08089 5.29226 1.06601 5.29273L0.749207 5.31108L0.878807 5.59673C1.01033 5.88143 1.35401 6.08755 1.69577 6.08755ZM3.12761 8.58355C3.09401 7.77367 3.30521 7.1172 3.63641 6.57602C3.45209 7.13979 3.47705 7.82967 4.10681 8.47437C4.10681 8.47437 2.85497 7.00143 4.60457 5.49273C5.30441 4.91814 6.07001 4.56331 6.46361 4.31202C5.03993 4.76849 4.34441 4.2659 4.34441 4.2659C4.79897 4.6532 5.38793 4.64708 5.75321 4.59061C5.65433 4.63814 5.55065 4.68755 5.44025 4.74637C4.23881 5.38684 3.16025 6.44143 2.97497 7.9012V7.89037C2.69609 9.32379 2.07497 9.69179 2.07497 9.69179C2.56937 9.45179 2.88041 8.81649 2.95625 8.58779C3.03881 9.84802 3.66473 10.7224 4.39625 11.5643C4.77641 12.0005 4.90985 12.4245 4.90985 12.4245C4.90985 12.4245 4.83593 11.944 4.50617 11.553C3.82457 10.7468 3.17561 9.74355 3.12761 8.58355ZM8.71049 5.62967V5.91955C8.81225 5.79767 9.00809 5.82261 9.00809 5.82261V6.24002C9.00809 6.24002 9.00185 6.4452 8.92745 6.53414H9.35273C9.27881 6.4452 9.27161 6.24002 9.27161 6.24002V5.82261C9.27161 5.82261 9.46841 5.79767 9.56921 5.91955V5.62967H8.71001H8.71049ZM8.52809 3.91296C8.66393 4.01884 8.74265 4.03673 8.74505 4.03814L8.79785 4.06214V3.78967L8.29865 3.58355C8.29865 3.58355 8.30297 3.74167 8.52809 3.91296ZM9.71561 3.91296C9.94121 3.74167 9.94601 3.58355 9.94601 3.58355L9.44633 3.78967V4.06261L9.49913 4.03814C9.50153 4.03673 9.57977 4.01884 9.71561 3.91296Z" fill="#1A1919"/>
<path id="Vector_11" fill-rule="evenodd" clip-rule="evenodd" d="M9.12201 3.18687L7.91865 2.72005C8.02089 2.48193 8.49273 2.27958 9.12201 2.27911C9.75177 2.27958 10.2236 2.48193 10.3258 2.72005L9.12201 3.18687ZM10.0191 4.64993L9.21033 5.06875V3.37276L10.3081 3.00664L10.0191 4.64899V4.64993ZM10.5202 5.09981L10.8899 5.31064H10.8951L10.9883 5.36381C10.7794 5.42028 10.6196 5.52334 10.4857 5.65793L10.4713 5.67205C10.4397 5.70508 10.4094 5.73931 10.3806 5.77464L10.3638 5.79628C10.335 5.83252 10.3076 5.8697 10.2822 5.90828L10.2683 5.92758C10.2371 5.97417 10.2075 6.02173 10.1795 6.07017C9.91545 6.51581 9.49545 6.78217 9.12201 6.78311C8.74857 6.78217 8.32809 6.51581 8.06505 6.07017C8.03709 6.02264 8.0078 5.97588 7.97721 5.92993L7.95993 5.90499C7.93485 5.86865 7.90892 5.83288 7.88217 5.7977C7.87545 5.78828 7.86921 5.78123 7.86249 5.77323C7.83431 5.7389 7.80501 5.70547 7.77465 5.67299C7.76841 5.66828 7.76409 5.66217 7.75833 5.65699C7.62119 5.51619 7.44741 5.41482 7.25577 5.36381L7.34985 5.31064H7.35369L7.72473 5.09981L8.10441 4.8857L9.12009 5.42876L9.12201 5.42687L9.12489 5.42876L10.1401 4.8857L10.5202 5.09981ZM11.9795 6.60758C11.8964 6.82217 11.8278 7.05464 11.8278 7.2857L11.8287 8.77746C11.5114 8.7257 11.4735 8.3897 11.4726 8.37511L11.4668 8.30687L11.3982 8.30075C11.2818 8.2907 11.173 8.23972 11.0919 8.15723C10.9359 8.00428 10.9359 7.75675 10.9359 7.7544C10.934 7.76711 10.765 7.99911 10.9609 8.25323C11.0434 8.36052 11.1635 8.42687 11.318 8.45275C11.3545 8.63864 11.4956 8.9017 11.8287 8.94217V9.67158H10.8922C10.4602 9.43581 10.6431 9.02075 10.6518 9.00287L10.6883 8.92381L10.6057 8.89323C10.1377 8.72287 10.2668 8.26452 10.2731 8.24475L10.2922 8.17793L10.2279 8.14875C9.84201 7.97275 9.89433 7.49934 9.89961 7.47958C9.78057 7.57417 9.73785 7.76664 9.81945 7.95628C9.77529 8.00617 9.71577 8.06593 9.65097 8.13181C9.53822 8.10767 9.43671 8.04782 9.3621 7.96149C9.2875 7.87517 9.24394 7.76717 9.23817 7.65417L9.23769 7.59864L9.18489 7.57887C9.02889 7.5224 8.92185 7.43675 8.86857 7.3224C8.80953 7.19581 8.83017 7.06358 8.84649 6.99911C8.93619 7.01734 9.02752 7.0268 9.11913 7.02734H9.12537C9.17193 7.02734 9.21753 7.02452 9.26265 7.02028C9.51225 6.99581 9.79065 6.89087 10.0815 6.60758H11.9795ZM10.8092 13.1088L10.9138 12.5737L10.9306 12.4749C10.9952 12.4997 11.0638 12.5129 11.1332 12.5139C11.2926 12.5139 11.3857 12.4311 11.4476 12.361L11.5273 12.2692L11.462 12.1685C11.4562 12.1586 11.3108 11.9332 11.1995 11.7789C11.1773 11.7484 11.156 11.7173 11.1356 11.6857C11.0084 11.4993 10.8495 11.2655 10.5308 11.2655L10.5025 11.2664C10.4566 11.2688 10.4113 11.2779 10.3681 11.2932C10.2711 11.2478 10.165 11.224 10.0575 11.2236C9.94939 11.2261 9.84246 11.2465 9.74121 11.2838C9.72009 11.2899 9.70089 11.2965 9.68601 11.2993L9.09081 11.2419C9.08313 11.24 9.05913 11.2259 9.02937 11.192V11.1888L9.15801 11.1384C9.12201 10.7168 8.70969 10.4575 8.48025 10.3695C8.47008 10.3244 8.44673 10.2832 8.41305 10.2509L8.28537 10.1318L8.17305 10.264L8.11785 10.3318L7.28361 9.99534L7.82601 10.664L7.61241 10.9826C7.53369 11.064 7.62057 11.1464 7.62057 11.1464L7.84137 11.296L8.07081 11.2118C8.07849 11.2118 8.08521 11.2137 8.09337 11.2146C8.08233 11.249 8.06793 11.3831 8.05833 11.4203L7.66041 11.3436L7.24281 11.5756C7.02729 11.7309 6.99801 11.9869 7.07817 12.1624L7.12425 12.2622L7.19001 12.4029L7.33641 12.3436C7.33881 12.3426 7.34073 12.3422 7.34217 12.3408C7.28937 12.5059 7.31097 12.6626 7.40457 12.7657L7.49337 12.8753L7.61145 13.0222L7.74105 12.8852C7.77945 12.8476 7.90329 12.7116 7.94121 12.5949L7.96905 12.5059L7.90617 12.4377L7.89561 12.425L7.96665 12.3097L8.48601 12.4302L8.60313 12.4565L8.66553 12.3553L8.69913 12.3008C8.70537 12.289 8.70681 12.2871 8.73081 12.2871C8.74953 12.2871 8.76777 12.289 8.78745 12.2937C8.96456 12.328 9.14453 12.3461 9.32505 12.3478C9.48009 12.3478 9.57369 12.3422 9.68409 12.3059C9.68409 12.3059 9.96297 12.6165 9.97257 12.6288L9.80169 13.1464L9.79401 13.1775C9.47097 13.2033 9.31353 13.273 9.12297 13.4598C8.84649 13.1906 8.65113 13.1619 7.90857 13.1619C7.01913 13.1619 6.41625 12.6504 6.41625 11.832V9.83299H11.8287L11.8297 11.832C11.8297 12.4951 11.4332 12.9577 10.8092 13.1088ZM7.47561 11.9784L7.50393 12.0476C7.48473 12.1078 7.27353 12.1935 7.27353 12.1935L7.22841 12.0951C7.19959 12.0277 7.19467 11.9528 7.21442 11.8823C7.23417 11.8118 7.27747 11.7499 7.33737 11.7064L7.67961 11.5017L8.04297 11.577C8.03577 11.6904 8.10489 11.7751 8.10489 11.7751L7.72473 11.7036L7.49673 11.8579C7.45833 11.8843 7.45545 11.9332 7.47561 11.9784ZM10.7516 12.5431L10.635 13.1412C10.5601 13.1516 10.4814 13.1572 10.4007 13.16L10.5236 12.5859C10.5601 12.4146 10.0935 12.3615 9.86265 12.0259C9.74985 12.1502 9.53817 12.1873 9.32505 12.1873C9.13017 12.1873 8.93625 12.1568 8.81769 12.1337C8.78915 12.1288 8.76026 12.1262 8.73129 12.1257C8.66265 12.1257 8.60073 12.1464 8.55753 12.2175L8.52393 12.2739L7.88745 12.1266L7.72905 12.384C7.70697 12.4259 7.70505 12.4608 7.74105 12.4998L7.78425 12.5459C7.75449 12.6368 7.62201 12.7746 7.62201 12.7746L7.52745 12.6584C7.45257 12.5765 7.46505 12.4259 7.54281 12.2866L7.79529 11.8678L8.33433 11.9445L8.25081 11.7568C8.13801 11.5088 8.30985 11.1935 8.32809 11.0118C8.32185 11.0669 8.27049 11.0791 8.21097 11.0791C8.15625 11.0791 8.09577 11.0692 8.05545 11.0692C8.03961 11.0692 8.02569 11.0706 8.01849 11.0758L7.87257 11.1629L7.75737 11.0631C7.74345 11.0443 7.73913 10.9986 7.77273 10.9648L8.03961 10.6711L7.72473 10.3097L8.16537 10.5276L8.30025 10.3671C8.33721 10.4029 8.32089 10.4956 8.32089 10.4956C8.45865 10.4993 8.84505 10.7088 8.86521 11.1982C8.86665 11.2132 8.86665 11.2297 8.86665 11.2462L8.87673 11.2622C8.90409 11.2993 8.97945 11.3939 9.07497 11.4024L9.68457 11.4617H9.68697C9.75417 11.4617 9.88713 11.3845 10.0575 11.3845C10.1511 11.3845 10.2543 11.408 10.3647 11.4763C10.3647 11.4763 10.4204 11.433 10.5102 11.4283C10.5169 11.4273 10.5246 11.4273 10.5308 11.4273C10.8044 11.4273 10.9182 11.6702 11.0651 11.872C11.1754 12.0255 11.3228 12.2532 11.3228 12.2532C11.2686 12.3168 11.2177 12.352 11.1327 12.352C11.1063 12.3521 11.0799 12.3496 11.054 12.3445C10.7612 12.2913 10.7185 11.6998 10.5515 11.6528C10.5427 11.6505 10.5336 11.6494 10.5246 11.6495C10.4708 11.6495 10.4473 11.6965 10.4473 11.6965C10.5241 11.8984 10.479 11.9798 10.5615 12.1356C10.623 12.2509 10.7319 12.3455 10.7771 12.3906C10.7771 12.3906 10.765 12.4782 10.7516 12.5436V12.5431ZM10.1905 13.1643C10.1089 13.1643 10.0331 13.1652 9.96489 13.168L10.1435 12.6217C10.1713 12.5459 10.0302 12.4485 9.97209 12.3629C10.0599 12.4175 10.2879 12.537 10.3979 12.584C10.3266 12.7767 10.2575 12.9701 10.1905 13.1643ZM7.53513 8.24099L7.56057 7.29134L7.77753 7.06593L7.91385 7.3464L7.64505 8.25793L7.53465 8.24146L7.53513 8.24099ZM7.69113 8.53558C7.72408 8.59744 7.77394 8.64909 7.83513 8.68475C7.83345 8.77501 7.82463 8.86501 7.80873 8.95393C7.80393 8.97464 7.79913 8.99393 7.79289 9.01323C7.79001 9.02546 7.78617 9.03534 7.78377 9.04334C7.71705 9.04334 7.58697 9.03534 7.48089 8.99722C7.36281 8.95487 7.18665 8.74217 7.22745 8.50781C7.27833 8.47723 7.39641 8.41181 7.50729 8.41181C7.59225 8.41181 7.65033 8.45134 7.69113 8.53558ZM10.2044 8.79064C10.0379 8.91158 9.60777 9.21981 9.45177 9.32711L7.95033 9.0617L7.96089 9.02264C7.98009 8.94593 8.00073 8.84146 8.00169 8.71864L9.26361 8.7384L9.28761 8.71487C9.30681 8.69605 9.70665 8.31628 9.91017 8.0984C9.95865 8.15817 10.0191 8.21464 10.0988 8.26452C10.0719 8.4104 10.083 8.61652 10.2044 8.79064ZM8.16297 6.60758C8.34393 6.78358 8.52009 6.89322 8.68809 6.95346C8.66649 7.03817 8.63769 7.21417 8.71833 7.38875C8.78457 7.52993 8.90457 7.63817 9.07785 7.71064C9.09705 7.88475 9.20889 8.14687 9.51945 8.26264C9.38313 8.39723 9.25065 8.52428 9.19785 8.57511L7.93833 8.55581C7.89673 8.53631 7.86222 8.50478 7.83945 8.46546C7.83705 8.45934 7.83273 8.45605 7.82985 8.44946L8.03577 8.4824L8.04873 8.48287C8.06809 8.483 8.08687 8.47634 8.10166 8.46408C8.11645 8.45183 8.12628 8.43479 8.12937 8.41605C8.13284 8.39497 8.12768 8.3734 8.115 8.35603C8.10233 8.33867 8.08316 8.32692 8.06169 8.32334L7.80873 8.28381L8.08905 7.33275L7.82361 6.78358L7.39785 7.22593L7.37193 8.21464L7.08585 8.16993C7.04169 8.16146 6.99945 8.19346 6.99129 8.23723C6.9881 8.25841 6.99349 8.27998 7.00632 8.29731C7.01915 8.31463 7.0384 8.32635 7.05993 8.32993L7.17993 8.34781C7.13673 8.37181 7.10841 8.39111 7.10505 8.39346L7.08105 8.4104L7.07433 8.43958C7.00473 8.71723 7.16217 8.98075 7.33209 9.0984L7.32585 9.1337C7.31913 9.17605 7.32873 9.2184 7.35465 9.25275C7.3694 9.27362 7.38915 9.29063 7.41216 9.30228C7.43518 9.31393 7.46075 9.31987 7.48665 9.31958C7.52303 9.31929 7.55823 9.30695 7.58655 9.28456C7.61487 9.26218 7.63464 9.23107 7.64265 9.19628C7.70601 9.20334 7.76409 9.20523 7.80345 9.20523H7.83753L9.48921 9.4984L9.51753 9.48005C9.64905 9.3897 10.1511 9.03064 10.3153 8.91158C10.3609 8.9497 10.4113 8.98452 10.4722 9.01323C10.419 9.18875 10.4156 9.4584 10.6258 9.67205H6.41625V7.28617C6.41625 7.05464 6.34761 6.82217 6.26601 6.60758H8.16297ZM7.93545 3.00758L9.03417 3.37323V5.06828L8.22537 4.64946L7.93545 3.00711V3.00758ZM10.6158 2.80287C10.6158 2.38923 9.90681 2.01699 9.12441 2.01699H9.11961C8.33721 2.01699 7.62873 2.38923 7.62873 2.80287L7.64409 2.90452L7.95657 4.66593L7.64265 4.84475L6.83097 5.31064H6.83385C6.83385 5.31064 6.65145 5.40287 6.56649 5.45934C6.25737 5.67017 6.19161 5.97793 6.37113 6.10499C6.41529 5.85417 6.61737 5.59205 6.99513 5.59205C7.26777 5.59205 7.47513 5.7304 7.64313 5.93699C7.68633 5.98923 7.72713 6.04523 7.76505 6.10499C7.81209 6.18075 7.85961 6.24758 7.90617 6.31158H5.81433C5.96793 6.61511 6.11433 6.93652 6.11433 7.2857V11.8325C6.11433 12.9328 6.97593 13.4579 7.90809 13.4579C8.62857 13.4579 8.72553 13.4259 9.12297 13.8146C9.51849 13.4259 9.61593 13.4579 10.3369 13.4579C11.2695 13.4579 12.1297 12.9328 12.1297 11.8325V7.2857C12.1297 6.93652 12.2761 6.61511 12.4306 6.31158H10.3379C10.3849 6.24758 10.4319 6.18075 10.479 6.10499C10.5174 6.04523 10.5582 5.98923 10.6004 5.93699C10.7694 5.72946 10.9767 5.59205 11.2494 5.59205C11.6271 5.59205 11.8287 5.85417 11.8734 6.10499C12.0529 5.97793 11.9881 5.67017 11.6766 5.45934C11.594 5.40287 11.4106 5.31064 11.4106 5.31064H11.414L10.6004 4.84475L10.2884 4.66593L10.6004 2.90452L10.6158 2.80287Z" fill="#1A1919"/>
<path id="Vector_12" d="M24.0576 10.3812H25.4976V7.09645H27.4752V5.90116H22.08V7.09645H24.0576V10.3812ZM31.8432 5.90116L29.4432 8.50822V5.90116H28.0512V10.3812H29.28L31.68 7.7741V10.3812H33.072V5.90116H31.8432ZM35.5186 8.71528H37.7554V10.3812H39.1474V5.90116H37.7554V7.53881H35.5186V5.90116H34.1266V10.3812H35.5186V8.71528ZM43.0239 10.3812C43.3407 10.3812 43.6287 10.3529 43.8975 10.2776C44.6175 10.08 45.0879 9.50587 45.0879 8.72469C45.0879 7.98116 44.6847 7.46351 44.0415 7.22822C43.7343 7.11528 43.3695 7.10587 43.0239 7.10587H41.5935V5.90116H40.2015V10.3812H43.0239ZM41.5935 8.15998H42.7839C42.9759 8.15998 43.1583 8.15998 43.3215 8.21645C43.5519 8.29175 43.6863 8.47998 43.6863 8.70587C43.6863 8.94116 43.5519 9.13881 43.3311 9.23292C43.1775 9.29881 43.0239 9.29881 42.7839 9.29881H41.5935V8.15998ZM47.1999 8.68704H47.5839L49.2447 10.3812H51.0975L48.7839 8.04704L51.0111 5.90116H49.2639L47.5839 7.58587H47.1999V5.90116H45.8079V10.3812H47.1999V8.68704Z" fill="black"/>
<path id="Vector_13" d="M53.9615 5.77885C52.0895 5.77885 50.9663 6.81415 50.9663 8.15062C50.9663 9.48709 52.0895 10.5224 53.9615 10.5224C55.8239 10.5224 56.9471 9.48709 56.9471 8.15062C56.9471 6.81415 55.8239 5.77885 53.9615 5.77885ZM53.9615 9.43062C53.0303 9.43062 52.4351 8.88473 52.4351 8.15062C52.4351 7.4165 53.0303 6.88003 53.9615 6.88003C54.8831 6.88003 55.4879 7.4165 55.4879 8.15062C55.4879 8.88473 54.8831 9.43062 53.9615 9.43062ZM61.583 6.09885V5.64709H60.191V6.09885C58.4438 6.1365 57.3974 6.8612 57.3974 8.1412C57.3974 9.4212 58.4438 10.0894 60.191 10.1271V10.5789H61.583V10.1271C63.3398 10.0894 64.3862 9.4212 64.3862 8.1412C64.3862 6.8612 63.3398 6.1365 61.583 6.09885ZM60.191 9.16709C59.231 9.12944 58.8085 8.74356 58.8085 8.1412C58.8085 7.53885 59.231 7.10591 60.191 7.06826V9.16709ZM61.583 9.16709V7.06826C62.5526 7.10591 62.9653 7.53885 62.9653 8.1412C62.9653 8.74356 62.5526 9.12944 61.583 9.16709ZM69.0172 6.09885V5.64709H67.6252V6.09885C65.878 6.1365 64.8316 6.8612 64.8316 8.1412C64.8316 9.4212 65.878 10.0894 67.6252 10.1271V10.5789H69.0172V10.1271C70.774 10.0894 71.8204 9.4212 71.8204 8.1412C71.8204 6.8612 70.774 6.1365 69.0172 6.09885ZM67.6252 9.16709C66.6652 9.12944 66.2428 8.74356 66.2428 8.1412C66.2428 7.53885 66.6652 7.10591 67.6252 7.06826V9.16709ZM69.0172 9.16709V7.06826C69.9868 7.10591 70.3996 7.53885 70.3996 8.1412C70.3996 8.74356 69.9868 9.12944 69.0172 9.16709Z" fill="black"/>
</g>
<defs>
<clipPath id="clip0_277_919">
<rect width="72" height="16" fill="white"/>
</clipPath>
</defs>
</svg>
