<svg width="30" height="30" viewBox="0 0 30 30" fill="none" xmlns="http://www.w3.org/2000/svg">
<g id="logos-01-vk" clip-path="url(#clip0_277_36)">
<g id="vk">
<path id="Vector" d="M15 0C6.7 0 0 6.7 0 15C0 23.3 6.7 30 15 30C23.3 30 30 23.3 30 15C30 6.7 23.3 0 15 0ZM21.5 21.6C20.7 19.2 18.8 17.4 16.3 17.1V21.6H16C9.2 21.6 5.3 16.9 5.1 9.1H8.5C8.6 14.8 11.1 17.3 13.1 17.8V9.1H16.3V14C18.3 13.8 20.3 11.5 21 9.1H24.2C23.7 12.1 21.4 14.4 19.8 15.3C21.4 16.1 24 18 24.9 21.6H21.5Z" fill="white"/>
</g>
</g>
<defs>
<clipPath id="clip0_277_36">
<rect width="30" height="30" fill="white"/>
</clipPath>
</defs>
</svg>
