<svg width="20" height="20" viewBox="0 0 20 20" fill="none" xmlns="http://www.w3.org/2000/svg">
<g id="whatsapp" clip-path="url(#clip0_1_220)">
<path id="Vector" d="M12.8757 15.3757C12.5007 15.3757 12.0007 15.3757 11.6257 15.2507C9.25068 14.3757 7.87568 13.8757 5.37568 10.5007C3.87568 8.37565 3.75067 6.62565 5.12567 5.00065C5.62567 4.50065 6.25068 4.37565 6.87568 4.50065C7.12568 4.50065 7.62568 4.50065 7.87568 5.25065C8.00068 5.37565 8.12567 5.75065 8.25068 6.00065C8.62568 6.75065 8.75068 7.12565 8.75068 7.25065C8.87568 7.50065 8.87568 7.87565 8.75068 8.12565C8.50068 8.50065 8.25068 8.87565 8.00068 9.00065C8.00068 9.12565 7.87568 9.12565 7.87568 9.12565C8.25068 9.75065 8.75067 10.3757 9.25068 10.8757C9.87568 11.3757 10.5007 11.7507 11.2507 12.1257H11.3757V12.0007C11.5007 11.7507 11.8757 11.5007 12.0007 11.1257C12.5007 10.3757 12.8757 10.6257 14.7507 11.5007L15.0007 11.6257H15.1257C15.3757 11.7507 15.6257 11.8757 15.7507 12.1257V12.2507C15.8757 12.7507 15.7507 13.2507 15.6257 13.7507C15.1257 14.6257 14.3757 15.1257 13.5007 15.2507C13.2507 15.3757 13.1257 15.3757 12.8757 15.3757ZM6.50067 5.37565C6.25067 5.37565 6.00067 5.50065 5.87567 5.62565C4.75067 6.87565 4.87568 8.12565 6.12568 10.0007C8.50068 13.0007 9.75068 13.6257 12.0007 14.3757C12.5007 14.5007 13.0007 14.5007 13.5007 14.5007C14.1257 14.3757 14.6257 14.0007 15.0007 13.5007C15.1257 13.2507 15.1257 13.0007 15.1257 12.7507L14.5007 12.5007C13.7507 12.1257 13.2507 11.8757 13.0007 11.7507C12.7507 12.1257 12.5007 12.5007 12.2507 12.6257L12.1257 12.7507C11.8757 13.1257 11.5007 13.1257 11.0007 13.0007C10.0007 12.6257 9.25068 12.1257 8.62568 11.5007C8.00068 11.0007 7.50067 10.2507 7.12567 9.62565C6.75067 9.12565 7.12568 8.75065 7.37568 8.50065C7.50068 8.25065 7.62568 8.00065 7.87568 7.62565V7.50065V7.37565C7.87568 7.37565 7.62568 6.75065 7.37568 6.37565C7.25068 6.12565 7.12567 5.75065 7.00067 5.62565C7.00067 5.50065 6.87568 5.50065 6.87568 5.50065H6.62568C6.62568 5.37565 6.50067 5.37565 6.50067 5.37565Z" fill="#00171F"/>
<path id="Vector_2" d="M10 1.25C14.75 1.25 18.75 5.125 18.75 9.875C18.75 11.25 18.375 12.625 17.75 13.875C16.25 16.75 13.25 18.5 10 18.5C8.625 18.5 7.125 18.125 5.875 17.5L5.5 17.25L5 17.375L1.75 18.25L2.5 15.375L2.625 14.875L2.375 14.375C1.625 13 1.25 11.5 1.25 10C1.25 5.125 5.125 1.25 10 1.25ZM10 0C4.5 0 0 4.5 0 10C0 11.75 0.5 13.5 1.375 15L0 20L5.25 18.625C6.75 19.375 8.375 19.875 10 19.875C13.625 19.875 17 18 18.875 14.625C19.625 13.25 20 11.625 20 10C20 4.375 15.5 0 10 0Z" fill="#00171F"/>
</g>
<defs>
<clipPath id="clip0_1_220">
<rect width="20" height="20" fill="white"/>
</clipPath>
</defs>
</svg>
