<svg width="30" height="30" viewBox="0 0 30 30" fill="none" xmlns="http://www.w3.org/2000/svg">
<g id="logos-04-yt">
<g id="yt">
<path id="Vector" d="M28.2 8.30005C27.9 7.10005 27 6.20005 25.8 5.90005C23.6 5.30005 15 5.30005 15 5.30005C15 5.30005 6.39999 5.30005 4.29999 5.90005C3.09999 6.20005 2.09999 7.10005 1.79999 8.30005C1.29999 10.5 1.29999 15 1.29999 15C1.29999 15 1.29999 19.5001 1.89999 21.7001C2.19999 22.9001 3.09999 23.8 4.29999 24.1C6.39999 24.7 15 24.7001 15 24.7001C15 24.7001 23.6 24.7 25.7 24.1C26.9 23.8 27.8 22.8001 28.1 21.7001C28.7 19.5001 28.7 15 28.7 15C28.7 15 28.8 10.5 28.2 8.30005ZM12.2 19.1V10.9L19.4 15L12.2 19.1Z" fill="white"/>
</g>
</g>
</svg>
