<?xml version="1.0" encoding="utf-8"?><svg viewBox="0 0 800 800" xmlns="http://www.w3.org/2000/svg" xmlns:xlink="http://www.w3.org/1999/xlink"><style>:root>svg{display:none}:root>svg:target{display:block}</style><svg viewBox="0 0 12 12" id="arrow-dark" xmlns="http://www.w3.org/2000/svg"><path d="M11 6H1m10 0L6.472 1M11 6l-4.528 5"/></svg><svg viewBox="0 0 12 12" id="arrow-right" xmlns="http://www.w3.org/2000/svg"><path d="M11 6H1m10 0L6.472 1M11 6l-4.528 5"/></svg><svg viewBox="0 0 10 12" id="bread-arrow" xmlns="http://www.w3.org/2000/svg"><path fill-rule="evenodd" clip-rule="evenodd" d="M5.124.118a.455.455 0 00-.032.642L8.52 4.545H.455a.455.455 0 000 .91H8.52L5.09 9.24a.455.455 0 10.675.61l4.116-4.545a.455.455 0 000-.61L5.766.149a.455.455 0 00-.642-.031z"/></svg><svg viewBox="0 0 40 30" id="card" xmlns="http://www.w3.org/2000/svg"><path d="M38.166 9.182H34.23l-1.99-7.8A1.836 1.836 0 0030.01.057l-4.535 1.156a.572.572 0 10.282 1.108l4.535-1.156c.37-.094.747.13.841.499l.22.864L1.385 10.17l-.22-.864a.687.687 0 01.499-.84l20.614-5.257a.572.572 0 00-.282-1.108L1.38 7.357A1.836 1.836 0 00.057 9.588l4.227 16.578a1.838 1.838 0 002.231 1.324l.27-.07v.704c0 1.012.823 1.835 1.835 1.835h29.546A1.836 1.836 0 0040 28.123V11.016a1.836 1.836 0 00-1.834-1.834zm-31.38 17.06l-.553.14a.692.692 0 01-.841-.499L2.805 15.736l3.98-1.015v11.52zm0-15.226v2.525l-4.264 1.087-.854-3.35 5.522-1.41a1.826 1.826 0 00-.404 1.147zM33.05 9.182h-4.543l4.266-1.088.277 1.088zm-1.414-5.547l.854 3.351-8.61 2.196H9.886l21.75-5.547zm6.529 25.18H8.62a.692.692 0 01-.691-.69v-17.11c0-.38.31-.691.691-.691h29.546c.38 0 .69.31.69.691v17.108c0 .381-.31.691-.69.691z"/><path d="M22.762 23.252H10.308a.572.572 0 100 1.143h12.454a.572.572 0 100-1.143zm9.524-10.051c-.821 0-1.58.265-2.2.713a3.741 3.741 0 00-2.202-.713 3.767 3.767 0 00-3.763 3.763 3.767 3.767 0 003.763 3.763 3.74 3.74 0 002.202-.713c.62.448 1.38.713 2.2.713a3.767 3.767 0 003.763-3.763 3.767 3.767 0 00-3.763-3.763zm-3.758 3.941l.002.044a3.967 3.967 0 00.015.177c.07.668.313 1.296.71 1.832a2.623 2.623 0 01-3.992-2.232 2.623 2.623 0 013.993-2.23 3.71 3.71 0 00-.726 2.008l-.002.044a3.777 3.777 0 000 .357zm3.758 2.442a2.61 2.61 0 01-1.93-.852l-.018-.019a2.608 2.608 0 01-.672-1.75c0-.63.225-1.211.6-1.664.023-.03.048-.057.072-.085l.017-.019.065-.067.029-.03a2.61 2.61 0 011.837-.754 2.623 2.623 0 012.62 2.62 2.623 2.623 0 01-2.62 2.62zM14.38 13.573h-2.506a2.14 2.14 0 00-2.138 2.138v2.507a2.14 2.14 0 002.138 2.137h2.507a2.14 2.14 0 002.138-2.137V15.71a2.14 2.14 0 00-2.138-2.138zm.995 3.698h-1.219a.572.572 0 100 1.144h1.2a.996.996 0 01-.975.798h-2.507a.996.996 0 01-.975-.798h1.2a.572.572 0 000-1.144h-1.22v-.495h1.22a.571.571 0 100-1.143h-1.216a.995.995 0 01.991-.917h2.507c.522 0 .95.405.99.917h-1.215a.572.572 0 100 1.143h1.22v.495zm20.806 8.496h-19.9a.572.572 0 100 1.143h19.9a.572.572 0 000-1.143zm-23.544 0h-2.33a.572.572 0 000 1.143h2.33a.572.572 0 100-1.143z"/></svg><svg viewBox="0 0 23 20" id="cart" xmlns="http://www.w3.org/2000/svg"><g clip-path="url(#aea)"><path d="M22.575 7.405c0-.475-.271-.736-.742-.736-.684 0-1.367-.006-2.05 0a.36.36 0 01-.319-.149 478.03 478.03 0 00-2.144-2.708c-.925-1.17-1.856-2.333-2.78-3.503-.19-.244-.425-.368-.731-.285-.495.13-.642.683-.3 1.116 1.401 1.77 2.81 3.54 4.212 5.309.047.06.088.125.147.202H4.7c.047-.065.077-.113.112-.16.407-.517.819-1.028 1.225-1.544 1.002-1.26 1.997-2.524 3.005-3.783.147-.19.253-.386.2-.63-.059-.279-.23-.463-.506-.522-.29-.065-.513.053-.696.28C6.404 2.357 4.766 4.417 3.128 6.49c-.106.13-.206.178-.371.172-.624-.012-1.249.012-1.873-.012-.407-.006-.707.119-.884.505v3.022c.177.386.477.529.89.493.194-.018.394-.006.595-.006.023.09.047.16.064.226.807 2.838 1.609 5.67 2.416 8.51.123.439.33.593.777.593h13.096c.448 0 .648-.154.778-.6.707-2.482 1.408-4.964 2.115-7.44.123-.434.247-.861.371-1.295h.73c.49 0 .755-.261.755-.748-.006-.831-.006-1.669-.012-2.506zM17.45 18.658H5.125c-.748-2.648-1.502-5.303-2.262-7.975h16.849c-.754 2.666-1.509 5.315-2.262 7.975zm3.793-9.335H1.331V8.017h19.912v1.306z"/><path d="M6.368 12.981l.248 1.485c.13.778.253 1.562.394 2.34a.645.645 0 00.713.522c.33-.036.583-.327.583-.689-.005-.053-.011-.13-.023-.202-.206-1.259-.412-2.524-.625-3.782-.076-.452-.388-.707-.765-.648-.395.06-.607.398-.542.867l.017.107zm8.489 4.347c.371.065.69-.178.778-.606a.844.844 0 01.023-.13l.336-2.013c.106-.63.206-1.253.3-1.83.006-.397-.235-.694-.565-.742a.665.665 0 00-.73.505c-.018.071-.03.143-.042.22-.1.588-.194 1.182-.295 1.77a241.67 241.67 0 00-.33 2.013c-.064.421.154.742.525.813zm-3.557.006c.382-.006.653-.303.653-.736v-3.836c0-.452-.265-.755-.66-.755-.394 0-.665.303-.665.748v3.837c0 .44.277.748.671.742z"/></g><defs><clipPath id="aea"><path d="M0 0h22.581v20H0z"/></clipPath></defs></svg><svg viewBox="0 0 42 42" id="cash" xmlns="http://www.w3.org/2000/svg"><path d="M22.34 22.631c1.11 0 2.22-.422 3.066-1.266a4.3 4.3 0 001.27-3.063 4.3 4.3 0 00-1.27-3.062 4.345 4.345 0 00-6.132 0 4.3 4.3 0 00-1.27 3.062 4.3 4.3 0 001.27 3.063 4.325 4.325 0 003.066 1.266zM20.033 16a3.255 3.255 0 012.307-.953 3.255 3.255 0 013.262 3.255c0 .87-.34 1.688-.955 2.303a3.27 3.27 0 01-4.614 0 3.233 3.233 0 01-.955-2.303c0-.87.34-1.687.955-2.302zm6.3-2.806a.536.536 0 00.38-.157l2.716-2.712c.492-.49-.267-1.25-.758-.76l-2.717 2.712c-.32.319-.072.917.38.917zm1.393 1.614c.254.21.507.21.76 0l2.717-2.711c.491-.491-.268-1.251-.76-.76l-2.716 2.712a.536.536 0 000 .759z"/><path d="M39.118 30.732h-1.785l-.01-5.38a.537.537 0 00-.538-.536l-9.11-.002L39.51 12.998c.21-.254.21-.507 0-.76L28.413 1.158a.537.537 0 00-.76-.001l-4.406 4.401c-.492.491.267 1.251.759.76l4.027-4.022L38.37 12.618l-12.207 12.19H24.84l10.515-10.492c.21-.253.21-.507 0-.76a1.317 1.317 0 01-.39-.938c.001-.355.14-.688.39-.938.21-.254.21-.507 0-.76l-5.623-5.616a.537.537 0 00-.76 0 1.333 1.333 0 01-1.88 0 .537.537 0 00-.76 0L9.324 22.29c-.21.253-.21.507 0 .76a1.317 1.317 0 01.104 1.758H7.13l-.821-.82L21.988 8.332c.492-.49-.267-1.25-.759-.76L5.17 23.608c-.21.253-.21.507 0 .76l.44.44H3.538c-.271 0-.538.273-.537.538l.012 5.86c0 .296.24.536.537.536h1.785l.01 5.38a.538.538 0 00.537.536l18.042.009c.67 0 .732-1.078 0-1.078l-7.29-.002V31.8l11.734.003v4.787h-1.213c-.707 0-.707 1.077 0 1.077H39.13c.272 0 .538-.273.538-.538l-.012-5.86a.537.537 0 00-.537-.537zM14.3 25.885l10.735.002h1v4.787L14.3 30.67v-4.786zm21.959 4.791l-9.15-.002v-.94h9.148l.002.942zm-.008-3.852h-3.285c-.695 0-.695 1.074 0 1.074h3.287l.002.762h-9.147v-.762h3.511c.695 0 .695-1.074 0-1.074h-3.51v-.936l9.14.002.002.934zm-25.83-4.112L26.755 6.401a2.414 2.414 0 002.555 0l4.948 4.941a2.384 2.384 0 00-.366 1.276c0 .458.127.897.366 1.275L23.32 24.808h-4.848l.367-.366c.492-.49-.266-1.251-.758-.76l-1.131 1.126h-2.026l2.141-2.138c.492-.49-.267-1.25-.759-.76l-2.716 2.712a.534.534 0 00-.122.188l-2.825-.001a2.403 2.403 0 00-.223-2.097zm-6.338 7.022h7.344c.694 0 .694-1.074 0-1.074H4.08l-.002-.762h1.61c.694 0 .694-1.074 0-1.074H4.077l-.002-.942 9.15.002v.94H7.984c-.694 0-.694 1.074 0 1.074h5.243v2.773l-9.141-.003-.002-.934zm2.335 6.85l-.002-.934H9.7c.695 0 .695-1.074 0-1.074H6.413l-.001-.762h9.146v.762h-3.51c-.695 0-.695 1.074 0 1.074h3.51v.936l-9.14-.002zm9.14-3.844H6.41l-.002-.942 9.15.002v.94zm13.883 3.85v-.94h5.243c.694 0 .694-1.074 0-1.074H29.44v-2.772l9.14.002.003.934H31.24c-.694 0-.694 1.074 0 1.074h7.346l.001.762h-1.61c-.694 0-.694 1.074 0 1.074h1.612l.002.942-9.15-.002z"/></svg><svg viewBox="0 0 6 4" id="check-black" xmlns="http://www.w3.org/2000/svg"><path d="M1 1l2 2 2-2"/></svg><svg viewBox="0 0 6 4" id="check-white" xmlns="http://www.w3.org/2000/svg"><path d="M1 1l2 2 2-2"/></svg><svg viewBox="0 0 40 38" id="credit" xmlns="http://www.w3.org/2000/svg"><path d="M36.002 19.81A16.385 16.385 0 0028.64 7.277a9.175 9.175 0 00-17.953-.006A16.391 16.391 0 003.336 19.66h-1.37C.88 19.66 0 20.54 0 21.625v11.142c0 1.086.88 1.966 1.966 1.966h8.828a16.305 16.305 0 0016.358.798 9.151 9.151 0 0012.171-8.662 9.215 9.215 0 00-3.321-7.06zM19.662 1.307a7.865 7.865 0 11-7.865 7.865 7.873 7.873 0 017.865-7.865zM1.31 21.625c0-.362.293-.655.655-.655h13.108c.362 0 .655.293.655.655v1.966H1.311v-1.966zm0 3.277h3.932v3.277H1.311v-3.277zm5.243 0h3.932v3.277H6.554v-3.277zm9.175 0v3.277h-3.932v-3.277h3.932zm-5.243 4.588v3.932H6.554V29.49h3.932zm1.311 0h3.932v3.277a.655.655 0 01-.655.655h-3.277V29.49zM1.311 32.767V29.49h3.932v3.932H1.966a.655.655 0 01-.655-.655zm12.223 1.966h1.54c1.086 0 1.966-.88 1.966-1.966V21.625c0-1.085-.88-1.966-1.966-1.966H4.649a15.081 15.081 0 015.845-10.643c0 .053-.008.104-.008.157a9.175 9.175 0 0018.351 0c0-.051-.006-.101-.008-.152a15.078 15.078 0 015.75 9.819 9.163 9.163 0 00-12.393 12.57 9.242 9.242 0 003.33 3.365c.016.012.027.03.044.04.007.004.015.005.023.009a14.976 14.976 0 01-12.05-.09zm21.097-1.41l-.31-.539a.655.655 0 00-1.136.655l.31.536a7.792 7.792 0 01-2.692.725v-.622a.655.655 0 10-1.31 0v.622a7.79 7.79 0 01-2.691-.721l.309-.536a.656.656 0 10-1.135-.656l-.311.538a7.93 7.93 0 01-1.97-1.97l.537-.311a.655.655 0 10-.655-1.135l-.536.31a7.793 7.793 0 01-.724-2.695h.622a.655.655 0 000-1.31h-.622c.076-.934.32-1.845.72-2.692l.537.31a.655.655 0 00.655-1.136l-.538-.31a7.931 7.931 0 011.97-1.971l.311.538a.655.655 0 101.136-.655l-.31-.537a7.791 7.791 0 012.695-.724v.622a.655.655 0 001.31 0v-.622a7.792 7.792 0 012.691.724l-.31.537a.656.656 0 101.136.655l.31-.538a7.93 7.93 0 011.971 1.97l-.538.311a.655.655 0 10.656 1.135l.536-.309c.401.846.646 1.758.724 2.691h-.622a.655.655 0 000 1.31h.622a7.797 7.797 0 01-.72 2.692l-.537-.31a.655.655 0 00-.655 1.136l.538.31a7.931 7.931 0 01-1.974 1.971z"/><path d="M30.804 26.686V22.28a.655.655 0 10-1.31 0v4.588c0 .119.032.236.093.338l1.966 3.277a.655.655 0 001.123-.675l-1.872-3.122zM17.12 13.568c0 .403.325.73.726.73a.728.728 0 00.727-.73v-1.094h2.178a.728.728 0 00.726-.73.728.728 0 00-.726-.73h-2.178V9.92h2.178a2.915 2.915 0 002.904-2.918 2.915 2.915 0 00-2.904-2.919h-2.905a.728.728 0 00-.726.73v6.202h-.726a.728.728 0 00-.726.73c0 .402.325.729.726.729h.726v1.094zm5.083-6.566c0 .804-.651 1.459-1.452 1.459h-2.178V5.542h2.178c.8 0 1.452.655 1.452 1.46z"/></svg><svg viewBox="0 0 38 27" id="credit-card" xmlns="http://www.w3.org/2000/svg"><path d="M2.84 0h4.72a.554.554 0 010 1.109H2.84c-.954 0-1.731.777-1.731 1.731v1.062h35.115V2.84c0-.954-.776-1.731-1.731-1.731H9.777a.554.554 0 110-1.109h24.716a2.843 2.843 0 012.84 2.84v13.917a.554.554 0 11-1.108 0V10.79H1.108v12.395c0 .954.777 1.731 1.731 1.731h31.653c.955 0 1.731-.777 1.731-1.732v-4.21a.554.554 0 111.11 0v4.21a2.844 2.844 0 01-2.841 2.841H2.84A2.844 2.844 0 010 23.186V2.84A2.844 2.844 0 012.84 0zm33.384 9.682V5.011H1.11v4.671h35.115z"/><path d="M12.937 19.302a3.666 3.666 0 01-3.661 3.661 3.64 3.64 0 01-1.554-.347 3.639 3.639 0 01-1.553.347 3.665 3.665 0 01-3.661-3.661 3.665 3.665 0 013.66-3.661 3.64 3.64 0 011.554.346 3.642 3.642 0 011.554-.346 3.665 3.665 0 013.661 3.66zm-4.216 0c0-.823-.392-1.556-.999-2.023a2.549 2.549 0 000 4.046c.607-.467 1-1.2 1-2.023zm-5.104 0a2.555 2.555 0 003 2.512 3.647 3.647 0 01-1.002-2.512 3.65 3.65 0 011.001-2.513 2.555 2.555 0 00-3 2.512zm5.659-2.553c-.153 0-.302.015-.448.04a3.646 3.646 0 010 5.025 2.555 2.555 0 003-2.512 2.555 2.555 0 00-2.552-2.553zm24.554-2.762h-4.047a.554.554 0 110-1.11h4.046a.554.554 0 110 1.11zm-16.57 0a.554.554 0 110-1.11h4.046a.555.555 0 010 1.11h-4.047zm6.261 0a.554.554 0 110-1.11h4.046a.555.555 0 010 1.11h-4.046zm-12.523-1.109h4.046a.554.554 0 010 1.109h-4.046a.554.554 0 110-1.11zm22.832 6.439H21.143a.555.555 0 010-1.109H33.83a.554.554 0 110 1.11zm0 2.602h-7.34a.555.555 0 010-1.11h7.34a.554.554 0 110 1.11z"/></svg><svg viewBox="0 0 41 41" id="credit-card2" xmlns="http://www.w3.org/2000/svg"><path d="M33.084 26.92h-4.05v1.351h4.05v-1.35zm-5.401 0h-4.051v1.351h4.05v-1.35zm-5.403 0h-4.05v1.351h4.05v-1.35z"/><path d="M39.827 13.96L26.467.597A2.017 2.017 0 0025.032 0h-.007c-.535 0-1.048.216-1.423.598L9.43 14.768H2.026A2.025 2.025 0 000 16.793v18.905c0 1.119.907 2.026 2.026 2.026h10.003l2.015 2.016c.379.383.896.598 1.435.598h.006c.535 0 1.049-.216 1.424-.598l2.019-2.017h15.506a2.026 2.026 0 002.026-2.025V20.192l3.363-3.364a2.018 2.018 0 00.003-2.869zm-8.59-6.68l-7.487 7.487h-5.734L28.371 4.414l2.867 2.867zm-6.68-5.73a.666.666 0 01.953 0l1.906 1.908-11.31 11.31H11.34L24.558 1.55zm-8.604 37.238a.657.657 0 01-.473.203.675.675 0 01-.48-.203l-1.061-1.064h3.08l-1.066 1.064zm19.156-3.09a.675.675 0 01-.675.675H2.026a.675.675 0 01-.676-.675v-9.453h33.76v9.453zm0-10.803H1.35v-4.05h33.76v4.05zm0-5.401H1.35v-2.701c0-.373.303-.675.676-.675h32.408c.373 0 .675.302.675.675v2.7zm3.763-3.624l-2.413 2.412v-1.489a2.025 2.025 0 00-2.025-2.025h-8.777l6.533-6.534 6.68 6.68a.678.678 0 01.202.483.662.662 0 01-.2.473z"/><path d="M6.476 35.04c.099-.085.191-.177.276-.276a2.677 2.677 0 003.554.458 2.745 2.745 0 001.173-2.225 2.7 2.7 0 00-2.701-2.7 2.052 2.052 0 00-.4.033l-.017.005h-.02a2.666 2.666 0 00-1.589.896 2.7 2.7 0 10-.276 3.81zm2.131-3.38a.822.822 0 01.17-.014 1.35 1.35 0 011.351 1.35c0 .286-.094.564-.265.793-.024.033-.043.067-.071.102l-.017.014a1.345 1.345 0 01-.997.442 1.35 1.35 0 01-.171-2.686zm-3.88-.014a1.35 1.35 0 110 2.701 1.35 1.35 0 010-2.7z"/></svg><svg viewBox="0 0 30 30" id="fb" xmlns="http://www.w3.org/2000/svg"><g clip-path="url(#ala)"><path d="M30 15c0-8.3-6.7-15-15-15S0 6.7 0 15c0 7.5 5.5 13.7 12.7 14.8V19.3H8.8V15h3.8v-3.3c0-3.8 2.2-5.8 5.7-5.8 1.6 0 3.4.3 3.4.3v3.7h-1.9c-1.9 0-2.4 1.2-2.4 2.3V15h4.2l-.7 4.3h-3.5v10.5C24.5 28.7 30 22.5 30 15z"/></g><defs><clipPath id="ala"><path d="M0 0h30v30H0z"/></clipPath></defs></svg><svg viewBox="0 0 54 10" id="halva" xmlns="http://www.w3.org/2000/svg"><g clip-path="url(#ama)"><path d="M15.876 7.423a2.401 2.401 0 01-1.341-.405 2.436 2.436 0 01-.372-3.73 2.393 2.393 0 012.628-.528c.44.183.817.494 1.082.892a2.435 2.435 0 01-.297 3.06 2.402 2.402 0 01-1.7.711zm0-7.423a4.951 4.951 0 00-2.394.611 4.983 4.983 0 00-1.807 1.695 5.025 5.025 0 00-.699 3.61A4.993 4.993 0 0012.92 9.03a4.941 4.941 0 004.745.632 4.974 4.974 0 002.008-1.446c-.329.614-.804 1.129-1.354 1.452v.258h2.517V4.974a5.01 5.01 0 00-1.46-3.515A4.956 4.956 0 0015.876 0zm23.867 7.472h-3.274V5.85h3.212c.401 0 .87.38.87.811 0 .313-.244.812-.808.812v-.001zm-3.274-4.94l2.75-.002c.298 0 .79.31.79.805 0 .395-.319.82-.873.82H36.47V2.531v.001zm5.51 2.169c.597-.913.652-2.16.107-3.093A3.09 3.09 0 0040.97.496a3.069 3.069 0 00-1.516-.414h-5.502v9.843l6.155-.004c1.931 0 3.009-1.603 3.009-2.947 0-1.294-.732-1.943-1.137-2.274v.001zm-10.516-.992c.826 2.241.868 4.274.868 6.216h-2.555c0-1.575-.055-3.01-.383-4.307-.44-1.739-1.258-3.003-2.019-3.003-.76 0-1.58 1.264-2.02 3.003-.327 1.297-.382 2.695-.382 4.307h-2.555c0-1.767.042-3.975.868-6.216C24.055 1.621 25.494 0 27.375 0c1.88 0 3.318 1.621 4.088 3.709zM7.365.081h2.556v1.037a5.019 5.019 0 01-1.839 3.885A5.019 5.019 0 019.921 8.89v1.037H7.365V8.629a2.432 2.432 0 00-.704-1.71 2.398 2.398 0 00-1.7-.708 2.4 2.4 0 00-1.7.708 2.414 2.414 0 00-.705 1.71v1.296H0V8.888c0-.744.164-1.48.483-2.152A4.993 4.993 0 011.84 5.003 4.992 4.992 0 010 1.118V.081h2.556v1.296c0 .641.253 1.256.704 1.71a2.398 2.398 0 001.7.709 2.415 2.415 0 002.405-2.419V.082zM49.04 7.423a2.407 2.407 0 01-2.406-2.18 2.437 2.437 0 01.694-1.955 2.415 2.415 0 011.94-.7 2.402 2.402 0 011.77 1.065 2.436 2.436 0 01-.296 3.059 2.402 2.402 0 01-1.702.711zM54 4.974a5.014 5.014 0 00-1.18-3.202A4.947 4.947 0 0046.53.686a4.99 4.99 0 00-2.174 2.622 5.023 5.023 0 00.009 3.414 4.99 4.99 0 002.187 2.612 4.947 4.947 0 006.285-1.119c-.328.614-.803 1.129-1.354 1.452v.258H54V4.974z"/></g><defs><clipPath id="ama"><path d="M0 0h54v10H0z"/></clipPath></defs></svg><svg viewBox="0 0 34 34" id="home" xmlns="http://www.w3.org/2000/svg"><path d="M2.003 16.822C.897 16.822 0 15.967 0 14.913c0-.526.228-1.029.63-1.39L15.127.52a2.075 2.075 0 012.746 0L32.37 13.523c.805.723.844 1.93.086 2.698a2.05 2.05 0 01-1.459.6h-.479v13.362c0 2.108-1.793 3.817-4.005 3.817h-4.01a3 3 0 01-3-3v-6.543c0-1.013-.829-1.848-1.854-1.905l-.148-.004H15.5c-1.062 0-1.938.79-1.998 1.768l-.005.14V31a3 3 0 01-3 3h-4.01c-2.211 0-4.004-1.71-4.004-3.817V16.822h-.48zm21.104 15.27h3.406c1.106 0 2.003-.855 2.003-1.91V15.114c0-.11.09-.2.2-.2h1.759a.2.2 0 00.133-.349L17.168 2.508a1 1 0 00-1.336 0L2.392 14.564a.2.2 0 00.133.35h1.76a.2.2 0 01.2.2v15.069c0 1.054.896 1.908 2.002 1.908h3.406a1.6 1.6 0 001.6-1.6V24.43l.007-.196c.123-2.013 1.874-3.594 3.999-3.594h2.031l.206.007c2.112.116 3.77 1.786 3.77 3.81v6.035a1.6 1.6 0 001.6 1.6z"/></svg><svg viewBox="0 0 502.664 502.664" id="icon" xmlns="http://www.w3.org/2000/svg"><path d="M153.821 358.226L0 274.337v-46.463l153.821-83.414v54.574L46.636 250.523l107.185 53.431v54.272zm26.273 29.358L282.103 115.08h32.227L212.084 387.584h-31.99zm168.749-29.358v-54.272l107.164-52.999-107.164-52.59v-53.927l153.821 83.522v46.183l-153.821 84.083z"/></svg><svg viewBox="0 0 30 30" id="ins" xmlns="http://www.w3.org/2000/svg"><g clip-path="url(#apa)"><path d="M15 2.9c3.9 0 4.4 0 6 .1 1.4.1 2.2.3 2.7.5.7.3 1.2.6 1.7 1.1.5.5.8 1 1.1 1.7.2.5.4 1.3.5 2.7.1 1.6.1 2 .1 6s0 4.4-.1 6c-.1 1.4-.3 2.2-.5 2.7-.3.7-.6 1.2-1.1 1.7-.5.5-1 .8-1.7 1.1-.5.2-1.3.4-2.7.5-1.6.1-2 .1-6 .1s-4.4 0-6-.1c-1.4-.1-2.2-.3-2.7-.5-.7-.3-1.2-.6-1.7-1.1-.5-.5-.8-1-1.1-1.7-.2-.5-.4-1.3-.5-2.7-.1-1.6-.1-2-.1-6s0-4.4.1-6c.1-1.4.3-2.2.5-2.7.3-.7.6-1.2 1.1-1.7.5-.5 1-.8 1.7-1.1.5-.2 1.3-.4 2.7-.5 1.6-.1 2.1-.1 6-.1zm0-2.7c-4 0-4.5 0-6.1.1-1.6.1-2.6.3-3.6.7-1 .4-1.8.9-2.6 1.7-.8.8-1.3 1.7-1.7 2.6-.4.9-.6 2-.7 3.6C.3 10.5.2 11 .2 15c0 4 0 4.5.1 6.1.1 1.6.3 2.6.7 3.6.4 1 .9 1.8 1.7 2.6.8.8 1.6 1.3 2.6 1.7.9.4 2 .6 3.6.7 1.6.1 2.1.1 6.1.1 4 0 4.5 0 6.1-.1 1.6-.1 2.6-.3 3.6-.7 1-.4 1.8-.9 2.6-1.7.8-.8 1.3-1.6 1.7-2.6.4-.9.6-2 .7-3.6.1-1.6.1-2.1.1-6.1 0-4 0-4.5-.1-6.1-.1-1.6-.3-2.6-.7-3.6-.4-1-.9-1.8-1.7-2.6-.8-.8-1.6-1.3-2.6-1.7-.9-.4-2-.6-3.6-.7C19.5.3 19 .2 15 .2z"/><path d="M15 7.4c-4.2 0-7.6 3.4-7.6 7.6 0 4.2 3.4 7.6 7.6 7.6 4.2 0 7.6-3.4 7.6-7.6 0-4.2-3.4-7.6-7.6-7.6zm0 12.5c-2.7 0-4.9-2.2-4.9-4.9s2.2-4.9 4.9-4.9 4.9 2.2 4.9 4.9-2.2 4.9-4.9 4.9zm7.9-11a1.8 1.8 0 100-3.6 1.8 1.8 0 000 3.6z"/></g><defs><clipPath id="apa"><path d="M0 0h30v30H0z"/></clipPath></defs></svg><svg viewBox="0 0 109 30" id="logo" xmlns="http://www.w3.org/2000/svg"><g clip-path="url(#aqa)"><path d="M45.396 5.88a.944.944 0 01.19.01c.074.008.14.042.191.096a.31.31 0 01.097.187.99.99 0 01.01.208v8.085h.714v-8.02c0-.104-.008-.208-.021-.312a1.28 1.28 0 00-.075-.315.954.954 0 00-.189-.294.808.808 0 00-.25-.183.952.952 0 00-.265-.078 1.81 1.81 0 00-.261-.016h-5.184a1.747 1.747 0 00-.259.016.93.93 0 00-.268.078.793.793 0 00-.25.183.926.926 0 00-.188.294c-.04.101-.066.207-.078.315-.01.104-.015.208-.013.313v8.019h.715V6.38c-.003-.07 0-.14.008-.208a.332.332 0 01.097-.187.325.325 0 01.192-.097.94.94 0 01.19-.008h4.897zm1.725 8.586h.766l3.474-8.39c.015-.043.033-.085.05-.132a.314.314 0 01.08-.119.238.238 0 01.294 0 .326.326 0 01.078.12c.018.046.036.088.05.13l3.479 8.39h.763l-3.583-8.518a2.2 2.2 0 00-.285-.519.743.743 0 00-.303-.238 1.172 1.172 0 00-.694 0 .748.748 0 00-.302.238 2.152 2.152 0 00-.285.519l-3.582 8.519z"/><path d="M56.152 14.466h.764l1.118-2.686h5.346l1.12 2.686h.764l-3.53-8.348a3.212 3.212 0 00-.238-.477 1.227 1.227 0 00-.324-.357.773.773 0 00-.466-.144.79.79 0 00-.464.14 1.19 1.19 0 00-.325.358 3.107 3.107 0 00-.239.476l-3.526 8.352zm4.17-8.139l.091-.219a.991.991 0 01.128-.212.185.185 0 01.325 0c.05.066.093.137.126.212.036.081.067.154.093.22l2.014 4.819h-4.788l2.015-4.82h-.005zm12.698 8.139v-.633h-3.573a4.05 4.05 0 01-1.001-.12 2.94 2.94 0 01-.735-.284 2.428 2.428 0 01-.82-.722 2.797 2.797 0 01-.403-.833 4.756 4.756 0 01-.162-.915 10.626 10.626 0 01-.035-.953c0-.347.008-.702.037-1.066.027-.36.09-.716.19-1.063.093-.334.249-.648.458-.925.178-.231.395-.429.642-.584.225-.14.469-.247.723-.32.232-.067.469-.113.709-.136a5.64 5.64 0 01.595-.027h3.226v-.637h-3.526a4.38 4.38 0 00-1.09.13 3.672 3.672 0 00-1.397.675 3.14 3.14 0 00-.347.315 3.042 3.042 0 00-.53.794 4.25 4.25 0 00-.3.906 6.764 6.764 0 00-.129.961c-.02.325-.03.646-.028.953-.005.47.025.94.09 1.407.054.39.162.771.32 1.133.15.334.358.637.617.896a3.333 3.333 0 00.966.675c.25.114.511.201.78.26.33.072.667.108 1.005.107l3.718.005zm4.83-.001V5.881h3.859v-.633H73.28v.633h3.858v8.584h.712zm12.26.001V6.29a1.86 1.86 0 00-.008-.211 1.638 1.638 0 00-.042-.293 1.056 1.056 0 00-.126-.305.648.648 0 00-.232-.238.737.737 0 00-.386-.097.893.893 0 00-.476.12 1.22 1.22 0 00-.344.339 9.284 9.284 0 00-.334.512l-4.674 7.439a1.65 1.65 0 00-.068.11.657.657 0 01-.079.105.159.159 0 01-.177.035.141.141 0 01-.056-.049.311.311 0 01-.03-.149V5.25h-.715v8.256c0 .105.006.21.018.315.014.123.046.244.094.358a.67.67 0 00.239.282.75.75 0 00.432.12.883.883 0 00.462-.12c.124-.076.232-.176.317-.294.09-.12.175-.253.26-.39l4.754-7.493c.03-.055.064-.112.1-.17a.835.835 0 01.113-.148.168.168 0 01.119-.064.102.102 0 01.092.053c.02.036.032.077.034.119a.486.486 0 010 .096v8.309l.713-.012zm1.85-.001h.716V5.248h-.715v9.217zm7.716 0l-5.102-3.923c-.099-.075-.2-.156-.307-.239a1.748 1.748 0 01-.263-.271.495.495 0 01-.12-.288.408.408 0 01.067-.204c.046-.068.1-.13.16-.186a2.41 2.41 0 01.19-.16l.164-.12 4.713-3.819h-1.023l-4.318 3.469a2.72 2.72 0 00-.305.283 1.61 1.61 0 00-.25.347.796.796 0 00-.102.37.88.88 0 00.102.388c.076.145.17.279.281.399.129.141.27.27.423.386l4.622 3.573 1.068-.005z"/><path d="M99.405 14.466h.763l1.119-2.686h5.346l1.12 2.686h.763l-3.528-8.348a3.518 3.518 0 00-.238-.477 1.259 1.259 0 00-.326-.357.771.771 0 00-.465-.144.794.794 0 00-.465.14 1.21 1.21 0 00-.325.358 3.156 3.156 0 00-.238.476l-3.529 8.348.003.004zm4.169-8.139c.026-.065.057-.138.092-.219.034-.075.077-.146.127-.212a.187.187 0 01.325 0 1.1 1.1 0 01.128.212c.034.081.065.154.091.22l2.015 4.819h-4.788l2.015-4.82h-.005zM43.048 18.89c-.238 0-.486 0-.754.02a5.327 5.327 0 00-.808.112 3.58 3.58 0 00-.8.272c-.264.13-.505.302-.714.509a2.95 2.95 0 00-.557.793 4.036 4.036 0 00-.297.89c-.06.297-.1.596-.12.898-.016.292-.023.56-.021.806 0 .247 0 .515.021.808.02.3.06.6.12.894.064.309.164.609.297.894.14.293.329.56.557.792.208.207.45.378.714.506.255.124.523.216.8.276.266.056.537.093.809.11.267.016.518.023.753.022.236-.002.489 0 .756-.023.272-.017.543-.053.81-.11.277-.06.544-.152.798-.275a2.62 2.62 0 00.715-.506 2.88 2.88 0 00.556-.792c.135-.285.235-.585.299-.894.06-.295.1-.593.119-.894.015-.293.024-.561.021-.808-.002-.246 0-.514-.021-.806a6.527 6.527 0 00-.12-.897 3.986 3.986 0 00-.298-.891 2.707 2.707 0 00-1.271-1.302 3.569 3.569 0 00-.797-.272 5.436 5.436 0 00-.811-.112 10.392 10.392 0 00-.756-.02zm-3.375 4.3c0-.244 0-.496.014-.756.012-.26.04-.519.085-.776.044-.253.117-.5.215-.738.1-.237.237-.456.406-.648.172-.192.378-.35.608-.467.218-.11.45-.19.688-.238.233-.048.47-.078.707-.088.232-.01.45-.015.652-.012.203.002.421 0 .653.012.238.01.475.04.708.088.24.049.471.129.69.238.228.117.433.275.605.467.17.192.307.41.406.648.099.237.171.485.217.738.044.257.071.516.083.776.012.26.017.512.014.756-.002.245-.007.497-.014.758a6.47 6.47 0 01-.083.774 3.532 3.532 0 01-.217.739 2.31 2.31 0 01-.406.649c-.172.19-.377.348-.605.465-.218.11-.45.19-.69.238-.233.048-.47.078-.708.09-.232.009-.448.012-.653.011-.204-.001-.42 0-.652-.012a4.564 4.564 0 01-.707-.09 2.671 2.671 0 01-.688-.238 2.116 2.116 0 01-.608-.464 2.369 2.369 0 01-.406-.65 3.537 3.537 0 01-.215-.738 6.25 6.25 0 01-.085-.774 18.25 18.25 0 01-.014-.758zm8.89 4.207h.649v-8.41h-.65v8.41zm7.04 0l-4.646-3.573a8.603 8.603 0 01-.28-.223 1.565 1.565 0 01-.238-.248.46.46 0 01-.104-.263.375.375 0 01.06-.186.95.95 0 01.146-.17c.058-.054.12-.102.174-.146l.149-.11 4.3-3.485h-.937l-3.947 3.163c-.1.078-.192.165-.277.258-.09.095-.167.201-.23.316a.753.753 0 00-.093.338.81.81 0 00.094.358c.069.132.155.255.256.364.116.13.244.25.382.358l4.217 3.25h.973z"/><path d="M59.44 18.89c-.238 0-.486 0-.754.02a5.327 5.327 0 00-.809.112c-.276.058-.544.15-.8.272a2.74 2.74 0 00-.714.508 2.94 2.94 0 00-.556.793 4.046 4.046 0 00-.298.891c-.06.296-.1.596-.119.897a14.207 14.207 0 000 1.614c.02.301.059.6.12.895.063.308.163.608.297.893.14.293.328.561.556.793.209.207.45.378.715.506.254.124.523.216.8.275.266.057.536.093.808.11.268.016.518.023.754.022.236-.001.488 0 .755-.022a5.7 5.7 0 00.812-.11c.275-.06.543-.152.796-.275.265-.128.507-.299.715-.506a2.88 2.88 0 00.556-.793 3.98 3.98 0 00.297-.89c.06-.295.1-.593.12-.894.015-.293.023-.561.02-.808-.002-.246 0-.514-.02-.806a6.72 6.72 0 00-.12-.897 3.984 3.984 0 00-.299-.891 2.708 2.708 0 00-1.271-1.302 3.579 3.579 0 00-.797-.272 5.435 5.435 0 00-.811-.111 10.394 10.394 0 00-.755-.02l.002-.004zm-3.376 4.3c0-.244 0-.497.014-.757.013-.26.04-.519.085-.775.045-.253.117-.501.216-.739.099-.236.236-.455.406-.648.172-.192.378-.35.607-.466.218-.11.45-.19.689-.239.233-.047.469-.077.706-.088.233-.01.45-.014.653-.012.203.003.42 0 .653.012.238.011.474.04.707.088.24.05.472.13.69.239.229.117.434.275.605.466.17.192.308.411.406.648.1.238.172.486.217.739.044.256.072.515.084.775.011.26.016.512.014.757-.003.244-.007.497-.014.757-.012.26-.04.519-.084.775a3.538 3.538 0 01-.217.738 2.313 2.313 0 01-.406.65 2.12 2.12 0 01-.605.464c-.218.11-.45.19-.69.238-.233.048-.47.078-.707.09-.233.01-.448.013-.653.011-.205 0-.42 0-.653-.011a4.576 4.576 0 01-.706-.09 2.67 2.67 0 01-.689-.238 2.096 2.096 0 01-.607-.465 2.369 2.369 0 01-.406-.649 3.537 3.537 0 01-.216-.738 6.269 6.269 0 01-.084-.775 18.43 18.43 0 01-.015-.757zM71.7 18.985h-.648v3.846h-5.454v-3.846h-.649v8.41h.65v-3.988h5.453v3.988h.649v-8.41zM0 0h19.672a10.363 10.363 0 0110.346 10.345v12.373h-7.282V10.345a3.08 3.08 0 00-3.064-3.062H0V0z"/><path d="M30.018 30H10.3A10.372 10.372 0 010 20.615V7.283h7.238v12.372a3.083 3.083 0 003.063 3.064h19.717V30z"/></g><defs><clipPath id="aqa"><path d="M0 0h108.517v30H0z"/></clipPath></defs></svg><svg viewBox="0 0 22 14" id="mc" xmlns="http://www.w3.org/2000/svg"><path d="M13.974 1.497H8.026v11.006h5.948V1.497z"/><path d="M8.403 7c0-2.236 1.02-4.22 2.588-5.503A6.635 6.635 0 006.798 0C3.04 0 0 3.13 0 7s3.04 7 6.798 7a6.64 6.64 0 004.193-1.497C9.423 11.239 8.403 9.236 8.403 7zM22 7c0 3.87-3.04 7-6.798 7a6.635 6.635 0 01-4.193-1.497c1.587-1.284 2.588-3.267 2.588-5.503s-1.02-4.22-2.588-5.503A6.635 6.635 0 0115.202 0C18.96 0 22 3.15 22 7z"/></svg><svg viewBox="0 0 36 10" id="mir" xmlns="http://www.w3.org/2000/svg"><g fill-rule="evenodd" clip-rule="evenodd"><path d="M3.329.002C3.651 0 4.606-.088 5.011 1.304c.273.937.708 2.472 1.304 4.606h.242a929.86 929.86 0 011.318-4.606C8.285-.102 9.307.002 9.715.002h3.157V10H9.655V4.108H9.44L7.646 10h-2.42L3.433 4.103h-.216V10H0V.002h3.329zm14.163 0v5.896h.256L19.93 1.05C20.353.085 21.256.002 21.256.002h3.113V10h-3.285V4.103h-.256l-2.139 4.85C18.266 9.912 17.32 10 17.32 10h-3.113V.002h3.285zM35.72 4.753c-.458 1.322-1.897 2.269-3.49 2.269h-3.444V10h-3.123V4.753H35.72zM32.381.002H25.5c.163 2.226 2.046 4.131 3.994 4.131h6.443c.372-1.85-.908-4.131-3.556-4.131z"/></g><defs><linearGradient id="asa" x1="36" y1="2.601" x2="25.5" y2="2.601" gradientUnits="userSpaceOnUse"><stop stop-color="#1F5CD7"/><stop offset="1" stop-color="#02AEFF"/></linearGradient></defs></svg><svg viewBox="0 0 10 10" id="pin" xmlns="http://www.w3.org/2000/svg"><path d="M5 0a3.626 3.626 0 00-3.62 3.622c0 2.478 3.24 6.116 3.379 6.27.13.144.356.144.485 0 .138-.154 3.38-3.792 3.38-6.27A3.626 3.626 0 005 0zm0 5.444a1.824 1.824 0 01-1.822-1.822c0-1.005.818-1.823 1.823-1.823 1.004 0 1.822.818 1.822 1.823A1.824 1.824 0 015 5.444z"/></svg><svg viewBox="0 0 64 10" id="sber" xmlns="http://www.w3.org/2000/svg"><g clip-path="url(#aua)"><path d="M8.81 1.926c.234.304.432.635.59.985L4.92 6.24 3.046 5.056V3.633L4.92 4.816l3.891-2.89zM1.136 4.956c0-.064.002-.127.005-.19L.006 4.708A4.976 4.976 0 001.44 8.46l.805-.81a3.8 3.8 0 01-1.109-2.693zM4.918 1.145a3.8 3.8 0 01.19.005L5.163.006A4.872 4.872 0 001.44 1.451l.804.812a3.767 3.767 0 012.673-1.118zM4.918 8.767c-.063 0-.126 0-.189-.005l-.057 1.144A4.869 4.869 0 008.394 8.46l-.803-.812a3.77 3.77 0 01-2.673 1.118z"/><path d="M7.05 1.81l.957-.71A4.873 4.873 0 004.917 0v1.145a3.743 3.743 0 012.133.665zM9.837 4.956a5.08 5.08 0 00-.078-.888l-1.058.786v.102A3.826 3.826 0 017.455 7.78l.763.85a4.942 4.942 0 001.197-1.664 4.975 4.975 0 00.422-2.011zM4.918 8.767a3.75 3.75 0 01-2.803-1.255l-.844.769a4.919 4.919 0 001.652 1.206 4.873 4.873 0 001.995.425V8.767zM2.382 2.131l-.763-.85A4.942 4.942 0 00.422 2.945 4.975 4.975 0 000 4.955h1.136a3.827 3.827 0 011.246-2.824zM28.382 2.834l1.407-1.033h-4.71v6.207h4.71V6.975h-3.365v-1.59h2.87V4.352h-2.87V2.834h1.958zM21.91 4.22h-1.634V2.833h2.61l1.406-1.036h-5.36v6.207h2.806c1.573 0 2.475-.71 2.475-1.95 0-1.184-.817-1.836-2.302-1.836zm-.233 2.751h-1.401v-1.72h1.401c.851 0 1.25.289 1.25.86 0 .572-.424.86-1.25.86zM33.252 1.8h-2.564v6.207h1.344V6.25h1.22c1.635 0 2.647-.857 2.647-2.228 0-1.37-1.012-2.22-2.648-2.22zm-.029 3.415h-1.191v-2.38h1.191c.86 0 1.335.422 1.335 1.19s-.474 1.19-1.335 1.19zM16.916 6.542a2.353 2.353 0 01-1.13.282c-1.182 0-2.039-.84-2.039-1.997s.857-2 2.038-2c.427-.006.844.122 1.191.368l.94-.69-.064-.044c-.548-.48-1.28-.735-2.12-.735-.909 0-1.733.305-2.322.86a2.997 2.997 0 00-.922 2.21 3.087 3.087 0 00.916 2.242c.592.577 1.415.895 2.318.895.944 0 1.768-.328 2.327-.925l-.842-.624-.29.158zM41.227 4.22h-1.634V2.833h3.512V1.798H38.25v6.207h2.801c1.573 0 2.476-.71 2.476-1.95.003-1.184-.814-1.836-2.299-1.836zm-.233 2.751h-1.401v-1.72h1.4c.851 0 1.25.289 1.25.86 0 .572-.42.86-1.25.86zm17.809 1.025H57.44V1.789h1.362v2.607h.741l2.003-2.607h1.544l-2.376 2.953 2.758 3.254h-1.807l-2.027-2.441h-.836v2.44zm-10.328-1.18h-2.882l-.488 1.206h-1.45l2.703-6.207h1.45l2.659 6.207h-1.503l-.489-1.206zm-.451-1.124l-.981-2.411-.987 2.41h1.968zM52.3 1.815v2.592h2.82V1.815h1.404v6.207H55.12V5.576H52.3v2.446h-1.404V1.815H52.3z"/></g><defs><linearGradient id="aub" x1="1.67" y1="8.317" x2=".412" y2="4.707" gradientUnits="userSpaceOnUse"><stop offset=".14" stop-color="#F1E813"/><stop offset=".3" stop-color="#E6E418"/><stop offset=".58" stop-color="#C9DA26"/><stop offset=".89" stop-color="#A2CC39"/></linearGradient><linearGradient id="auc" x1="1.765" y1="1.654" x2="4.969" y2=".443" gradientUnits="userSpaceOnUse"><stop offset=".06" stop-color="#0FA7DF"/><stop offset=".54" stop-color="#0098F8"/><stop offset=".92" stop-color="#0290EA"/></linearGradient><linearGradient id="aud" x1="4.597" y1="9.221" x2="8.216" y2="8.41" gradientUnits="userSpaceOnUse"><stop offset=".12" stop-color="#A2CC39"/><stop offset=".28" stop-color="#86C239"/><stop offset=".87" stop-color="#219F38"/></linearGradient><linearGradient id="aue" x1="4.681" y1=".383" x2="7.776" y2="1.331" gradientUnits="userSpaceOnUse"><stop offset=".06" stop-color="#0290EA"/><stop offset=".79" stop-color="#0C89CA"/></linearGradient><linearGradient id="auf" x1="1.556" y1="8.141" x2="4.927" y2="9.392" gradientUnits="userSpaceOnUse"><stop offset=".13" stop-color="#F1E813"/><stop offset=".3" stop-color="#EAE616"/><stop offset=".53" stop-color="#D8DF1F"/><stop offset=".8" stop-color="#BAD52D"/><stop offset=".98" stop-color="#A2CC39"/></linearGradient><linearGradient id="aug" x1=".423" y1="5.094" x2="1.792" y2="1.561" gradientUnits="userSpaceOnUse"><stop offset=".07" stop-color="#A2CC39"/><stop offset=".26" stop-color="#81C45E"/><stop offset=".92" stop-color="#0FA7DF"/></linearGradient><clipPath id="aua"><path d="M0 0h64v10H0z"/></clipPath></defs></svg><svg viewBox="0 0 24 20" id="tg" xmlns="http://www.w3.org/2000/svg"><path d="M19.654.938l-.275.103A13069.3 13069.3 0 001.264 7.87c-.33.126-.64.302-.916.52-.103.082-.175.22-.251.367l-.095.178v.36c.157.447.49.741 1.079.951.06.022.123.04.19.058l.85.24c1.035.293 2.106.595 3.16.889.197.054.31.162.38.358.292.844.596 1.697.89 2.523l.231.651.317.895c.264.748.536 1.52.814 2.276.263.717.73 1.144 1.388 1.268.595.112 1.155-.078 1.712-.582a454.66 454.66 0 001.325-1.204l.893-.81.475-.43.604.48 1.018.807c.248.197.5.4.742.596.55.445 1.118.904 1.699 1.325.55.399 1.145.516 1.676.328.531-.187.939-.68 1.109-1.342.016-.066.03-.123.041-.176l.542-2.633.739-3.6 1.707-8.305c.095-.46.195-.925.29-1.375.045-.206.09-.413.133-.619v-.563a.344.344 0 01-.032-.093 1.391 1.391 0 00-.653-.996c-.373-.23-.843-.275-1.324-.129-.602.185-1.205.416-1.787.64-.186.073-.37.142-.556.214zM9.227 15.835l-.22.869a1.244 1.244 0 01-.033.107l-.03.093-.13.4-2.116-5.968 8.304-4.187.199.18-.089.103-.042.05a2.231 2.231 0 01-.1.116l-.796.834c-1.293 1.357-2.63 2.76-3.95 4.136a1.27 1.27 0 00-.331.6c-.218.89-.446 1.793-.666 2.667zm.85 2.305l-.223-.125.98-3.916 1.97 1.565-2.726 2.476zM22.014 1.254c.142-.046.29-.07.44-.071.063-.004.124-.007.181-.014l.154-.018.006.152c.002.055.008.112.014.172.022.141.022.285 0 .426-.563 2.776-1.141 5.6-1.702 8.326l-.711 3.469c-.303 1.473-.605 2.947-.906 4.42-.087.43-.22.654-.43.73a.447.447 0 01-.15.026c-.174 0-.376-.097-.633-.301a5837.199 5837.199 0 01-5.524-4.389l-1.124-.893c-.04-.031-.076-.064-.115-.099l-.06-.052-.11-.094.614-.645 1.118-1.172 1.237-1.297c1.443-1.512 2.935-3.075 4.4-4.616.113-.11.201-.244.258-.39.088-.271-.051-.454-.184-.56-.196-.155-.407-.173-.646-.053-.5.25-1 .501-1.498.753l-1.897.957a5400.85 5400.85 0 01-8.564 4.313.744.744 0 01-.498.052c-1.06-.292-2.134-.597-3.178-.891l-.85-.241-.086-.024-.047-.254.517-.203c.288-.11.577-.22.865-.328l1.593-.6c5.74-2.163 11.677-4.399 17.516-6.591z"/></svg><svg viewBox="0 0 72 16" id="tinkoff" xmlns="http://www.w3.org/2000/svg"><g clip-path="url(#awa)"><path fill-rule="evenodd" clip-rule="evenodd" d="M18.003 7.484l.237-.744-.783.024c-.066 0-.548-.014-1.014-.346.035.003.07.008.106.008.48 0 .945-.284 1.13-.69L18.018 5c-.423.006-.809-.046-.809-.046-.003 0-.308-.04-.66-.393a1.26 1.26 0 00-1.297-.325c.017-.06.034-.12.044-.182.107-.687-.342-1.21-.342-1.21l-.59-.717-.365.842a.742.742 0 01-.258.296 1.558 1.558 0 00-.433-.791 1.966 1.966 0 00-1.407-.576c-.145 0-.25.016-.274.02l-.711.137a2.38 2.38 0 01.288-.672l.392-.6-.987.11-.314-.656-.61.308L9.121 0 8.56.546 7.95.238l-.314.656-.987-.11.393.6c.16.244.247.515.288.671l-.679-.132-.023-.003a1.96 1.96 0 00-1.688.555 1.555 1.555 0 00-.435.791c-.163-.095-.255-.29-.255-.29l-.366-.846-.598.722c-.073.092-.434.585-.336 1.204.01.062.026.122.044.182a1.261 1.261 0 00-1.298.325c-.35.352-.653.392-.65.392 0 0-.32.056-.817.047l.336.734c.186.407.652.69 1.13.69.037 0 .071-.004.107-.007a1.865 1.865 0 01-1.005.346L0 6.74l.241.743c.122.384.528 1.02 1.306 1.087-.084.349-.272.74-.684.908l-.594.24.324.554c.183.299.612.649 1.223.649.132 0 .26-.014.383-.04.032.137.07.273.117.41.182.532.025.902.024.907l-.293.603.654.17c.008.002.206.056.454.056a1.407 1.407 0 00.54-.104c.085.149.187.286.307.407.42.423 1.015.637 1.768.637h.002l.538-.007-1.111.454.843.4c.307.147.67.32 1.04.453l-.105.283.29.13c.026.012.586.257 1.515.31 0 0 .224.01.347.01.124 0 .346-.01.346-.01.922-.055 1.477-.298 1.503-.31l.291-.13-.106-.283c.38-.137.757-.317 1.052-.458l.827-.395-1.107-.454.54.007c.753 0 1.348-.214 1.768-.637a1.97 1.97 0 00.307-.407c.171.07.355.104.54.103.244 0 .444-.052.449-.054l.658-.171-.287-.592c-.007-.016-.163-.386.018-.92.047-.135.086-.272.117-.408.124.026.253.039.386.04.778 0 1.152-.538 1.224-.655l.321-.549-.594-.24c-.413-.167-.6-.558-.684-.906.768-.066 1.18-.7 1.306-1.087z"/><path fill-rule="evenodd" clip-rule="evenodd" d="M9.122 2.279c-.63 0-1.101.203-1.204.441l1.204.466 1.203-.466c-.101-.238-.573-.44-1.203-.441zm.012 12.348H9.11a4.99 4.99 0 01-1.159-.148l-.304.81c.2.07.88.204 1.476.204.595 0 1.275-.135 1.475-.205l-.304-.808c-.254.072-.778.15-1.16.147zm2.303-.805c-.226.126-.732.315-1.026.403l.247.668a6.25 6.25 0 001.14-.418l-.512-.167.151-.486zm-4.63 0l.152.486-.513.167c.31.153.687.296 1.14.418l.248-.669c-.294-.087-.8-.276-1.027-.402zM9.122 1.506c.474 0 .939.111 1.297.307.033-.108.078-.239.14-.375l-.135.016-.142.014-.06-.127-.181-.375-.33.168-.128.064L9.48 1.1 9.122.75l-.358.349-.102.098-.128-.064-.332-.168-.179.375-.06.127-.143-.014-.134-.016c.062.136.107.267.14.375a2.773 2.773 0 011.296-.307zm7.24 4.337a.61.61 0 00.187.03c.268 0 .527-.17.616-.365 0 0-.492-.03-1.02-.557a.685.685 0 00-.5-.222c-.237 0-.416.123-.416.123.64.334.77.87 1.133.991zm-14.666.03a.553.553 0 00.185-.03c.365-.12.496-.657 1.134-.99 0 0-.179-.124-.415-.124a.685.685 0 00-.5.222c-.529.527-1.02.557-1.02.557.088.194.348.365.616.365z"/><path fill-rule="evenodd" clip-rule="evenodd" d="M16.17 9.692c-.495-.24-.807-.876-.883-1.104-.081 1.26-.707 2.134-1.44 2.976a2.68 2.68 0 00-.512.86s.073-.48.402-.872c.683-.805 1.332-1.809 1.38-2.969a3.476 3.476 0 00-.51-2.007c.186.563.16 1.254-.47 1.898 0 0 1.252-1.472-.497-2.982-.7-.574-1.466-.929-1.86-1.18 1.424.456 2.12-.046 2.12-.046-.455.387-1.044.38-1.409.325.1.047.203.097.313.155 1.201.64 2.28 1.695 2.465 3.155V7.89c.279 1.434.9 1.802.9 1.802zm.366-1.67h.031c.67 0 .896-.704.896-.704h-.013a2.444 2.444 0 01-1.822-.907c-.462-.578-.842-1.085-1.592-1.285l-.074-.013-.016-.074c-.02-.112.058-.218.237-.331 1.034-.666.33-1.515.33-1.515s-.294.679-.955.679l-.05-.001c-.074-.004-.147-.006-.22-.022l-.122-.023s.19-.504-.266-.965a1.388 1.388 0 00-1-.409c-.121 0-.198.016-.198.016.228.293.393.78.13 1.08-.229.258-.785.27-.785.656 0 .163.155.353.433.524.837.517 1.668 1.204 2.014 2.125.432 1.148-.055 1.91-.749 2.348 0 0 .218.197.533.222.065.006.127.009.186.009.667 0 1.011-.307 1.011-.307s-.057.424-.403.818c-.32.363-.74.578-1.381.587 0 0-.02.292.263.545.182.16.601.212.601.212s-.785.155-.872 1.295c-.047.617-.207.831-.207.831h.014c1.822 0 1.775-1.535 1.775-1.535a.875.875 0 00.825.595c.163 0 .306-.037.306-.037s-.267-.552-.003-1.323c.22-.64.184-1.115.184-1.115s.245.365.854.368h.007a.87.87 0 00.727-.377c-1.215-.496-1.095-2.094-1.095-2.094s.158.115.466.127zm-12.14 3.542c-.731-.842-1.358-1.716-1.44-2.976-.075.229-.387.864-.88 1.104 0 0 .62-.368.9-1.802v.01C3.16 6.44 4.239 5.386 5.44 4.745c.11-.059.214-.108.313-.155-.365.056-.954.062-1.409-.325 0 0 .696.502 2.12.046-.394.251-1.16.606-1.86 1.18-1.749 1.51-.498 2.982-.498 2.982-.628-.645-.654-1.334-.469-1.898a3.466 3.466 0 00-.509 2.008c.048 1.16.696 2.163 1.378 2.969.33.39.404.871.404.871s-.134-.424-.513-.86zm.294-.278s.419-.052.6-.212c.284-.252.264-.544.264-.544-.641-.01-1.06-.224-1.383-.587a1.727 1.727 0 01-.402-.818s.345.307 1.01.307c.06 0 .123-.003.187-.009a.993.993 0 00.534-.222C4.805 8.764 4.32 8 4.75 6.853c.346-.92 1.176-1.608 2.014-2.126.278-.17.433-.36.433-.523 0-.385-.556-.398-.784-.656-.264-.3-.099-.787.13-1.08 0 0-.077-.016-.199-.016-.24 0-.657.06-1 .409-.456.462-.266.965-.266.965l-.122.024c-.072.014-.146.017-.22.022h-.049c-.662 0-.956-.678-.956-.678s-.703.848.332 1.514c.177.113.256.219.235.331l-.016.073-.075.014c-.749.2-1.128.707-1.592 1.285a2.443 2.443 0 01-1.822.907H.78s.227.704.897.704h.032c.308-.012.465-.127.465-.127s.12 1.598-1.095 2.094c0 0 .221.378.728.378h.006c.61-.004.854-.369.854-.369s-.035.475.183 1.115c.264.772 0 1.322 0 1.322s.14.038.305.038a.75.75 0 00.189-.022c.508-.118.635-.573.635-.573s-.047 1.535 1.776 1.535h.013s-.16-.214-.206-.831c-.087-1.14-.873-1.296-.873-1.296zM8.71 5.63h.86v.289c-.101-.121-.298-.096-.298-.096v.417s.007.205.08.294h-.424c.074-.089.08-.294.08-.294v-.417s-.196-.025-.297.096v-.29zm-.935.043c.03.031.059.066.087.1l.02.025.078.107.017.025c.03.045.06.092.088.14.263.446.684.712 1.056.713.374 0 .794-.267 1.058-.713a2.75 2.75 0 01.201-.295c.03-.036.06-.071.09-.103l.016-.014a1.09 1.09 0 01.502-.294l-.093-.053h-.005l-.37-.211-.38-.214-1.016.543-.003-.003-.001.003-1.016-.543-.38.214-.37.21h-.005l-.093.054c.209.056.368.158.502.293.006.005.01.011.017.016z"/><path fill-rule="evenodd" clip-rule="evenodd" d="M8.798 3.79v.273l-.053-.025c-.002-.002-.08-.019-.217-.125-.225-.171-.23-.33-.23-.33l.5.207zm.236 1.278V3.373l-1.099-.366.29 1.642.81.42h-.001zm.412-1.278l.5-.207s-.004.159-.23.33c-.136.106-.214.123-.217.125l-.053.024V3.79zm.573.86l.289-1.643-1.098.366v1.695l.81-.419zM7.48 8.998a.998.998 0 00.304.045l.01-.03.015-.06c.018-.093.025-.2.027-.268a.38.38 0 01-.145-.15c-.04-.084-.099-.123-.184-.123a.615.615 0 00-.28.096c-.04.234.136.447.253.49zm2.43-.9c-.203.218-.603.598-.622.617l-.024.023L8 8.72a1.261 1.261 0 01-.04.304l-.01.039 1.5.265c.157-.107.586-.416.753-.536a.705.705 0 01-.105-.526.746.746 0 01-.189-.167z"/><path fill-rule="evenodd" clip-rule="evenodd" d="M10.082 6.608c-.291.283-.57.388-.82.412a1.345 1.345 0 01-.137.008H9.12A1.39 1.39 0 018.847 7a.494.494 0 00.023.322c.052.115.16.2.316.257l.053.02v.056c0 .016.013.377.413.477.065-.066.125-.126.168-.176-.082-.189-.038-.382.08-.476-.005.02-.057.493.329.669l.064.03-.02.066c-.006.02-.134.478.334.648l.082.031-.037.079c-.008.017-.191.433.24.669h.937v-.73c-.333-.04-.473-.304-.51-.49a.541.541 0 01-.357-.198c-.196-.254-.027-.487-.025-.5 0 .002 0 .25.155.403.078.073.169.13.308.143l.067.006.006.069c.002.014.039.35.356.402V7.286c0-.232.068-.464.151-.679h-1.897zM7.56 7.29l-.025.95.11.017.27-.912-.137-.28-.217.225zm.583 3.518a.055.055 0 01-.05-.037.052.052 0 01-.003-.021.053.053 0 01.02-.038.056.056 0 01.04-.013.055.055 0 01.052.058.055.055 0 01-.019.037.057.057 0 01-.04.014zm2.382.84c.008 0 .017.001.026.004.168.047.21.639.503.691a.377.377 0 00.079.008c.085 0 .135-.035.19-.099 0 0-.148-.227-.258-.381-.147-.201-.26-.445-.534-.445l-.021.001a.276.276 0 00-.145.048.572.572 0 00-.308-.092c-.17 0-.303.078-.37.078h-.002l-.61-.06c-.096-.01-.17-.103-.198-.14l-.01-.016c0-.016 0-.033-.002-.047-.02-.49-.406-.7-.544-.704 0 0 .016-.093-.02-.128l-.135.16-.442-.217.315.361-.266.294c-.034.034-.03.079-.016.098l.116.1.145-.087a.074.074 0 01.037-.007c.04 0 .101.01.155.01.06 0 .112-.012.118-.067-.018.181-.19.497-.077.745l.083.188-.539-.077-.252.419c-.078.139-.09.29-.016.371l.095.117s.132-.138.162-.23L7.74 12.5c-.036-.04-.034-.074-.012-.116l.158-.258.636.147.034-.056c.043-.07.106-.091.174-.091.028 0 .057.003.087.008.118.023.312.053.507.053.213 0 .425-.037.538-.161.23.335.698.389.66.56l-.122.575c.081-.004.16-.01.234-.02l.117-.598c.01-.05.018-.101.025-.152-.045-.046-.154-.14-.216-.255-.082-.156-.037-.238-.114-.44 0 0 .024-.047.078-.047z"/><path fill-rule="evenodd" clip-rule="evenodd" d="M7.273 12.193s.212-.085.23-.146l-.028-.069c-.02-.045-.017-.094.022-.12l.227-.155.38.072s-.068-.085-.062-.197l-.363-.076-.342.205a.326.326 0 00-.11.388l.046.098zm2.692.975a5.39 5.39 0 01.225-.004s.196-.562.207-.58a4.818 4.818 0 01-.425-.22c.058.085.2.182.171.258l-.178.546z"/><path fill-rule="evenodd" clip-rule="evenodd" d="M11.828 9.833H6.416v2c0 .817.603 1.329 1.492 1.329.743 0 .938.028 1.214.298.19-.187.348-.256.672-.283l.008-.03.17-.518-.288-.323a1.06 1.06 0 01-.36.042c-.16 0-.34-.019-.537-.054a.259.259 0 00-.056-.007c-.024 0-.026.002-.032.014l-.034.055-.062.1-.117-.026-.52-.12-.071.115.011.013.063.068-.028.09a.927.927 0 01-.2.29l-.13.136-.118-.147-.09-.11c-.093-.102-.114-.26-.061-.424a.011.011 0 01-.006.002l-.146.06-.066-.141-.046-.1a.478.478 0 01.164-.587l.418-.231.398.076c.01-.037.024-.171.035-.205l-.022-.003-.23.084-.22-.15s-.087-.082-.009-.163l.214-.319-.543-.668.834.336.056-.068.112-.132.128.12a.237.237 0 01.067.117c.23.088.641.348.678.77l-.129.05v.003c.03.034.054.049.062.05l.595.057c.015-.002.033-.01.055-.015a.977.977 0 01.316-.06c.108 0 .212.024.31.07a.454.454 0 01.135-.028h.03c.317 0 .476.233.603.42a9.91 9.91 0 01.327.482l.066.1-.081.093a.398.398 0 01-.314.153.588.588 0 01-.203-.04 2.36 2.36 0 01-.017.1l-.104.535c.624-.15 1.02-.614 1.02-1.277v-2zm-5.412-.161h4.21a.656.656 0 01-.154-.659.696.696 0 01-.157-.101c-.165.119-.667.478-.798.568l-.028.019-1.652-.294h-.034a1.13 1.13 0 01-.16-.01.162.162 0 01-.216.112.16.16 0 01-.101-.173l.006-.036c-.17-.117-.328-.38-.258-.658l.007-.03.024-.017a.938.938 0 01.075-.045l-.12-.019a.083.083 0 01-.053-.032.08.08 0 01-.015-.06.082.082 0 01.094-.067l.285.045.027-.99.425-.441.266.549-.28.951.252.04a.08.08 0 01.04.14.082.082 0 01-.052.019h-.013l-.206-.034.01.017c.022.039.057.07.098.09l1.26.02c.053-.052.185-.179.32-.313a.68.68 0 01-.3-.215.66.66 0 01-.14-.337.655.655 0 01-.36-.322.663.663 0 01-.03-.436 1.467 1.467 0 01-.525-.345H6.266c.081.214.15.447.15.678v2.386z"/><path fill-rule="evenodd" clip-rule="evenodd" d="M8.15 10.7a.056.056 0 00-.041.013.053.053 0 00-.019.038.052.052 0 00.014.04c.005.005.01.01.018.012a.054.054 0 00.02.005.055.055 0 00.041-.013.055.055 0 00.02-.037.055.055 0 00-.015-.04.057.057 0 00-.039-.018zm2.508 4.193l-.247-.668c.294-.088.8-.277 1.027-.403l-.152.486.512.167a6.27 6.27 0 01-1.14.418zm-1.535.6c-.596 0-1.275-.135-1.476-.205l.304-.808c.253.072.778.15 1.16.147h.023a5.08 5.08 0 001.16-.147l.304.808c-.2.071-.88.205-1.475.205zm-2.677-1.018l.513-.167-.152-.486c.226.126.733.315 1.027.403l-.248.668a6.284 6.284 0 01-1.14-.418zm5.376-.148l-.313-.118.087-.316.094-.345s-.552.295-1.33.515a3.964 3.964 0 01-.388.091v.235s-.417.07-.838.07H9.11c-.421 0-.837-.07-.837-.07v-.235s-.167-.028-.388-.09a7.499 7.499 0 01-1.33-.516l.093.345.088.316-.313.118-.347.127c.398.189.949.463 1.453.599l-.119.319s.64.286 1.705.289h.014c1.067-.003 1.706-.29 1.706-.29l-.12-.318c.505-.136 1.057-.41 1.452-.599l-.345-.127zM7.82 1.453l.141.015.061-.127.179-.375.331.169.129.064.46-.448.358.348.103.1.128-.064.33-.169.181.375.06.127.142-.015.135-.015a3.178 3.178 0 00-.14.375c-.358-.196-.823-.307-1.297-.307-.472 0-.937.11-1.296.307a3.174 3.174 0 00-.14-.375l.134.015zm1.3.248c.636 0 1.143.207 1.424.427 0 0 .083-.493.367-.927l-.51.056L10.133.7 9.62.96 9.121.476 8.625.96 8.11.7l-.267.558-.511-.058c.285.435.368.927.368.927.282-.22.788-.426 1.421-.426zm8.044 8.288s-.22.377-.727.377h-.007c-.608-.003-.854-.368-.854-.368s.036.474-.183 1.115c-.264.772.002 1.322.002 1.322s-.143.038-.306.038a.765.765 0 01-.19-.022c-.508-.118-.635-.572-.635-.572s.047 1.534-1.775 1.534h-.015s.161-.214.209-.831c.086-1.14.871-1.296.871-1.296s-.419-.052-.6-.211c-.284-.253-.265-.545-.265-.545.642-.01 1.062-.223 1.382-.587.207-.233.346-.515.403-.818 0 0-.344.307-1.011.307-.059 0-.12-.003-.185-.009-.316-.025-.534-.222-.534-.222.694-.437 1.18-1.2.75-2.348-.346-.92-1.178-1.608-2.014-2.126-.279-.17-.434-.36-.434-.524 0-.384.557-.396.785-.655.264-.3.098-.787-.13-1.08 0 0 .077-.016.198-.016.241 0 .658.06 1 .409.455.462.266.965.266.965l.122.024c.073.014.146.018.221.021l.05.001c.66 0 .955-.679.955-.679s.703.85-.331 1.515c-.178.113-.257.219-.237.331l.017.074.073.013c.75.2 1.13.708 1.593 1.285a2.447 2.447 0 001.821.907h.014s-.227.704-.897.704h-.031c-.308-.012-.466-.127-.466-.127s-.12 1.598 1.095 2.094zm-.598-1.751c.821 0 1.096-.82 1.107-.855l.091-.29-.307.01a2.218 2.218 0 01-1.657-.825l-.06-.075c-.42-.524-.818-1.022-1.53-1.25a.725.725 0 01.091-.066c.377-.243.597-.54.652-.883.081-.517-.255-.93-.27-.947l-.228-.277-.143.33c-.01.02-.25.546-.755.546h-.037a2.227 2.227 0 01-.1-.005 1.184 1.184 0 00-.363-.94 1.617 1.617 0 00-1.158-.473c-.138 0-.23.017-.24.018l-.345.067.212.276c.167.212.319.604.14.809-.058.066-.176.118-.289.171-.232.105-.55.252-.55.624 0 .241.19.494.536.708 1.021.631 1.652 1.29 1.924 2.017.422 1.118-.128 1.756-.662 2.092l-.24.151.21.19c.029.024.285.246.664.278.072.004.14.008.204.008.243 0 .45-.038.618-.088-.05.086-.109.167-.175.242-.305.348-.68.506-1.22.514l-.2.003-.016.198c-.002.04-.017.406.336.718.054.048.12.088.188.12-.24.212-.483.58-.53 1.212-.04.527-.168.722-.17.725l-.221.332.4.005c.663 0 1.17-.179 1.52-.534.182-.187.318-.412.397-.659.195.163.443.253.699.252.187 0 .344-.039.36-.042l.257-.067-.113-.234c-.009-.02-.222-.49.008-1.162.098-.29.149-.55.173-.752.162.082.377.15.656.151.633 0 .912-.464.925-.484l.125-.213-.232-.093c-.754-.308-.921-1.135-.955-1.582.069.013.146.025.234.027l.04.002z"/><path fill-rule="evenodd" clip-rule="evenodd" d="M15.645 4.73c.153 0 .331.05.5.221.528.528 1.02.557 1.02.557-.089.195-.348.365-.616.365a.565.565 0 01-.186-.03c-.364-.12-.495-.657-1.133-.99 0 0 .177-.124.415-.124zm-.52.313c.306.16.485.375.641.565.154.186.3.365.528.439a.8.8 0 00.255.04c.342 0 .686-.206.817-.49l.13-.286-.317-.019c-.015 0-.423-.037-.877-.492a.916.916 0 00-.657-.286c-.297 0-.518.146-.542.161l-.292.202.314.166zm.144 2.847v.011c-.184-1.46-1.264-2.514-2.465-3.155a7.77 7.77 0 00-.313-.155c.365.056.954.062 1.41-.325 0 0-.697.502-2.12.046.393.251 1.16.606 1.86 1.18 1.748 1.51.497 2.982.497 2.982.629-.644.655-1.334.47-1.898.33.541.542 1.198.51 2.008-.049 1.16-.698 2.163-1.381 2.969-.329.39-.402.871-.402.871s.133-.424.513-.86c.732-.842 1.358-1.716 1.44-2.976.075.229.387.864.882 1.104 0 0-.622-.368-.901-1.802zm-9.514 5.523c-1.822 0-1.776-1.534-1.776-1.534s-.127.454-.635.572a.761.761 0 01-.19.022c-.163 0-.305-.037-.305-.037s.266-.552.001-1.323c-.218-.64-.182-1.115-.182-1.115s-.245.365-.855.369h-.006c-.506 0-.727-.378-.727-.378 1.214-.496 1.095-2.094 1.095-2.094s-.158.115-.466.127h-.032c-.67 0-.897-.704-.897-.704h.014a2.44 2.44 0 001.821-.907c.463-.578.843-1.085 1.592-1.285l.075-.013.016-.074c.021-.112-.058-.218-.235-.331-1.035-.666-.332-1.514-.332-1.514s.293.678.956.678h.048c.075-.004.149-.008.221-.023l.122-.023s-.19-.503.267-.965a1.388 1.388 0 011.197-.393c-.228.293-.393.78-.13 1.08.229.259.785.27.785.655 0 .164-.155.354-.433.524-.837.518-1.668 1.205-2.014 2.126-.43 1.148.056 1.91.75 2.348 0 0-.218.197-.534.222a2.017 2.017 0 01-.186.009c-.666 0-1.011-.307-1.011-.307s.058.424.402.819c.322.363.742.577 1.383.586 0 0 .02.292-.263.545-.182.16-.601.212-.601.212s.785.156.872 1.295c.047.617.206.831.206.831h-.013zm.194-.122c0-.003-.128-.198-.169-.725-.048-.631-.29-1-.531-1.212a.758.758 0 00.188-.12c.353-.312.338-.678.336-.718l-.014-.198-.202-.003c-.539-.008-.914-.166-1.22-.514a1.61 1.61 0 01-.174-.242 2.137 2.137 0 00.821.08 1.22 1.22 0 00.664-.278l.21-.19-.24-.15c-.535-.337-1.082-.974-.661-2.093.272-.727.901-1.385 1.924-2.017.346-.214.535-.467.535-.708 0-.372-.317-.519-.55-.624-.112-.053-.23-.106-.288-.171-.18-.205-.028-.597.14-.81l.213-.275-.347-.067c-.01-.001-.1-.018-.24-.018-.259 0-.753.062-1.157.473-.336.341-.38.705-.363.94a2.199 2.199 0 01-.1.005h-.037c-.507 0-.746-.527-.755-.547l-.142-.33-.23.278c-.014.017-.351.43-.269.947.055.343.274.64.652.884.041.025.07.048.09.066-.712.227-1.11.726-1.529 1.25l-.06.074a2.222 2.222 0 01-1.658.825l-.309-.01.094.29c.011.034.285.855 1.106.855l.04-.002c.086-.002.165-.014.234-.027-.034.447-.202 1.274-.956 1.581l-.23.094.124.213c.012.02.292.484.926.484.228.002.452-.05.654-.15.025.202.076.461.174.752.23.67.016 1.142.008 1.16l-.113.235.256.066c.017.005.174.043.36.043a1.08 1.08 0 00.7-.252c.07.21.189.448.395.659.353.355.86.534 1.52.534l.401-.005-.221-.332z"/><path fill-rule="evenodd" clip-rule="evenodd" d="M2.1 4.952a.688.688 0 01.5-.223.8.8 0 01.415.124c-.638.334-.77.87-1.134.99a.559.559 0 01-.185.03c-.269 0-.528-.17-.617-.365 0 0 .492-.03 1.02-.556zm-.404 1.136a.803.803 0 00.255-.04c.229-.075.375-.254.528-.44.157-.19.334-.405.64-.565l.315-.166-.293-.202c-.024-.015-.243-.16-.54-.16a.915.915 0 00-.658.285c-.455.456-.862.492-.877.493l-.317.018.13.286c.131.284.475.49.817.49zm1.432 2.496a3.473 3.473 0 01.508-2.008c-.184.564-.159 1.254.47 1.898 0 0-1.251-1.473.499-2.981.7-.575 1.465-.93 1.859-1.181-1.424.456-2.12-.046-2.12-.046.455.387 1.044.381 1.41.325-.1.047-.203.097-.314.155-1.201.64-2.28 1.695-2.465 3.155v-.01c-.279 1.433-.9 1.8-.9 1.8.494-.24.805-.875.881-1.103.083 1.26.709 2.134 1.44 2.976.38.437.514.86.514.86s-.074-.48-.404-.871c-.681-.806-1.33-1.81-1.378-2.97zM8.71 5.63v.29c.102-.122.298-.097.298-.097v.417s-.006.205-.08.294h.425c-.074-.089-.081-.294-.081-.294v-.417s.196-.025.297.097v-.29H8.71zm-.182-1.717c.136.106.215.124.217.125l.053.024V3.79l-.5-.206s.005.158.23.329zm1.188 0c.225-.171.23-.33.23-.33l-.5.207v.273l.053-.025c.003-.001.08-.02.217-.125z"/><path fill-rule="evenodd" clip-rule="evenodd" d="M9.122 3.187L7.919 2.72c.102-.238.574-.44 1.203-.44.63 0 1.102.202 1.204.44l-1.204.467zm.897 1.463l-.809.419V3.373l1.098-.366-.289 1.642zm.501.45l.37.21h.005l.093.054a1.09 1.09 0 00-.502.294l-.015.014a1.727 1.727 0 00-.09.103l-.017.021a1.552 1.552 0 00-.082.112l-.014.02c-.03.046-.06.094-.088.142-.265.446-.685.712-1.058.713-.373 0-.794-.267-1.057-.713a2.976 2.976 0 00-.088-.14l-.017-.025a2.88 2.88 0 00-.078-.107l-.02-.025a2.072 2.072 0 00-.087-.1c-.007-.005-.01-.01-.017-.016a1.094 1.094 0 00-.502-.293l.094-.053h.004l.37-.211.38-.214 1.016.543.002-.002.003.002 1.015-.543.38.214zm1.46 1.508a1.916 1.916 0 00-.152.678v1.491c-.317-.051-.354-.387-.355-.402l-.006-.068-.069-.006a.488.488 0 01-.306-.144c-.156-.153-.156-.4-.156-.403-.002.013-.171.245.025.5a.544.544 0 00.357.199c.037.186.178.449.51.49v.729h-.936a.506.506 0 01-.24-.67l.036-.078-.082-.03c-.468-.171-.34-.63-.333-.65l.02-.066-.065-.03c-.386-.175-.334-.649-.328-.668-.12.094-.162.287-.08.476-.045.05-.104.11-.169.176a.528.528 0 01-.289-.17.51.51 0 01-.124-.308V7.6l-.053-.02c-.156-.057-.263-.142-.316-.257A.495.495 0 018.846 7c.09.018.182.028.273.028h.006c.047 0 .093-.002.138-.007.25-.024.528-.13.819-.412h1.897zm-1.17 6.5l.104-.534.017-.1a.589.589 0 00.202.04.4.4 0 00.315-.153l.08-.092-.066-.1a9.93 9.93 0 00-.326-.483c-.128-.187-.286-.42-.605-.42h-.029a.478.478 0 00-.134.027.74.74 0 00-.31-.07.98.98 0 00-.317.06c-.02.007-.04.014-.055.016l-.595-.057a.17.17 0 01-.062-.05v-.003l.129-.05c-.036-.422-.448-.681-.678-.77a.236.236 0 00-.067-.118l-.128-.12-.112.133-.055.068-.834-.337.542.669-.214.319c-.078.081.009.163.009.163l.22.15.23-.084.022.003c-.01.034-.025.168-.035.205l-.398-.076-.417.232a.48.48 0 00-.165.586l.046.1.066.14.146-.058.006-.003c-.053.165-.031.322.063.425l.088.11.118.146.13-.137a.906.906 0 00.2-.29l.028-.09-.063-.067-.01-.013.07-.115.52.12.117.027.063-.102.033-.054c.006-.012.008-.014.032-.014.019 0 .037.002.056.007.178.034.358.052.538.054.155 0 .249-.006.36-.042 0 0 .278.31.288.323l-.171.517-.008.031c-.323.026-.48.096-.671.283-.277-.27-.472-.298-1.214-.298-.89 0-1.493-.512-1.493-1.33V9.833h5.413v1.999c0 .663-.396 1.126-1.02 1.277zm-3.334-1.13l.028.07c-.02.06-.23.146-.23.146l-.046-.099a.32.32 0 01.11-.389l.342-.204.363.075a.311.311 0 00.062.198l-.38-.071-.228.154c-.039.026-.042.075-.021.12zm3.276.565l-.117.598a2.49 2.49 0 01-.234.019l.123-.574c.036-.171-.43-.225-.661-.56-.113.124-.325.161-.538.161-.195 0-.389-.03-.507-.053a.569.569 0 00-.087-.008c-.068 0-.13.02-.173.091l-.034.057-.637-.147-.158.257c-.022.042-.024.077.012.116l.043.046c-.03.09-.162.229-.162.229l-.095-.117c-.074-.082-.062-.232.016-.371l.252-.42.54.077-.084-.187c-.113-.248.059-.563.077-.745-.006.055-.058.067-.117.067-.055 0-.115-.01-.156-.01-.015 0-.03.002-.037.007l-.145.087-.116-.1c-.014-.019-.018-.064.016-.098l.267-.294-.315-.361.44.218.135-.16c.037.035.02.128.02.128.139.003.525.213.545.702a.518.518 0 01.002.048l.01.016c.027.037.102.132.198.14l.61.06h.002c.067 0 .2-.078.37-.078.094 0 .197.024.308.092 0 0 .055-.043.145-.048h.02c.274 0 .388.242.535.444.11.153.258.381.258.381-.054.064-.105.099-.19.099a.4.4 0 01-.079-.008c-.293-.053-.335-.644-.502-.691a.102.102 0 00-.027-.004c-.054 0-.078.048-.078.048.077.201.032.283.115.439.061.115.17.21.215.255 0 0-.012.087-.025.153zm-.562.621c-.081 0-.157.001-.225.004l.178-.546c.028-.076-.113-.174-.17-.26.087.056.315.175.425.222-.071.193-.14.386-.207.58zM7.536 8.241l.026-.95.217-.225.136.28-.269.912-.11-.017zm.156.295a.38.38 0 00.144.149c-.002.09-.01.18-.026.269a.716.716 0 01-.016.06l-.01.03a.98.98 0 01-.302-.047c-.118-.042-.294-.255-.254-.49a.604.604 0 01.28-.095c.085 0 .143.04.184.124zm2.513.255c-.166.12-.596.429-.752.536L7.95 9.062l.01-.04c.02-.076.04-.18.042-.303l1.262.02.024-.024c.019-.019.419-.399.622-.617.049.06.11.117.189.167a.709.709 0 00.105.526zM8.163 6.608c.18.176.357.285.525.345a.663.663 0 00.03.436c.067.14.187.25.36.322a.67.67 0 00.441.552c-.136.134-.268.261-.321.312l-1.26-.02a.224.224 0 01-.099-.09c-.002-.006-.006-.009-.01-.016l.207.033h.013a.08.08 0 00.066-.127.083.083 0 00-.053-.032l-.253-.04.28-.95-.265-.55-.426.443-.026.989-.286-.045a.083.083 0 00-.095.067.08.08 0 00.015.06.084.084 0 00.054.033l.12.018a.968.968 0 00-.075.045l-.024.017-.007.03c-.07.277.088.54.258.658l-.006.036a.155.155 0 00.029.119.157.157 0 00.132.067.163.163 0 00.1-.035.158.158 0 00.056-.089c.063.007.121.01.16.01h.035l1.651.292.029-.018c.131-.09.633-.45.797-.568a.72.72 0 00.157.101.656.656 0 00.154.66h-4.21V7.285c0-.231-.068-.464-.15-.678h1.897zm-.228-3.6l1.1.365v1.695l-.81-.419-.29-1.642zm2.68-.205c0-.414-.708-.786-1.49-.786H9.12c-.783 0-1.491.372-1.491.786l.015.102.313 1.76-.314.18-.812.466h.003s-.183.092-.268.148c-.309.211-.374.519-.195.646a.609.609 0 01.624-.513c.273 0 .48.138.648.345.043.052.084.108.122.168.047.076.095.143.141.207H5.814c.154.303.3.625.3.974v4.546c0 1.1.862 1.626 1.794 1.626.72 0 .818-.032 1.215.357.395-.39.493-.357 1.214-.357.933 0 1.793-.525 1.793-1.626V7.286c0-.35.146-.67.3-.974h-2.092c.047-.064.094-.131.141-.207.038-.06.08-.116.121-.168.17-.208.377-.345.65-.345a.61.61 0 01.623.513c.18-.127.115-.435-.196-.646a3.24 3.24 0 00-.266-.148h.003l-.814-.466-.312-.18.312-1.76.016-.102z"/><path d="M24.058 10.381h1.44V7.096h1.977V5.901H22.08v1.195h1.978v3.285zm7.785-4.48l-2.4 2.607V5.901h-1.392v4.48h1.229l2.4-2.607v2.607h1.392v-4.48h-1.229zm3.676 2.814h2.236v1.666h1.392v-4.48h-1.392V7.54H35.52V5.9h-1.392v4.48h1.392V8.715zm7.505 1.666c.317 0 .605-.028.873-.103.72-.198 1.19-.772 1.19-1.553 0-.744-.402-1.261-1.046-1.497-.307-.113-.671-.122-1.017-.122h-1.43V5.9h-1.392v4.48h2.822zm-1.43-2.221h1.19c.192 0 .374 0 .538.056.23.076.364.264.364.49a.563.563 0 01-.355.527c-.154.066-.307.066-.547.066h-1.19V8.16zm5.606.527h.384l1.66 1.694h1.853l-2.313-2.334 2.227-2.146h-1.747l-1.68 1.685H47.2V5.9h-1.392v4.48H47.2V8.687z"/><path d="M53.962 5.779c-1.873 0-2.996 1.035-2.996 2.372 0 1.336 1.123 2.371 2.995 2.371 1.863 0 2.986-1.035 2.986-2.371 0-1.337-1.123-2.372-2.986-2.372zm0 3.652c-.932 0-1.527-.546-1.527-1.28s.595-1.271 1.526-1.271c.922 0 1.527.537 1.527 1.27 0 .735-.605 1.28-1.526 1.28zm7.621-3.332v-.452h-1.392V6.1c-1.747.037-2.794.762-2.794 2.042 0 1.28 1.047 1.948 2.794 1.986v.452h1.392v-.452c1.757-.038 2.803-.706 2.803-1.986S63.34 6.136 61.583 6.1zm-1.392 3.068c-.96-.038-1.383-.423-1.383-1.026 0-.602.423-1.035 1.383-1.073v2.1zm1.392 0V7.068c.97.038 1.382.47 1.382 1.073s-.412.988-1.382 1.026zM69.017 6.1v-.452h-1.392V6.1c-1.747.037-2.793.762-2.793 2.042 0 1.28 1.046 1.948 2.793 1.986v.452h1.392v-.452c1.757-.038 2.803-.706 2.803-1.986S70.774 6.136 69.017 6.1zm-1.392 3.068c-.96-.038-1.382-.423-1.382-1.026 0-.602.422-1.035 1.382-1.073v2.1zm1.392 0v-2.1c.97.038 1.383.47 1.383 1.073s-.413.988-1.383 1.026z"/></g><defs><clipPath id="awa"><path d="M0 0h72v16H0z"/></clipPath></defs></svg><svg viewBox="0 0 32 10" id="viza" xmlns="http://www.w3.org/2000/svg"><path d="M20.843 0C18.57 0 16.54 1.136 16.54 3.234c0 2.407 3.601 2.573 3.601 3.782 0 .51-.605.965-1.638.965a5.587 5.587 0 01-2.562-.637l-.469 2.118s1.263.538 2.939.538c2.484 0 4.439-1.192 4.439-3.326 0-2.543-3.617-2.704-3.617-3.827 0-.398.497-.835 1.527-.835 1.163 0 2.11.463 2.11.463l.46-2.046S22.298 0 20.843 0zM.055.154L0 .464s.956.168 1.817.504c1.108.386 1.187.611 1.374 1.309L5.225 9.84h2.727L12.154.154H9.433l-2.7 6.586-1.101-5.582C5.53.518 5.019.154 4.392.154H.056zm13.193 0l-2.134 9.687h2.594L15.835.154h-2.587zm14.47 0c-.625 0-.956.323-1.2.888l-3.8 8.799h2.72l.526-1.467h3.315l.32 1.467H32L29.906.154h-2.187zm.355 2.617l.806 3.635h-2.16l1.354-3.635z"/></svg><svg viewBox="0 0 30 30" id="vk" xmlns="http://www.w3.org/2000/svg"><g clip-path="url(#aya)"><path d="M15 0C6.7 0 0 6.7 0 15s6.7 15 15 15 15-6.7 15-15S23.3 0 15 0zm6.5 21.6c-.8-2.4-2.7-4.2-5.2-4.5v4.5H16c-6.8 0-10.7-4.7-10.9-12.5h3.4c.1 5.7 2.6 8.2 4.6 8.7V9.1h3.2V14c2-.2 4-2.5 4.7-4.9h3.2c-.5 3-2.8 5.3-4.4 6.2 1.6.8 4.2 2.7 5.1 6.3h-3.4z"/></g><defs><clipPath id="aya"><path d="M0 0h30v30H0z"/></clipPath></defs></svg><svg viewBox="0 0 20 20" id="wa" xmlns="http://www.w3.org/2000/svg"><g clip-path="url(#aza)"><path d="M12.876 15.376c-.375 0-.875 0-1.25-.125-2.375-.875-3.75-1.375-6.25-4.75-1.5-2.125-1.625-3.875-.25-5.5.5-.5 1.125-.625 1.75-.5.25 0 .75 0 1 .75.125.125.25.5.375.75.375.75.5 1.125.5 1.25.125.25.125.625 0 .875-.25.375-.5.75-.75.875 0 .125-.125.125-.125.125a9.44 9.44 0 001.375 1.75c.625.5 1.25.875 2 1.25h.125V12c.125-.25.5-.5.625-.875.5-.75.875-.5 2.75.375l.25.125h.125c.25.125.5.25.625.5v.125c.125.5 0 1-.125 1.5-.5.875-1.25 1.375-2.125 1.5-.25.125-.375.125-.625.125zm-6.375-10c-.25 0-.5.125-.625.25-1.125 1.25-1 2.5.25 4.375C8.5 13 9.75 13.626 12 14.376c.5.125 1 .125 1.5.125.625-.125 1.125-.5 1.5-1 .125-.25.125-.5.125-.75l-.625-.25-1.5-.75c-.25.375-.5.75-.75.875l-.125.125c-.25.375-.625.375-1.125.25-1-.375-1.75-.875-2.375-1.5C8 11 7.5 10.25 7.126 9.626c-.375-.5 0-.875.25-1.125.125-.25.25-.5.5-.875v-.25s-.25-.625-.5-1c-.125-.25-.25-.625-.375-.75C7 5.5 6.876 5.5 6.876 5.5h-.25c0-.125-.125-.125-.125-.125z"/><path d="M10 1.25c4.75 0 8.75 3.875 8.75 8.625 0 1.375-.375 2.75-1 4-1.5 2.875-4.5 4.625-7.75 4.625-1.375 0-2.875-.375-4.125-1l-.375-.25-.5.125-3.25.875.75-2.875.125-.5-.25-.5A9.12 9.12 0 011.25 10 8.696 8.696 0 0110 1.25zM10 0C4.5 0 0 4.5 0 10c0 1.75.5 3.5 1.375 5L0 20l5.25-1.375c1.5.75 3.125 1.25 4.75 1.25 3.625 0 7-1.875 8.875-5.25.75-1.375 1.125-3 1.125-4.625 0-5.625-4.5-10-10-10z"/></g><defs><clipPath id="aza"><path d="M0 0h20v20H0z"/></clipPath></defs></svg><svg viewBox="0 0 30 30" id="yt" xmlns="http://www.w3.org/2000/svg"><path d="M28.2 8.3c-.3-1.2-1.2-2.1-2.4-2.4-2.2-.6-10.8-.6-10.8-.6s-8.6 0-10.7.6c-1.2.3-2.2 1.2-2.5 2.4-.5 2.2-.5 6.7-.5 6.7s0 4.5.6 6.7c.3 1.2 1.2 2.1 2.4 2.4 2.1.6 10.7.6 10.7.6s8.6 0 10.7-.6c1.2-.3 2.1-1.3 2.4-2.4.6-2.2.6-6.7.6-6.7s.1-4.5-.5-6.7zm-16 10.8v-8.2l7.2 4.1-7.2 4.1z"/></svg></svg>